<svg xmlns="http://www.w3.org/2000/svg" viewBox="0 0 411.32 196.52"><defs><style>.cls-1{fill:#eb5e25;}.cls-2{fill:#f39200;}.cls-3{fill:#fed169;}.cls-4{fill:#249197;}.cls-5{fill:#6cc4cd;}.cls-6{fill:#c1e6fb;}.cls-10,.cls-11,.cls-7,.cls-8{fill:none;}.cls-7,.cls-8{stroke:#dadada;}.cls-10,.cls-7,.cls-8{stroke-miterlimit:10;}.cls-8{stroke-dasharray:4.91 4.91;}.cls-9{fill:#1d1d1b;}.cls-10,.cls-11{stroke:#1d1d1b;}.cls-10{stroke-width:2px;}.cls-11{stroke-linecap:round;stroke-linejoin:round;stroke-width:0.75px;}</style></defs><g id="Calque_2" data-name="Calque 2"><g id="Calque_1-2" data-name="Calque 1"><rect class="cls-1" y="0.15" width="137.11" height="19.8"/><rect class="cls-2" x="137.11" y="0.15" width="137.11" height="19.8"/><rect class="cls-3" x="274.21" y="0.15" width="137.11" height="19.8"/><rect class="cls-1" x="274.21" y="176.57" width="137.11" height="19.8" transform="translate(685.53 372.94) rotate(180)"/><rect class="cls-2" x="137.11" y="176.57" width="137.11" height="19.8" transform="translate(411.32 372.94) rotate(180)"/><rect class="cls-3" y="176.57" width="137.11" height="19.8" transform="translate(137.11 372.94) rotate(180)"/><rect class="cls-4" x="375.31" y="36.15" width="52.21" height="19.8" transform="translate(447.47 -355.37) rotate(90)"/><rect class="cls-5" x="375.31" y="88.36" width="52.21" height="19.8" transform="translate(499.68 -303.16) rotate(90)"/><rect class="cls-6" x="375.31" y="140.57" width="52.21" height="19.8" transform="translate(551.89 -250.95) rotate(90)"/><rect class="cls-4" x="-16.21" y="140.57" width="52.21" height="19.8" transform="translate(-140.57 160.36) rotate(-90)"/><rect class="cls-5" x="-16.21" y="88.36" width="52.21" height="19.8" transform="translate(-88.36 108.15) rotate(-90)"/><rect class="cls-6" x="-16.21" y="36.15" width="52.21" height="19.8" transform="translate(-36.15 55.95) rotate(-90)"/><line class="cls-7" x1="292.18" x2="292.18" y2="2.5"/><line class="cls-8" x1="292.18" y1="7.41" x2="292.18" y2="191.56"/><line class="cls-7" x1="292.18" y1="194.02" x2="292.18" y2="196.52"/><path class="cls-9" d="M315.31,35.44a1.22,1.22,0,0,1,.65-.1h.83a7.8,7.8,0,0,1,1.67.13,2.76,2.76,0,0,1,1.37,1,2.45,2.45,0,0,1,.5,1.54A2.33,2.33,0,0,1,319,40.21a2.3,2.3,0,0,1-.76.23,9.31,9.31,0,0,1-1.25.06h-1v2.36h-.74V35.55Zm2.77.71a6.11,6.11,0,0,0-1.22-.08h-.95v3.69h1a6,6,0,0,0,1.38-.11,1.8,1.8,0,0,0,.75-.43,1.6,1.6,0,0,0,.56-1.19,2.05,2.05,0,0,0-.06-.39,1.82,1.82,0,0,0-.52-1A2.06,2.06,0,0,0,318.08,36.15Z"/><path class="cls-9" d="M324.14,35.38a.61.61,0,0,1,.22-.09.52.52,0,0,1,.21.09,13.35,13.35,0,0,1,.69,1.63c.41,1,.86,2.23,1.36,3.56s.77,2,.81,2.12a.15.15,0,0,1,0,.07s-.12.05-.37.05h-.4c-.29-.8-.58-1.59-.89-2.36h-1.42l-1.43,0c-.1.25-.24.64-.43,1.16s-.34.91-.44,1.17h-.39c-.25,0-.38,0-.38,0s.46-1.27,1.37-3.68S324.07,35.46,324.14,35.38ZM325,38.3c-.38-1-.57-1.5-.58-1.5h0a6.19,6.19,0,0,0-.58,1.37c-.36,1-.54,1.49-.54,1.51a6.72,6.72,0,0,0,1.12,0h1.12Z"/><path class="cls-9" d="M330.43,35.42a3.41,3.41,0,0,1,.76-.08,2.61,2.61,0,0,1,.56,0,2.84,2.84,0,0,1,1.12.54,2.93,2.93,0,0,1,.8.94,1.7,1.7,0,0,1,.18.44q0,.09-.36.09h-.35l-.19-.28a2.25,2.25,0,0,0-.95-.85,2.13,2.13,0,0,0-.78-.18h-.15a1.89,1.89,0,0,0-1.07.28,1.24,1.24,0,0,0-.53.8c0,.12,0,.2,0,.26a.93.93,0,0,0,.35.69,2.92,2.92,0,0,0,1.31.67,6.54,6.54,0,0,1,2,.81,1.5,1.5,0,0,1,.64,1.22,1.09,1.09,0,0,1,0,.2,1.66,1.66,0,0,1-.12.53,1.85,1.85,0,0,1-.34.47,2.51,2.51,0,0,1-.92.61,3.21,3.21,0,0,1-1.14.22,3.79,3.79,0,0,1-.62-.07,2.67,2.67,0,0,1-1.13-.53,2.61,2.61,0,0,1-.8-1,1.7,1.7,0,0,1-.18-.44c0-.07.12-.1.36-.1s.39,0,.41.07l.15.29a2.27,2.27,0,0,0,.8.74,2.15,2.15,0,0,0,1,.26,2.18,2.18,0,0,0,.49-.06,2.38,2.38,0,0,0,1-.47.93.93,0,0,0,.35-.72V40.8a.13.13,0,0,1,0,0,.72.72,0,0,0-.27-.45,2.66,2.66,0,0,0-1.26-.63,9.31,9.31,0,0,1-1.4-.47,2.71,2.71,0,0,1-.8-.55,2,2,0,0,1-.39-.48,1.67,1.67,0,0,1-.17-.76,1.9,1.9,0,0,1,.61-1.43A2.26,2.26,0,0,1,330.43,35.42Z"/><path class="cls-9" d="M336.8,35.42a3.41,3.41,0,0,1,.76-.08,2.61,2.61,0,0,1,.56,0A3,3,0,0,1,340,36.87a1.7,1.7,0,0,1,.18.44q0,.09-.36.09h-.35l-.19-.28a2.25,2.25,0,0,0-.95-.85,2.08,2.08,0,0,0-.77-.18h-.16a1.89,1.89,0,0,0-1.07.28,1.19,1.19,0,0,0-.52.8,1.7,1.7,0,0,0,0,.26,1,1,0,0,0,.35.69,2.92,2.92,0,0,0,1.31.67,6.54,6.54,0,0,1,2,.81,1.5,1.5,0,0,1,.64,1.22,1.09,1.09,0,0,1,0,.2,1.66,1.66,0,0,1-.12.53,1.85,1.85,0,0,1-.34.47,2.51,2.51,0,0,1-.92.61,3.21,3.21,0,0,1-1.14.22,3.79,3.79,0,0,1-.62-.07,2.72,2.72,0,0,1-1.13-.53,2.61,2.61,0,0,1-.8-1,1.7,1.7,0,0,1-.18-.44c0-.07.12-.1.36-.1s.39,0,.41.07a2.35,2.35,0,0,0,.16.29,2.14,2.14,0,0,0,1.81,1,2.18,2.18,0,0,0,.49-.06,2.32,2.32,0,0,0,1-.47.94.94,0,0,0,.36-.72s0,0,0-.06a.13.13,0,0,1,0,0,.72.72,0,0,0-.27-.45,2.66,2.66,0,0,0-1.26-.63,9.31,9.31,0,0,1-1.4-.47,2.71,2.71,0,0,1-.8-.55,2,2,0,0,1-.39-.48,1.67,1.67,0,0,1-.16-.76,1.89,1.89,0,0,1,.6-1.43A2.26,2.26,0,0,1,336.8,35.42Z"/><path class="cls-9" d="M341.16,40.15v-.79h5.46v.79Z"/><path class="cls-9" d="M347.58,36v-.75H350v7.5h-.74V36Z"/><path d="M359.16,119.68v1.87H315.34v-1.87Z"/><path d="M315.34,107.61v-1.75h43.8v1.75Z"/><path d="M315.34,114.27v-1.62h43.82v1.62Z"/><path d="M359.16,131.56v1.62H315.34v-1.62Z"/><path d="M315.34,100.34V99h43.8v1.38Z"/><path d="M359.16,135.92v1.26H315.34v-1.26Z"/><path d="M359.16,127.07v1.26H315.34v-1.26Z"/><path d="M359.16,154.81V156h-43.8v-1.15Z"/><path d="M359.16,141v1H315.34v-1Z"/><path d="M359.16,139.43v1H315.34v-1Z"/><path d="M315.34,160.79v-1h43.82v1Z"/><path d="M359.16,122v1H315.34v-1Z"/><path d="M315.19,83.68h44l.08.95a3.44,3.44,0,0,1-.65.12H315.92C315,84.77,315.52,84.09,315.19,83.68Z"/><path d="M315.34,75v-.9h43.82V75Z"/><path d="M315.34,88.1v-.89h43.82v.89Z"/><path d="M315.34,71.3v-.81h43.78c.26.74.22.81-.5.81H315.34Z"/><path d="M315.34,78.41v-.77h43.82v.77Z"/><path d="M359.14,90.17h-43.8v-.69h43.24C359.31,89.48,359.31,89.48,359.14,90.17Z"/><path d="M359.16,142.7v.65H315.34v-.65Z"/><path d="M359.15,126.52H315.34v-.66h43.81Z"/><path d="M315.34,85.6V85l.37,0c6.07,0,12.14-.11,18.21-.12q12,0,24.11,0a4.71,4.71,0,0,1,1,.13c.11,0,.27.2.25.26a.66.66,0,0,1-.28.32c-.09,0-.24,0-.36,0H315.34Z"/><path d="M315.34,152.55V152h43.8l.06.53Z"/><path d="M359.16,103.2v.54h-43.8l-.06-.54Z"/><path d="M359.16,111.2v.54h-43.8l-.06-.54Z"/><path d="M315.34,116.69v-.53h43.8l.06.53Z"/><path d="M359.16,92.06v.54h-43.8l-.06-.54Z"/><path d="M315.34,117.42v-.54h43.8l.06.54Z"/><path d="M315.34,135.59v-.53h43.8l.06.53Z"/><path d="M315.34,146.86v-.54h43.8l.06.54Z"/><path d="M315.34,82.89v-.53h43.8l.06.53Z"/><path d="M359.16,80.43V81h-43.8l-.06-.54Z"/><path d="M315.34,148.31v-.53h43.8l.06.53Z"/><path d="M315.34,151v-.54h43.8l.06.54Z"/><path d="M315.35,91.31h43.76c.14.31.11.49-.29.47a1.92,1.92,0,0,0-.24,0H315.92C315.66,91.77,315.21,91.94,315.35,91.31Z"/><path d="M315.25,76.85h44l0,.19a4,4,0,0,1-.88.19c-3.35,0-6.71,0-10.06,0-4.48,0-9,0-13.45,0l-18.34-.12h-1.28Z"/><path d="M315.35,96.87H358c.26,0,.52-.06.78,0a1.29,1.29,0,0,1,.41.2l-.07.21h-36c-1.33,0-2.67,0-4,0a22.73,22.73,0,0,1-3.87-.1Z"/><path d="M315.35,94.83h44.12a2.6,2.6,0,0,1-.47.33,1.92,1.92,0,0,1-.48,0H316.1a5.55,5.55,0,0,1-.79-.11Z"/><path d="M359.27,73h-44.1a2.32,2.32,0,0,1,.44-.32,1.47,1.47,0,0,1,.42,0h42.54a6.09,6.09,0,0,1,.73.1Z"/><path class="cls-9" d="M362.69,158.2a1.81,1.81,0,0,1-.07-.54,2.44,2.44,0,0,1,.31-1.25,2,2,0,0,1,.6-.69,2.53,2.53,0,0,1,.85-.43,11.47,11.47,0,0,1,1.64-.07,9.61,9.61,0,0,1,1.79.09,2.37,2.37,0,0,1,1.74,2.27v.08a.25.25,0,0,0,0,.08,2.33,2.33,0,0,1-.48,1.32,2.13,2.13,0,0,1-1.62.88c-.17,0-.62,0-1.35,0s-1.36,0-1.55,0a2.69,2.69,0,0,1-.72-.25,2,2,0,0,1-.68-.6A2.94,2.94,0,0,1,362.69,158.2Zm.76-1.3a1.55,1.55,0,0,0-.13.64,2.35,2.35,0,0,0,0,.54,1.68,1.68,0,0,0,1.34,1.19,24,24,0,0,0,2.77,0,1.68,1.68,0,0,0,1-.6,1.65,1.65,0,0,0,.25-1.73,1.6,1.6,0,0,0-.59-.72,1.9,1.9,0,0,0-.56-.25,6.67,6.67,0,0,0-1-.05h-2l-.26.12a1.88,1.88,0,0,0-.48.36A1.66,1.66,0,0,0,363.45,156.9Z"/><path class="cls-9" d="M362.67,152.38a1.15,1.15,0,0,1,0-.33,1.76,1.76,0,0,1,.14-.75,1.6,1.6,0,0,1,.58-.66,1.49,1.49,0,0,1,.83-.25,1.85,1.85,0,0,1,.34.05,1.37,1.37,0,0,1,.73.37.05.05,0,0,0,.08,0,1.21,1.21,0,0,0,.15-.2,2.38,2.38,0,0,1,1-.83,1.86,1.86,0,0,1,.85-.19,2,2,0,0,1,1.57.7,2.47,2.47,0,0,1,0,3.36,2,2,0,0,1-1.53.69h-.16a2.17,2.17,0,0,1-.74-.18,2.23,2.23,0,0,1-1-.81c-.12-.18-.2-.24-.24-.19a1.15,1.15,0,0,1-.44.28,1.87,1.87,0,0,1-.65.12l-.21,0a1.69,1.69,0,0,1-.81-.41A1.47,1.47,0,0,1,362.67,152.38Zm3.14-.81a1.52,1.52,0,0,0-.06.42,1.69,1.69,0,0,0,.25.89,1.74,1.74,0,0,0,.68.64,1.6,1.6,0,0,0,1.24,0,1.64,1.64,0,0,0,.78-.8,1.62,1.62,0,0,0,.15-.74,1.67,1.67,0,0,0-.12-.72,1.77,1.77,0,0,0-.61-.71,1.39,1.39,0,0,0-.81-.26,1.14,1.14,0,0,0-.39.06A1.59,1.59,0,0,0,365.81,151.57Zm-2.33-.08a.93.93,0,0,0-.16.51.82.82,0,0,0,.47.75.78.78,0,0,0,.41.12.69.69,0,0,0,.39-.12A.82.82,0,0,0,365,152a.91.91,0,0,0-.14-.49.87.87,0,0,0-.72-.4A.8.8,0,0,0,363.48,151.49Z"/><path class="cls-9" d="M362.65,143.74s0-.1,0-.21a3.15,3.15,0,0,1,.11-.9,2.22,2.22,0,0,1,.58-.92,2.34,2.34,0,0,1,1-.55l.3-.07a.08.08,0,0,1,.09.07,1.26,1.26,0,0,1,0,.26v.33l-.2.06a1.72,1.72,0,0,0-.87.59,1.54,1.54,0,0,0-.32,1,1.88,1.88,0,0,0,.27.95,1.67,1.67,0,0,0,1.57.76h.4l-.19-.28a2.44,2.44,0,0,1-.42-1.28v-.16a2.32,2.32,0,0,1,.3-1.17,2.2,2.2,0,0,1,2-1.15,2.53,2.53,0,0,1,1.09.25,2.29,2.29,0,0,1,.53.4,2.25,2.25,0,0,1,.42.51,2.48,2.48,0,0,1-.18,2.65,2.2,2.2,0,0,1-1.29.84,12.6,12.6,0,0,1-1.82.08,9.55,9.55,0,0,1-1.56-.07,2.26,2.26,0,0,1-1.06-.58A2.86,2.86,0,0,1,362.65,143.74Zm3.06-1a1.91,1.91,0,0,0-.11.6,1.73,1.73,0,0,0,.2.77,1.51,1.51,0,0,0,.59.66,1.56,1.56,0,0,0,.85.25,1.43,1.43,0,0,0,.39-.06,1.72,1.72,0,0,0,.92-.62,1.67,1.67,0,0,0,.33-1,1.65,1.65,0,0,0-.65-1.31,1.5,1.5,0,0,0-1-.34,1.66,1.66,0,0,0-.93.28A1.53,1.53,0,0,0,365.71,142.78Z"/><path class="cls-9" d="M362.74,140l-.12-.11v-4h.68v3.53h1.58l0-1a5.16,5.16,0,0,1,.13-1.33,2.38,2.38,0,0,1,1.57-1.64,2.25,2.25,0,0,1,.61-.09,2.28,2.28,0,0,1,1.2.34,2.37,2.37,0,0,1,.84.91,2.65,2.65,0,0,1,.3,1.25,2.14,2.14,0,0,1-1.06,2,1.17,1.17,0,0,1-.33.15c-.07,0-.11-.12-.11-.35v-.34l.17-.11a1.52,1.52,0,0,0,.67-1.34c0-.06,0-.14,0-.26a2,2,0,0,0-.58-1.12,1.51,1.51,0,0,0-1.05-.45,1.42,1.42,0,0,0-.38.06,1.64,1.64,0,0,0-.79.51,1.7,1.7,0,0,0-.42.76,7.79,7.79,0,0,0-.09,1.47V140l-.11.09a.43.43,0,0,1-.27.09h-2.34Z"/><path class="cls-9" d="M362.68,130.87a.27.27,0,0,1-.06-.17.33.33,0,0,1,.12-.25l.1-.11H367v-.54h.68v.54h1.9V131h-1.9v1.64a15.61,15.61,0,0,1,0,1.62.25.25,0,0,1-.27.23h0a1.07,1.07,0,0,1-.53-.29l-.69-.56q-.67-.53-1.38-1.11l-1.36-1.09Zm2.8.14a14.09,14.09,0,0,0-1.5,0l1.5,1.21,1.49,1.2V131Z"/><path class="cls-9" d="M362.67,124a1.15,1.15,0,0,1,0-.33,1.76,1.76,0,0,1,.14-.75,1.6,1.6,0,0,1,.58-.66,1.58,1.58,0,0,1,.83-.25,1.85,1.85,0,0,1,.34,0,1.37,1.37,0,0,1,.73.37.05.05,0,0,0,.08,0,1.21,1.21,0,0,0,.15-.2,2.38,2.38,0,0,1,1-.83,1.86,1.86,0,0,1,.85-.19,2,2,0,0,1,1.57.7,2.48,2.48,0,0,1,0,3.37,2,2,0,0,1-1.53.68h-.16a1.79,1.79,0,0,1-.74-.18,2.23,2.23,0,0,1-1-.81c-.12-.17-.2-.24-.24-.19a1.15,1.15,0,0,1-.44.28,1.87,1.87,0,0,1-.65.12l-.21,0a1.69,1.69,0,0,1-.81-.41A1.47,1.47,0,0,1,362.67,124Zm3.14-.81a1.58,1.58,0,0,0-.06.42,1.69,1.69,0,0,0,.25.89,1.74,1.74,0,0,0,.68.64,1.34,1.34,0,0,0,.63.13,1.48,1.48,0,0,0,.61-.11,1.71,1.71,0,0,0,.78-.81,1.6,1.6,0,0,0,.15-.74,1.67,1.67,0,0,0-.12-.72,1.77,1.77,0,0,0-.61-.71,1.47,1.47,0,0,0-.81-.26,1.14,1.14,0,0,0-.39.06A1.61,1.61,0,0,0,365.81,123.15Zm-2.33-.08a1,1,0,0,0-.16.51.83.83,0,0,0,.47.76.87.87,0,0,0,.41.11.77.77,0,0,0,.39-.11.84.84,0,0,0,.45-.77.93.93,0,0,0-.14-.49.9.9,0,0,0-.72-.4A.8.8,0,0,0,363.48,123.07Z"/><path class="cls-9" d="M362.8,118.6a2,2,0,0,1-.09-.68,2.77,2.77,0,0,1,.07-.64,2.52,2.52,0,0,1,.62-1.06,2.29,2.29,0,0,1,1.05-.59,20.8,20.8,0,0,1,3.41,0,2.15,2.15,0,0,1,1,.57,2.56,2.56,0,0,1,.62,1,2.86,2.86,0,0,1,.08.72,2.15,2.15,0,0,1-.1.75,2.2,2.2,0,0,1-1.53,1.46l-.3.07a.09.09,0,0,1-.1-.06,1.52,1.52,0,0,1,0-.28v-.33l.24-.07a1.5,1.5,0,0,0,.84-.59,1.58,1.58,0,0,0,.32-1,1.72,1.72,0,0,0-.29-.93,1.7,1.7,0,0,0-1.57-.75h-.39l.19.29a2.47,2.47,0,0,1,.43,1.26V118a2.32,2.32,0,0,1-.31,1.17,2.16,2.16,0,0,1-.83.84,2.31,2.31,0,0,1-1.16.3,2.14,2.14,0,0,1-1.59-.66A2.31,2.31,0,0,1,362.8,118.6Zm.65-1.14a1.55,1.55,0,0,0-.08.47,1.6,1.6,0,0,0,.39,1.06,1.65,1.65,0,0,0,1,.58l.23,0a1.75,1.75,0,0,0,1.66-1.66s0-.13,0-.24a1.77,1.77,0,0,0-.58-1,1.61,1.61,0,0,0-1.06-.4,1.67,1.67,0,0,0-.82.23A1.57,1.57,0,0,0,363.45,117.46Z"/><path class="cls-9" d="M362.69,113a1.93,1.93,0,0,1-.07-.55,2.44,2.44,0,0,1,.31-1.25,2,2,0,0,1,.6-.68,2.36,2.36,0,0,1,.85-.43A10,10,0,0,1,366,110a11.21,11.21,0,0,1,1.79.08,2.37,2.37,0,0,1,1.25.84,2.27,2.27,0,0,1,.49,1.43v.08a.31.31,0,0,0,0,.09,2.3,2.3,0,0,1-.48,1.31,2.33,2.33,0,0,1-1.14.8,1.86,1.86,0,0,1-.48.09c-.17,0-.62,0-1.35,0a15.46,15.46,0,0,1-1.55,0,2.13,2.13,0,0,1-.72-.25,1.79,1.79,0,0,1-.68-.6A2.78,2.78,0,0,1,362.69,113Zm.76-1.3a1.48,1.48,0,0,0-.13.64,2.35,2.35,0,0,0,0,.54A1.69,1.69,0,0,0,364.7,114a19.21,19.21,0,0,0,2.77,0,1.68,1.68,0,0,0,1-.6,1.62,1.62,0,0,0,.39-1.07,1.74,1.74,0,0,0-.14-.66,1.72,1.72,0,0,0-.59-.72,2.14,2.14,0,0,0-.56-.24,5.51,5.51,0,0,0-1,0h-2l-.26.12a1.88,1.88,0,0,0-.48.36A1.54,1.54,0,0,0,363.45,111.66Z"/><path class="cls-9" d="M362.69,104.43a1.93,1.93,0,0,1-.07-.55,2.44,2.44,0,0,1,.31-1.25,2,2,0,0,1,.6-.68,2.36,2.36,0,0,1,.85-.43,10,10,0,0,1,1.64-.07,11.21,11.21,0,0,1,1.79.08,2.37,2.37,0,0,1,1.25.84,2.27,2.27,0,0,1,.49,1.43v.08a.28.28,0,0,0,0,.09,2.3,2.3,0,0,1-.48,1.31,2.33,2.33,0,0,1-1.14.8,1.86,1.86,0,0,1-.48.09c-.17,0-.62,0-1.35,0a15.46,15.46,0,0,1-1.55,0,2.38,2.38,0,0,1-.72-.25,2,2,0,0,1-.68-.6A2.78,2.78,0,0,1,362.69,104.43Zm.76-1.3a1.47,1.47,0,0,0-.13.63,2.39,2.39,0,0,0,0,.55,1.69,1.69,0,0,0,1.34,1.18,19.21,19.21,0,0,0,2.77,0,1.68,1.68,0,0,0,1-.6,1.64,1.64,0,0,0,.39-1.07,1.7,1.7,0,0,0-.73-1.38,1.85,1.85,0,0,0-.56-.24,5.51,5.51,0,0,0-1,0h-2l-.26.12a1.51,1.51,0,0,0-.48.36A1.54,1.54,0,0,0,363.45,103.13Z"/><path class="cls-9" d="M362.7,98.48v-.06a.45.45,0,0,1,0-.11v-.13a1,1,0,0,0,0-.15,2.39,2.39,0,0,1,.57-1.4,2.3,2.3,0,0,1,1.3-.76,2.5,2.5,0,0,1,.4,0,2.37,2.37,0,0,1,1.35.45,3.34,3.34,0,0,1,.53.48c.17.19.54.62,1.1,1.3l.94,1.16c0-.38,0-1,0-1.71s0-1.33,0-1.71h.67v2.28c0,1.13,0,1.8,0,2a.76.76,0,0,1-.07.38.33.33,0,0,1-.23.09.32.32,0,0,1-.27-.13l-1.37-1.64c-.87-1.05-1.37-1.63-1.51-1.76a1.65,1.65,0,0,0-1.14-.52l-.23,0a1.62,1.62,0,0,0-.89.48,1.78,1.78,0,0,0-.47.9,1,1,0,0,0,0,.3,1.61,1.61,0,0,0,.26.87,1.72,1.72,0,0,0,.69.62,1,1,0,0,0,.36.14s.07,0,.07.06a1.59,1.59,0,0,1,0,.31c0,.23,0,.34-.06.34l-.08,0-.13,0-.15,0a2.14,2.14,0,0,1-1.07-.71A2.78,2.78,0,0,1,362.7,98.48Z"/><path class="cls-9" d="M363.3,94.9h-.68V92.75c0-1,0-1.64,0-1.85a.78.78,0,0,1,.07-.39.2.2,0,0,1,.17-.1,2.33,2.33,0,0,1,.75.3c.39.2,1.29.7,2.7,1.49L369.53,94v.39a1.65,1.65,0,0,1,0,.39s-1.06-.57-3.12-1.72l-3.07-1.72c0,.41,0,1,0,1.79S363.31,94.51,363.3,94.9Z"/><path class="cls-9" d="M363.3,86.54h-.68V84.39c0-1,0-1.65,0-1.86a.84.84,0,0,1,.07-.39.21.21,0,0,1,.17-.09,2.33,2.33,0,0,1,.75.3c.39.2,1.29.69,2.7,1.48l3.21,1.8V86a1.65,1.65,0,0,1,0,.39s-1.06-.58-3.12-1.73L363.33,83c0,.4,0,1,0,1.79S363.31,86.14,363.3,86.54Z"/><path class="cls-9" d="M362.67,79.16a1.06,1.06,0,0,1,0-.33,1.71,1.71,0,0,1,.14-.74,1.59,1.59,0,0,1,1.41-.91,1.26,1.26,0,0,1,.34,0,1.37,1.37,0,0,1,.73.36s.05,0,.08,0a.87.87,0,0,0,.15-.2,2.36,2.36,0,0,1,1-.82,1.86,1.86,0,0,1,.85-.19,2,2,0,0,1,1.57.69,2.48,2.48,0,0,1,0,3.37,2,2,0,0,1-1.53.69h-.16a2.25,2.25,0,0,1-1.72-1c-.12-.17-.2-.23-.24-.19a.9.9,0,0,1-.44.28,1.88,1.88,0,0,1-.65.13l-.21,0a1.68,1.68,0,0,1-.81-.4A1.5,1.5,0,0,1,362.67,79.16Zm3.14-.8a1.51,1.51,0,0,0-.06.41,1.64,1.64,0,0,0,.25.89,1.77,1.77,0,0,0,.68.65,1.6,1.6,0,0,0,1.24,0,1.64,1.64,0,0,0,.78-.8,1.67,1.67,0,0,0,.15-.75,1.73,1.73,0,0,0-.12-.72,1.84,1.84,0,0,0-.61-.71,1.47,1.47,0,0,0-.81-.26,1.14,1.14,0,0,0-.39.06A1.62,1.62,0,0,0,365.81,78.36Zm-2.33-.08a.92.92,0,0,0-.16.5.82.82,0,0,0,.47.76.78.78,0,0,0,.41.12.69.69,0,0,0,.39-.12.83.83,0,0,0,.45-.77.87.87,0,0,0-.86-.88A.8.8,0,0,0,363.48,78.28Z"/><path class="cls-9" d="M362.69,73.75a1.86,1.86,0,0,1-.07-.54,2.48,2.48,0,0,1,.31-1.26,2,2,0,0,1,.6-.68,2.36,2.36,0,0,1,.85-.43,11.47,11.47,0,0,1,1.64-.07,9.61,9.61,0,0,1,1.79.09,2.34,2.34,0,0,1,1.74,2.26v.09a.25.25,0,0,0,0,.08,2.36,2.36,0,0,1-.48,1.32,2.32,2.32,0,0,1-1.14.79,1.86,1.86,0,0,1-.48.09c-.17,0-.62,0-1.35,0s-1.36,0-1.55,0a2.69,2.69,0,0,1-.72-.25,1.91,1.91,0,0,1-.68-.61A2.78,2.78,0,0,1,362.69,73.75Zm.76-1.3a1.52,1.52,0,0,0-.13.64,2.35,2.35,0,0,0,0,.54,1.67,1.67,0,0,0,1.34,1.18,19.21,19.21,0,0,0,2.77,0,1.62,1.62,0,0,0,1-.59,1.65,1.65,0,0,0,.25-1.73,1.6,1.6,0,0,0-.59-.72,1.9,1.9,0,0,0-.56-.25,6.67,6.67,0,0,0-1,0h-2l-.26.12a1.88,1.88,0,0,0-.48.36A1.66,1.66,0,0,0,363.45,72.45Z"/><path class="cls-3" d="M43.55,65.77a4.22,4.22,0,0,1,1.56-.18q1.11,0,2,0a21.29,21.29,0,0,1,3.91.27,6.57,6.57,0,0,1,4.66,4.38,5.65,5.65,0,0,1,.24,1.84,5.54,5.54,0,0,1-.24,1.83,6.06,6.06,0,0,1-4.39,3.93,15,15,0,0,1-3.27.3l-2.5,0v4.92H42.74V73.25A53.18,53.18,0,0,1,43,66.34a.91.91,0,0,1,.51-.51Zm6.25,2.7a16,16,0,0,0-2.49-.15H45.5v7.12h2a13.13,13.13,0,0,0,3.13-.27,3.75,3.75,0,0,0,1.73-1,2.8,2.8,0,0,0,.81-2.07.86.86,0,0,0,0-.15,1,1,0,0,1,0-.15,3.46,3.46,0,0,0-1-2.18A4.19,4.19,0,0,0,49.8,68.47Z"/><path class="cls-3" d="M64.73,66a1.43,1.43,0,0,1,1-.48,1.53,1.53,0,0,1,.66.19,1.18,1.18,0,0,1,.51.41q.12.18,3.35,8.33t3.23,8.46T72.09,83H70.62q-1.16-2.79-2-4.93H62.9Q62.26,79.72,61,83H59.5q-1.41,0-1.41-.12a.27.27,0,0,1,0-.12q.18-.57,3.35-8.64T64.73,66Zm2.82,9.34q-1.71-4.5-1.74-4.5L64,75.17s0,.07,0,.08l.29,0a4,4,0,0,0,.54,0h.87Q67.55,75.32,67.55,75.29Z"/><path class="cls-3" d="M81.16,65.65a6.51,6.51,0,0,1,.81,0,10.54,10.54,0,0,1,2.07.15A6.55,6.55,0,0,1,86.52,67a6.34,6.34,0,0,1,1.79,2,.87.87,0,0,0,.07.17,1.09,1.09,0,0,1,.08.15l.06.15a.67.67,0,0,0,.06.12.36.36,0,0,1,0,.09.25.25,0,0,1,0,.07l0,0a7.66,7.66,0,0,1-1.56.06,3.57,3.57,0,0,1-1.8-.24,4,4,0,0,0-3-1.23,2.77,2.77,0,0,0-2.73,1.35,2.32,2.32,0,0,0-.24.9c0,.73.53,1.36,1.59,1.9A21.53,21.53,0,0,0,84,73.58a7.58,7.58,0,0,1,3.4,1.86,3.52,3.52,0,0,1,1,1.5,4.58,4.58,0,0,1,.18,1.27,3.92,3.92,0,0,1-.48,2,5.3,5.3,0,0,1-2.28,2.1,7.23,7.23,0,0,1-3.31.78h-.45a7.53,7.53,0,0,1-2.73-.69,6.47,6.47,0,0,1-1.4-1A7.46,7.46,0,0,1,76.77,80a10.54,10.54,0,0,1-.58-1.17,3.84,3.84,0,0,1-.35-1q0-.12,1.44-.12H78.7l.24.49A4.36,4.36,0,0,0,80.83,80a3.51,3.51,0,0,0,1.59.36,4.32,4.32,0,0,0,2.4-.66,1.84,1.84,0,0,0,1-1.48,1.08,1.08,0,0,0-.21-.63,2.73,2.73,0,0,0-.92-.67,9.37,9.37,0,0,0-1.43-.62L82.42,76l-1-.3c-3.24-1-4.87-2.63-4.87-5a5.14,5.14,0,0,1,.18-1.3A4.19,4.19,0,0,1,78,67.18,6.41,6.41,0,0,1,81.16,65.65Z"/><path class="cls-3" d="M96.18,65.65a6.51,6.51,0,0,1,.81,0,10.54,10.54,0,0,1,2.07.15,6.55,6.55,0,0,1,2.48,1.2,6.34,6.34,0,0,1,1.79,2,.87.87,0,0,0,.07.17,1.09,1.09,0,0,1,.08.15l.06.15a.67.67,0,0,0,.06.12.36.36,0,0,1,0,.09.25.25,0,0,1,0,.07l0,0a7.66,7.66,0,0,1-1.56.06,3.62,3.62,0,0,1-1.81-.24,3.93,3.93,0,0,0-3-1.23,2.77,2.77,0,0,0-2.73,1.35,2.32,2.32,0,0,0-.24.9c0,.73.53,1.36,1.59,1.9a21.53,21.53,0,0,0,3.15,1.08,7.64,7.64,0,0,1,3.4,1.86,3.52,3.52,0,0,1,1,1.5,4.58,4.58,0,0,1,.18,1.27,3.92,3.92,0,0,1-.48,2,5.3,5.3,0,0,1-2.28,2.1,7.23,7.23,0,0,1-3.31.78h-.45a7.53,7.53,0,0,1-2.73-.69,6.47,6.47,0,0,1-1.4-1A7.46,7.46,0,0,1,91.79,80a10.54,10.54,0,0,1-.58-1.17,3.84,3.84,0,0,1-.35-1q0-.12,1.44-.12h1.42l.24.49A4.36,4.36,0,0,0,95.85,80a3.51,3.51,0,0,0,1.59.36,4.32,4.32,0,0,0,2.4-.66,1.84,1.84,0,0,0,1-1.48,1.16,1.16,0,0,0-.21-.63,2.84,2.84,0,0,0-.92-.67,9.37,9.37,0,0,0-1.43-.62L97.44,76l-1-.3c-3.24-1-4.87-2.63-4.87-5a5.14,5.14,0,0,1,.18-1.3A4.19,4.19,0,0,1,93,67.18,6.41,6.41,0,0,1,96.18,65.65Z"/><path class="cls-3" d="M113.42,68.23V65.47h5.41V83.1h-2.76V68.23Z"/><path d="M57.11,156.9h-.7V140.49h.7Z"/><path d="M61.63,140.49h.66v16.4h-.66Z"/><path d="M59.14,140.49h.61V156.9h-.61Z"/><path d="M52.66,156.9h-.6V140.49h.6Z"/><path d="M64.36,140.49h.51v16.4h-.51Z"/><path d="M51,156.9h-.47V140.49H51Z"/><path d="M54.34,156.9h-.47V140.49h.47Z"/><path d="M44,156.9h-.43V140.5H44Z"/><path d="M49.13,156.9h-.38V140.49h.38Z"/><path d="M49.72,156.9h-.38V140.49h.38Z"/><path d="M41.72,140.49h.38V156.9h-.38Z"/><path d="M56.25,156.9h-.38V140.49h.38Z"/><path d="M70.59,140.43V156.9l-.35,0a1.33,1.33,0,0,1,0-.24c0-5.32,0-10.65,0-16C70.19,140.35,70.44,140.55,70.59,140.43Z"/><path d="M73.84,140.49h.33V156.9h-.33Z"/><path d="M68.94,140.49h.33V156.9h-.33Z"/><path d="M75.23,140.49h.3v16.39c-.27.1-.3.09-.3-.18V140.49Z"/><path d="M72.57,140.49h.29V156.9h-.29Z"/><path d="M68.16,156.89v-16.4h.26v16.19C68.42,157,68.42,157,68.16,156.89Z"/><path d="M48.49,156.9h-.24V140.49h.24Z"/><path d="M54.55,156.89v-16.4h.25v16.4Z"/><path d="M69.88,140.49h.21a.66.66,0,0,1,0,.14q0,3.41.05,6.82v9a2.32,2.32,0,0,1-.05.38s-.08.1-.1.09a.21.21,0,0,1-.12-.11s0-.08,0-.13V140.49Z"/><path d="M44.8,140.49H45v16.4l-.2,0Z"/><path d="M63.28,156.9h-.2V140.5l.2,0Z"/><path d="M60.29,156.9h-.2V140.5l.2,0Z"/><path d="M58.23,140.49h.2v16.4l-.2,0Z"/><path d="M67.46,156.9h-.2V140.5l.2,0Z"/><path d="M58,140.49h.2v16.4l-.2,0Z"/><path d="M51.15,140.49h.2v16.4l-.2,0Z"/><path d="M46.93,140.49h.2v16.4l-.2,0Z"/><path d="M70.89,140.49h.2v16.4l-.2,0Z"/><path d="M71.81,156.9h-.2V140.5l.2,0Z"/><path d="M46.39,140.49h.2v16.4l-.2,0Z"/><path d="M45.39,140.49h.2v16.4l-.2,0Z"/><path d="M67.74,140.49v16.39c-.12.05-.19,0-.18-.11V140.71C67.56,140.61,67.5,140.44,67.74,140.49Z"/><path d="M73.15,140.45v16.48h-.07a1.94,1.94,0,0,1-.07-.33c0-1.25,0-2.51,0-3.76,0-1.68,0-3.36,0-5,0-2.29,0-4.58,0-6.87v-.48Z"/><path d="M65.66,140.49v16a2.81,2.81,0,0,1,0,.29s0,.1-.07.16l-.08,0V143.43c0-.5,0-1,0-1.5a10,10,0,0,1,0-1.45Z"/><path d="M66.42,140.49V157a.67.67,0,0,1-.12-.17.55.55,0,0,1,0-.18V140.77c0-.09,0-.19,0-.29Z"/><path d="M74.6,156.94V140.43c.07.08.11.12.12.16a.42.42,0,0,1,0,.16v15.93a2.51,2.51,0,0,1,0,.27Z"/><path class="cls-9" d="M42.69,158.22a.64.64,0,0,1,.2,0,.91.91,0,0,1,.47.12.87.87,0,0,1,.26.22.93.93,0,0,1,.15.32,3.49,3.49,0,0,1,0,.62,4.08,4.08,0,0,1,0,.67.93.93,0,0,1-.31.47.88.88,0,0,1-.54.18h-.06a.89.89,0,0,1-.5-.18.87.87,0,0,1-.29-.43,1,1,0,0,1,0-.18v-.5c0-.32,0-.51,0-.59a.9.9,0,0,1,.09-.26.7.7,0,0,1,.23-.26A.87.87,0,0,1,42.69,158.22Zm.48.28a.55.55,0,0,0-.24,0h-.2a.62.62,0,0,0-.44.5,5.14,5.14,0,0,0,0,.52,4.83,4.83,0,0,0,0,.52.62.62,0,0,0,.22.38.6.6,0,0,0,.4.15.54.54,0,0,0,.25-.06.6.6,0,0,0,.36-.43,2.51,2.51,0,0,0,0-.37v-.76l0-.1a.68.68,0,0,0-.13-.18A.77.77,0,0,0,43.17,158.5Z"/><path class="cls-9" d="M44.87,158.21H45a.7.7,0,0,1,.28.05.59.59,0,0,1,.34.53.37.37,0,0,1,0,.13.56.56,0,0,1-.13.27s0,0,0,0l.08.06a1,1,0,0,1,.31.37.79.79,0,0,1,.07.32.77.77,0,0,1-.26.58.89.89,0,0,1-.64.25.84.84,0,0,1-.62-.25.73.73,0,0,1-.26-.57v-.06a.88.88,0,0,1,.06-.28.83.83,0,0,1,.31-.36c.07-.05.09-.08.07-.09a.38.38,0,0,1-.1-.17.69.69,0,0,1,0-.24.28.28,0,0,1,0-.08.6.6,0,0,1,.15-.31A.66.66,0,0,1,44.87,158.21Zm.3,1.18a.44.44,0,0,0-.16,0,.66.66,0,0,0-.33.09.6.6,0,0,0-.24.26.52.52,0,0,0,0,.23.5.5,0,0,0,0,.23.65.65,0,0,0,.3.29.61.61,0,0,0,.28.06.62.62,0,0,0,.27-.05.66.66,0,0,0,.27-.22.6.6,0,0,0,.1-.31.37.37,0,0,0,0-.15A.61.61,0,0,0,45.17,159.39Zm0-.87a.38.38,0,0,0-.19-.06.29.29,0,0,0-.28.17.3.3,0,0,0,0,.16.24.24,0,0,0,0,.14.29.29,0,0,0,.28.17.35.35,0,0,0,.18,0,.33.33,0,0,0,.16-.27A.29.29,0,0,0,45.2,158.52Z"/><path class="cls-9" d="M48.1,158.21h.08a1.51,1.51,0,0,1,.34,0,.87.87,0,0,1,.34.22.82.82,0,0,1,.21.36c0,.06,0,.1,0,.12s0,0,0,0h-.22l0-.08a.6.6,0,0,0-.22-.32.56.56,0,0,0-.36-.12.64.64,0,0,0-.35.1.63.63,0,0,0-.29.59v.15l.11-.07a.81.81,0,0,1,.48-.16h.06a.82.82,0,0,1,.44.11.84.84,0,0,1,.43.74.91.91,0,0,1-.1.4.8.8,0,0,1-.15.2.9.9,0,0,1-.19.16.93.93,0,0,1-.44.11.89.89,0,0,1-.55-.18.78.78,0,0,1-.31-.48,4.61,4.61,0,0,1,0-.68,3.76,3.76,0,0,1,0-.59.93.93,0,0,1,.22-.4A1.11,1.11,0,0,1,48.1,158.21Zm.36,1.14a.6.6,0,0,0-.22,0,.65.65,0,0,0-.29.07.56.56,0,0,0-.25.23.59.59,0,0,0-.09.31.39.39,0,0,0,0,.15.61.61,0,0,0,.61.47.62.62,0,0,0,.49-.24.56.56,0,0,0,.13-.37.63.63,0,0,0-.11-.35A.6.6,0,0,0,48.46,159.35Z"/><path class="cls-9" d="M49.49,158.24l0-.05H51v.26H49.7V159h.38a1.57,1.57,0,0,1,.49,0,.9.9,0,0,1,.62.59.91.91,0,0,1,0,.23.8.8,0,0,1-.13.44.87.87,0,0,1-.34.32,1,1,0,0,1-.47.11.78.78,0,0,1-.74-.4.4.4,0,0,1-.06-.12s0,0,.13,0h.13l0,.06a.55.55,0,0,0,.5.25h.1a.72.72,0,0,0,.42-.22.58.58,0,0,0,.17-.4.44.44,0,0,0,0-.14.55.55,0,0,0-.19-.29.54.54,0,0,0-.28-.16,3.28,3.28,0,0,0-.55,0h-.41l0,0a.16.16,0,0,1,0-.11,3.48,3.48,0,0,1,0-.41v-.46Z"/><path class="cls-9" d="M52.92,158.22a.09.09,0,0,1,.06,0,.14.14,0,0,1,.1.05l0,0v1.54h.2v.26h-.2v.71h-.25v-.71h-.62a5.46,5.46,0,0,1-.6,0,.09.09,0,0,1-.09-.1h0a.44.44,0,0,1,.11-.2l.21-.26.42-.52.4-.5Zm-.05,1.05a4.88,4.88,0,0,0,0-.57l-.46.57-.44.55h.91Z"/><path class="cls-9" d="M55.51,158.21h.12a.7.7,0,0,1,.28.05.54.54,0,0,1,.25.22.59.59,0,0,1,.09.31.72.72,0,0,1,0,.13.67.67,0,0,1-.14.27,0,0,0,0,0,0,0l.08.06a.87.87,0,0,1,.31.37.66.66,0,0,1,.07.32.77.77,0,0,1-.26.58.92.92,0,0,1-1.26,0,.76.76,0,0,1-.26-.57v-.06a.85.85,0,0,1,.37-.64c.07-.05.09-.08.07-.09a.5.5,0,0,1-.1-.17.69.69,0,0,1,0-.24s0,0,0-.08a.81.81,0,0,1,.15-.31A.66.66,0,0,1,55.51,158.21Zm.3,1.18a.39.39,0,0,0-.15,0,.69.69,0,0,0-.34.09.75.75,0,0,0-.24.26.52.52,0,0,0,0,.23.49.49,0,0,0,0,.23.57.57,0,0,0,.3.29.55.55,0,0,0,.28.06.68.68,0,0,0,.27-.05.63.63,0,0,0,.26-.22.52.52,0,0,0,.1-.31.68.68,0,0,0,0-.15A.62.62,0,0,0,55.81,159.39Zm0-.87a.35.35,0,0,0-.19-.06.35.35,0,0,0-.33.33.24.24,0,0,0,0,.14.3.3,0,0,0,.29.17.41.41,0,0,0,.18,0,.34.34,0,0,0,.15-.27A.29.29,0,0,0,55.84,158.52Z"/><path class="cls-9" d="M57.52,158.26a.81.81,0,0,1,.25,0,.78.78,0,0,1,.24,0,.9.9,0,0,1,.4.23.84.84,0,0,1,.22.39,3.62,3.62,0,0,1,0,.64,3.7,3.7,0,0,1,0,.64.89.89,0,0,1-.21.38,1,1,0,0,1-.38.23,1,1,0,0,1-.27,0,1,1,0,0,1-.28,0,.84.84,0,0,1-.55-.58l0-.11s0,0,0,0h.23l0,.08a.57.57,0,0,0,.22.32.6.6,0,0,0,.36.12.66.66,0,0,0,.35-.11.63.63,0,0,0,.28-.59v-.14l-.11.07a1,1,0,0,1-.47.16h-.06a.83.83,0,0,1-.44-.12.87.87,0,0,1-.32-.31.92.92,0,0,1-.11-.43.79.79,0,0,1,.25-.6A.89.89,0,0,1,57.52,158.26Zm.42.24-.17,0a.62.62,0,0,0-.62.52s0,.07,0,.09a.65.65,0,0,0,.62.62h.1a.64.64,0,0,0,.39-.22.56.56,0,0,0,.15-.39.59.59,0,0,0-.09-.31A.61.61,0,0,0,57.94,158.5Z"/><path class="cls-9" d="M59.63,158.22a.64.64,0,0,1,.2,0,.89.89,0,0,1,.47.12.77.77,0,0,1,.26.22,1,1,0,0,1,.16.32,3.49,3.49,0,0,1,0,.62,2.86,2.86,0,0,1,0,.67.87.87,0,0,1-.85.65H59.8a.84.84,0,0,1-.49-.18.89.89,0,0,1-.3-.43.52.52,0,0,1,0-.18c0-.07,0-.23,0-.5s0-.51,0-.59a.72.72,0,0,1,.1-.26.67.67,0,0,1,.22-.26A1,1,0,0,1,59.63,158.22Zm.49.28a.61.61,0,0,0-.24,0h-.21a.66.66,0,0,0-.44.5,5.14,5.14,0,0,0,0,.52,4.83,4.83,0,0,0,0,.52.63.63,0,0,0,.23.38.59.59,0,0,0,.4.15.53.53,0,0,0,.24-.06.6.6,0,0,0,.36-.43,1.59,1.59,0,0,0,0-.37v-.76l0-.1a.92.92,0,0,0-.32-.32Z"/><path class="cls-9" d="M62.83,158.22a.6.6,0,0,1,.2,0,.91.91,0,0,1,.47.12.74.74,0,0,1,.25.22,1,1,0,0,1,.16.32,3.49,3.49,0,0,1,0,.62,4.08,4.08,0,0,1,0,.67.93.93,0,0,1-.31.47.88.88,0,0,1-.54.18H63a.87.87,0,0,1-.5-.18.81.81,0,0,1-.29-.43,1,1,0,0,1,0-.18v-.5c0-.32,0-.51,0-.59a.9.9,0,0,1,.09-.26.7.7,0,0,1,.23-.26A.87.87,0,0,1,62.83,158.22Zm.48.28a.55.55,0,0,0-.24,0h-.2a.62.62,0,0,0-.44.5,5.14,5.14,0,0,0,0,.52,4.83,4.83,0,0,0,0,.52.62.62,0,0,0,.22.38.6.6,0,0,0,.4.15.54.54,0,0,0,.25-.06.6.6,0,0,0,.36-.43,2.51,2.51,0,0,0,0-.37v-.76l0-.1a.68.68,0,0,0-.13-.18A.77.77,0,0,0,63.31,158.5Z"/><path class="cls-9" d="M65.05,158.23h.17a.89.89,0,0,1,.81.69.76.76,0,0,1,0,.15.82.82,0,0,1-.17.51,1.62,1.62,0,0,1-.18.2l-.48.41-.44.35h1.28v.26h-1.6c-.08,0-.13,0-.14,0a.09.09,0,0,1,0-.08.12.12,0,0,1,0-.1l.62-.52c.39-.32.61-.51.66-.56a.62.62,0,0,0,.19-.43.32.32,0,0,0,0-.08.59.59,0,0,0-.18-.34.65.65,0,0,0-.34-.17l-.11,0a.63.63,0,0,0-.32.1.64.64,0,0,0-.23.26.33.33,0,0,0-.06.13s0,0,0,0h-.11c-.09,0-.13,0-.13,0v0l0-.05s0,0,0,0a.78.78,0,0,1,.27-.4A1,1,0,0,1,65.05,158.23Z"/><path class="cls-9" d="M66.39,158.45v-.26h1.5a.24.24,0,0,1,.15,0,.06.06,0,0,1,0,.06.73.73,0,0,1-.11.28c-.07.14-.26.48-.55,1l-.68,1.2h-.29l.65-1.17.64-1.15H66.39Z"/><path class="cls-9" d="M69.53,158.45v-.26H71a.22.22,0,0,1,.14,0,.07.07,0,0,1,0,.06.83.83,0,0,1-.12.28c-.07.14-.26.48-.55,1l-.67,1.2h-.3l.65-1.17.64-1.15H69.53Z"/><path class="cls-9" d="M72.29,158.21h.12a.7.7,0,0,1,.28.05.65.65,0,0,1,.25.22.59.59,0,0,1,.09.31,1.05,1.05,0,0,1,0,.13.49.49,0,0,1-.14.27,0,0,0,0,0,0,0l.08.06a1,1,0,0,1,.31.37.79.79,0,0,1,.07.32.77.77,0,0,1-.26.58.91.91,0,0,1-.64.25.88.88,0,0,1-.63-.25.75.75,0,0,1-.25-.57v-.06a.88.88,0,0,1,.06-.28.83.83,0,0,1,.31-.36c.06-.05.09-.08.07-.09a.38.38,0,0,1-.1-.17.69.69,0,0,1,0-.24.28.28,0,0,1,0-.08.59.59,0,0,1,.44-.48Zm.3,1.18a.47.47,0,0,0-.16,0,.63.63,0,0,0-.33.09.6.6,0,0,0-.24.26.41.41,0,0,0,0,.23.5.5,0,0,0,0,.23.57.57,0,0,0,.3.29.61.61,0,0,0,.28.06.62.62,0,0,0,.27-.05.73.73,0,0,0,.27-.22.6.6,0,0,0,.1-.31.37.37,0,0,0,0-.15A.61.61,0,0,0,72.59,159.39Zm0-.87a.38.38,0,0,0-.19-.06.32.32,0,0,0-.29.17.42.42,0,0,0,0,.16.33.33,0,0,0,0,.14.32.32,0,0,0,.29.17.32.32,0,0,0,.33-.32A.28.28,0,0,0,72.62,158.52Z"/><path class="cls-9" d="M74.31,158.22a.71.71,0,0,1,.21,0,.94.94,0,0,1,.47.12.74.74,0,0,1,.25.22,1,1,0,0,1,.16.32,3.49,3.49,0,0,1,0,.62,4.08,4.08,0,0,1,0,.67.89.89,0,0,1-.32.47.85.85,0,0,1-.53.18h-.06a.87.87,0,0,1-.5-.18.89.89,0,0,1-.3-.43l0-.18c0-.07,0-.23,0-.5a5.82,5.82,0,0,1,0-.59.9.9,0,0,1,.09-.26.62.62,0,0,1,.23-.26A.9.9,0,0,1,74.31,158.22Zm.49.28a.55.55,0,0,0-.24,0h-.2a.62.62,0,0,0-.44.5,3.21,3.21,0,0,0,0,.52c0,.27,0,.44,0,.52a.63.63,0,0,0,.23.38.6.6,0,0,0,.4.15.57.57,0,0,0,.25-.06.6.6,0,0,0,.27-.22,1.65,1.65,0,0,0,.09-.21,2.51,2.51,0,0,0,0-.37v-.76l0-.1a.92.92,0,0,0-.32-.32Z"/><path class="cls-9" d="M208.76,154.81v-.57h4.55v.57h-2v5.69h-.63v-5.69Z"/><path class="cls-9" d="M216.8,154.26h.53a3.13,3.13,0,0,1,1.8.65,3.23,3.23,0,0,1,1.09,1.62,3,3,0,0,1,.1.86,3.14,3.14,0,0,1-.13.92,3.39,3.39,0,0,1-.87,1.36,3.14,3.14,0,0,1-1.4.76,2.8,2.8,0,0,1-.7.07,2.71,2.71,0,0,1-1-.14,2.93,2.93,0,0,1-2.14-3,3.25,3.25,0,0,1,.09-.9,3.2,3.2,0,0,1,1-1.49A3.3,3.3,0,0,1,216.8,154.26Zm.9.65a2.37,2.37,0,0,0-.52-.06,2.41,2.41,0,0,0-.74.13,2.5,2.5,0,0,0-.88.5,2.47,2.47,0,0,0-.62.79,2.54,2.54,0,0,0,2.22,3.63h.05a2.41,2.41,0,0,0,1.49-.5,2.44,2.44,0,0,0,.92-1.29,2.59,2.59,0,0,0,.1-.76,2.06,2.06,0,0,0-.09-.66,2.73,2.73,0,0,0-.74-1.16A2.58,2.58,0,0,0,217.7,154.91Z"/><path class="cls-9" d="M221.11,154.81v-.57h4.55v.57h-2v5.69H223v-5.69Z"/><path class="cls-9" d="M228.87,154.27a.38.38,0,0,1,.18-.07.39.39,0,0,1,.17.07,11.76,11.76,0,0,1,.58,1.36l1.13,3,.67,1.77a.13.13,0,0,1,0,.06s-.1,0-.31,0H231c-.24-.67-.48-1.32-.74-2h-2.37c-.09.21-.21.54-.37,1s-.28.76-.36,1h-.32c-.22,0-.32,0-.32,0s.38-1.06,1.14-3.07S228.8,154.33,228.87,154.27Zm.68,2.44q-.47-1.25-.48-1.26h0a5.3,5.3,0,0,0-.48,1.15c-.3.82-.45,1.24-.45,1.25a4.67,4.67,0,0,0,.93,0H230Z"/><path class="cls-9" d="M232.42,160.49V154.2H233v5.67h3.75v.62Z"/><path class="cls-9" d="M237.54,157.44v-.83h.78v.83Zm0,3.06v-.81h.78v.81Z"/><path class="cls-9" d="M243.68,154.27h.41a2.15,2.15,0,0,1,1.27.52,2,2,0,0,1,.69,1.17,1.5,1.5,0,0,1,0,.37,2.13,2.13,0,0,1-.41,1.22,3.3,3.3,0,0,1-.44.49c-.17.15-.57.49-1.18,1l-1.05.86h3.1v.61h-3.89c-.19,0-.3,0-.34-.06a.27.27,0,0,1-.09-.2.3.3,0,0,1,.12-.25l1.49-1.25c1-.78,1.49-1.24,1.6-1.37a1.51,1.51,0,0,0,.48-1,1.26,1.26,0,0,0,0-.21,1.46,1.46,0,0,0-.43-.81,1.66,1.66,0,0,0-.82-.43,1.24,1.24,0,0,0-.27,0,1.43,1.43,0,0,0-.79.24,1.53,1.53,0,0,0-.56.62.84.84,0,0,0-.13.33.07.07,0,0,1,0,.07h-.28c-.21,0-.31,0-.31-.06a.26.26,0,0,1,0-.07.83.83,0,0,0,0-.12l0-.13a1.83,1.83,0,0,1,.65-1A2.39,2.39,0,0,1,243.68,154.27Z"/><path class="cls-9" d="M248.49,154.26a1.88,1.88,0,0,1,.49-.06,2.34,2.34,0,0,1,1.14.27,2,2,0,0,1,.62.55,2.08,2.08,0,0,1,.39.77,10.11,10.11,0,0,1,.06,1.5,9.64,9.64,0,0,1-.07,1.62,2.12,2.12,0,0,1-.76,1.13,2.07,2.07,0,0,1-1.3.45h-.15A2.11,2.11,0,0,1,247,159a1.5,1.5,0,0,1-.08-.44c0-.15,0-.56,0-1.22s0-1.24,0-1.41a2,2,0,0,1,.23-.65,1.75,1.75,0,0,1,.55-.62A2.3,2.3,0,0,1,248.49,154.26Zm1.18.69a1.28,1.28,0,0,0-.58-.12,1.92,1.92,0,0,0-.49,0,1.53,1.53,0,0,0-1.08,1.21c0,.2,0,.62,0,1.26s0,1.06,0,1.26a1.57,1.57,0,0,0,.55.92,1.52,1.52,0,0,0,1,.35,1.56,1.56,0,0,0,1.25-.66,1.54,1.54,0,0,0,.22-.51,5.53,5.53,0,0,0,.05-.91v-1.85l-.11-.23a1.59,1.59,0,0,0-.32-.44A1.57,1.57,0,0,0,249.67,155Z"/><path class="cls-9" d="M252,160.49v-.82h.78v.82Z"/><path class="cls-9" d="M255.1,154.26a1.88,1.88,0,0,1,.49-.06,2.34,2.34,0,0,1,1.14.27,2,2,0,0,1,.62.55,2.08,2.08,0,0,1,.39.77,10.11,10.11,0,0,1,.06,1.5,9.64,9.64,0,0,1-.07,1.62A2.14,2.14,0,0,1,257,160a2,2,0,0,1-1.29.45h-.15A2.11,2.11,0,0,1,253.6,159a1.5,1.5,0,0,1-.08-.44c0-.15,0-.56,0-1.22s0-1.24,0-1.41a2,2,0,0,1,.23-.65,1.71,1.71,0,0,1,.54-.62A2.44,2.44,0,0,1,255.1,154.26Zm1.18.69a1.28,1.28,0,0,0-.58-.12,1.92,1.92,0,0,0-.49,0,1.52,1.52,0,0,0-1.08,1.21,19.87,19.87,0,0,0,0,2.52,1.5,1.5,0,0,0,.54.92,1.55,1.55,0,0,0,1,.35,1.56,1.56,0,0,0,1.25-.66,1.78,1.78,0,0,0,.22-.51,5.53,5.53,0,0,0,.05-.91v-1.85l-.11-.23a1.45,1.45,0,0,0-.33-.44A1.41,1.41,0,0,0,256.28,155Z"/><path class="cls-9" d="M260.16,154.26a2,2,0,0,1,.5-.06,2.33,2.33,0,0,1,1.13.27,2,2,0,0,1,.62.55,2.08,2.08,0,0,1,.39.77,9.5,9.5,0,0,1,.07,1.5,9.16,9.16,0,0,1-.08,1.62A2.12,2.12,0,0,1,262,160a2.07,2.07,0,0,1-1.3.45h-.15a2.11,2.11,0,0,1-1.92-1.47,1.91,1.91,0,0,1-.08-.44c0-.15,0-.56,0-1.22s0-1.24,0-1.41a2.32,2.32,0,0,1,.23-.65,1.75,1.75,0,0,1,.55-.62A2.39,2.39,0,0,1,260.16,154.26Zm1.18.69a1.28,1.28,0,0,0-.58-.12,1.92,1.92,0,0,0-.49,0,1.51,1.51,0,0,0-1.07,1.21,15.9,15.9,0,0,0,0,2.52,1.5,1.5,0,0,0,.54.92,1.52,1.52,0,0,0,1,.35,1.38,1.38,0,0,0,.6-.13,1.45,1.45,0,0,0,.65-.53,1.54,1.54,0,0,0,.22-.51,4.56,4.56,0,0,0,.05-.91v-1.85l-.11-.23a1.59,1.59,0,0,0-.32-.44A1.57,1.57,0,0,0,261.34,155Z"/><path class="cls-9" d="M267.3,154.2a1.44,1.44,0,0,1,.35,0,3.56,3.56,0,0,1,1.56.36,3.43,3.43,0,0,1,.49.28c.16.1.24.17.24.2a1.38,1.38,0,0,1-.2.25l-.2.22-.19-.16a2.68,2.68,0,0,0-1.62-.52,2.73,2.73,0,0,0-1.29.31,2.17,2.17,0,0,0-.56.44,2.39,2.39,0,0,0-.44.55l-.14.26h3.24V157h-3.4v.58h3.15v.69h-1.47a7,7,0,0,0-1.48.06.76.76,0,0,0,.19.32,4.29,4.29,0,0,0,.35.43,2.64,2.64,0,0,0,1.49.71,2.25,2.25,0,0,0,.38,0,2.71,2.71,0,0,0,1.62-.55l.19-.14.2.23.2.23-.16.14a3.16,3.16,0,0,1-1.22.59,3,3,0,0,1-.82.1,3.43,3.43,0,0,1-.91-.11,3.07,3.07,0,0,1-2-1.69l-.16-.35h-1v-.69h.86V157h-.61v-.66h.72l.16-.34A3.06,3.06,0,0,1,267.3,154.2Z"/><path class="cls-9" d="M44.52,127.2a.42.42,0,0,1,.18-.08.46.46,0,0,1,.17.08,11.06,11.06,0,0,1,.58,1.35c.34.87.71,1.86,1.13,3l.67,1.77a.11.11,0,0,1,0,.06s-.1,0-.31,0h-.33c-.24-.67-.48-1.32-.74-2l-1.19,0H43.51c-.09.21-.21.53-.37,1s-.27.75-.36,1h-.32c-.22,0-.32,0-.32,0s.38-1.06,1.14-3.07S44.45,127.26,44.52,127.2Zm.68,2.43c-.31-.83-.47-1.24-.48-1.25h0a5.3,5.3,0,0,0-.48,1.15c-.3.82-.45,1.24-.45,1.25a5.43,5.43,0,0,0,.93,0h.93Z"/><path class="cls-9" d="M48.17,127.21c0-.06.21-.09.46-.09h.59l.89,0a2.69,2.69,0,0,1,.45.1,3.12,3.12,0,0,1,2.09,2.15,2.81,2.81,0,0,1,.11.86,3,3,0,0,1-.12.9,3.15,3.15,0,0,1-2.07,2.07,1.76,1.76,0,0,1-.45.1l-.89,0h-.6a1,1,0,0,1-.49-.06,1.1,1.1,0,0,1-.06-.45c0-.27,0-1.13,0-2.59v-3Zm2.09.61a4,4,0,0,0-1-.09h-.65v5.1l.71,0a5.11,5.11,0,0,0,1-.11,2.57,2.57,0,0,0,.52-4.63A2.22,2.22,0,0,0,50.26,127.82Z"/><path class="cls-9" d="M53.5,129.18v-2h.61v2a19.54,19.54,0,0,0,.06,2.22,2,2,0,0,0,.54.88,1.92,1.92,0,0,0,.9.5,1.44,1.44,0,0,0,.45.06,1.86,1.86,0,0,0,1.22-.45,1.9,1.9,0,0,0,.7-1.14,18.78,18.78,0,0,0,.07-2.17v-1.88h.61v2.07q0,1.45,0,1.8a2.21,2.21,0,0,1-.08.54,2.59,2.59,0,0,1-1.72,1.73,2.48,2.48,0,0,1-.78.11,2.24,2.24,0,0,1-.68-.09,2.71,2.71,0,0,1-1-.5,2.38,2.38,0,0,1-.63-.8,2.25,2.25,0,0,1-.25-.81Q53.5,130.88,53.5,129.18Z"/><path class="cls-9" d="M59.39,133.42v-6.3H60v5.68h3.74v.62Z"/><path class="cls-9" d="M64.56,127.73v-.56h4.55v.56h-2v5.7h-.62v-5.7Z"/><path class="cls-9" d="M70,127.23l.09-.11h4.1v.61H70.49v3.08h2v.61h-2v1.4h3.69v.57H70.05L70,133.3a1,1,0,0,1-.07-.45c0-.26,0-1.12,0-2.58v-2.94Z"/><circle class="cls-10" cx="236.27" cy="66.45" r="32.78"/><path class="cls-11" d="M258.51,85.75a29.45,29.45,0,1,1-2.94-41.54"/><path class="cls-11" d="M242.23,40.79a26.35,26.35,0,1,1-31.63,19.7"/><path class="cls-11" d="M224.23,86.23A23.15,23.15,0,1,1,256,78.48"/><path class="cls-11" d="M251.24,71.22a16.62,16.62,0,0,1-.9,2.22,15.71,15.71,0,1,1,1.08-11.09"/><path class="cls-11" d="M217.16,61.62c.05-.17.09-.34.14-.51a19.52,19.52,0,0,1,36.9-1.89"/><path class="cls-11" d="M253.16,75.92a19.51,19.51,0,0,1-30.84,4.48"/><polygon class="cls-3" points="214.24 81.64 222.23 52.12 230.11 81.64 214.24 81.64"/><rect class="cls-3" x="231.9" y="50.96" width="7.65" height="30.67"/><path class="cls-3" d="M243.49,51h4.61a21.73,21.73,0,0,1,5.22.41,6,6,0,0,1,3.35,2.68,9.31,9.31,0,0,1,1.29,5,10.17,10.17,0,0,1-.89,4.4,6.3,6.3,0,0,1-2.54,2.86,9.08,9.08,0,0,1-4.56,1l8.32,14.21h-3.67L246.3,67.39h0V81.6h-2.81Z"/><path class="cls-9" d="M217.38,61.3a4.57,4.57,0,0,1,1-.1,3.21,3.21,0,0,1,.72.07,3.48,3.48,0,0,1,1.42.69,3.34,3.34,0,0,1,1,1.19,1.89,1.89,0,0,1,.23.55q0,.12-.45.12h-.45l-.24-.36a2.67,2.67,0,0,0-2.19-1.31h-.19a2.39,2.39,0,0,0-1.36.36,1.55,1.55,0,0,0-.67,1,2.79,2.79,0,0,0,0,.33,1.24,1.24,0,0,0,.44.88,3.73,3.73,0,0,0,1.67.85,7.94,7.94,0,0,1,2.49,1,1.89,1.89,0,0,1,.82,1.55,1.25,1.25,0,0,1,0,.24,2.18,2.18,0,0,1-.14.68,2.63,2.63,0,0,1-.44.6,3.41,3.41,0,0,1-1.16.77,4.06,4.06,0,0,1-1.46.27,3.82,3.82,0,0,1-.78-.08,3.53,3.53,0,0,1-1.44-.68,3.43,3.43,0,0,1-1-1.21,2.27,2.27,0,0,1-.23-.56c0-.09.15-.13.46-.13s.5,0,.52.1.14.27.2.36a2.81,2.81,0,0,0,1,.94,2.7,2.7,0,0,0,1.3.33,2.35,2.35,0,0,0,.62-.08,2.84,2.84,0,0,0,1.23-.6,1.16,1.16,0,0,0,.45-.9.25.25,0,0,0,0-.08.35.35,0,0,0,0-.07,1,1,0,0,0-.34-.57,3.48,3.48,0,0,0-1.6-.8,11.24,11.24,0,0,1-1.77-.59,3.42,3.42,0,0,1-1-.7,2.64,2.64,0,0,1-.49-.6,2.19,2.19,0,0,1-.21-1A2.35,2.35,0,0,1,216,62,2.9,2.9,0,0,1,217.38,61.3Z"/><path class="cls-9" d="M227,61.24h.82a4.59,4.59,0,0,1,2.72,1,4.84,4.84,0,0,1,1.67,2.47,5.15,5.15,0,0,1,.14,1.3,4.58,4.58,0,0,1-.19,1.41,5.11,5.11,0,0,1-1.32,2.06,4.71,4.71,0,0,1-2.13,1.15,4.1,4.1,0,0,1-1.07.12,4.41,4.41,0,0,1-1.49-.21,4.67,4.67,0,0,1-3.12-3.19,4.34,4.34,0,0,1-.15-1.34,4.61,4.61,0,0,1,.15-1.37,4.81,4.81,0,0,1,1.49-2.26A4.92,4.92,0,0,1,227,61.24Zm1.37,1a3.63,3.63,0,0,0-.78-.1,4,4,0,0,0-2.48,1,3.78,3.78,0,0,0-.2,5.59,3.62,3.62,0,0,0,2.64,1.14h.07a3.77,3.77,0,0,0,2.27-.75,3.85,3.85,0,0,0,1.4-2,3.71,3.71,0,0,0,.15-1.16,3.15,3.15,0,0,0-.13-1,4.16,4.16,0,0,0-1.13-1.78A4,4,0,0,0,228.4,62.23Z"/><path class="cls-9" d="M233.51,64.27V61.2h.93v3a26.17,26.17,0,0,0,.1,3.38,2.93,2.93,0,0,0,.82,1.34,3,3,0,0,0,1.37.77,2.22,2.22,0,0,0,.68.08,2.86,2.86,0,0,0,1.87-.68,3,3,0,0,0,1.06-1.73,31,31,0,0,0,.09-3.3V61.2h.94l0,3.15c0,1.49,0,2.4,0,2.75a3.49,3.49,0,0,1-.12.81,4,4,0,0,1-2.62,2.65,3.72,3.72,0,0,1-1.19.16,3.44,3.44,0,0,1-1-.13,4.18,4.18,0,0,1-1.44-.77,3.5,3.5,0,0,1-1-1.22,3.66,3.66,0,0,1-.38-1.22C233.53,67,233.51,66,233.51,64.27Z"/><path class="cls-9" d="M242.61,61.33a.44.44,0,0,1,.32-.11.32.32,0,0,1,.23.07q.15.14,2.68,3.87l2.59,3.78,0-3.87V61.2h1v4.58c0,3,0,4.6-.08,4.73a.4.4,0,0,1-.4.25.34.34,0,0,1-.19,0A45.73,45.73,0,0,1,246,66.84L243.37,63c0,.85,0,2.13,0,3.85s0,3,0,3.86h-.87V66.09c0-2.29,0-3.64,0-4.05A1.38,1.38,0,0,1,242.61,61.33Z"/><path class="cls-9" d="M250.64,61.27c.09-.09.32-.13.7-.13h.9l1.36.06a3.39,3.39,0,0,1,.68.16,4.72,4.72,0,0,1,3.18,3.26,4.2,4.2,0,0,1,.17,1.31,4.6,4.6,0,0,1-.18,1.37,4.77,4.77,0,0,1-3.15,3.15,3.05,3.05,0,0,1-.69.16c-.2,0-.65,0-1.36,0h-.91a1.71,1.71,0,0,1-.73-.08c-.06,0-.09-.28-.1-.69s0-1.73,0-4V61.4Zm3.18.93a6.25,6.25,0,0,0-1.47-.13h-1v7.75l1.07,0a8.3,8.3,0,0,0,1.52-.17,3.9,3.9,0,0,0,2.76-3.7,3.8,3.8,0,0,0-.47-1.85,4.2,4.2,0,0,0-.67-.83,3.87,3.87,0,0,0-.83-.67A3.67,3.67,0,0,0,253.82,62.2Z"/><path class="cls-9" d="M42.57,90.21h.73l.93,2.39c.62,1.59.94,2.41,1,2.45a18.49,18.49,0,0,0,1-2.39l1-2.45H48c.2,0,.3,0,.3,0s-.2.54-.62,1.61-.85,2.16-1.28,3.27-.69,1.72-.73,1.82a.51.51,0,0,1-.49.27.61.61,0,0,1-.25-.06.45.45,0,0,1-.19-.15s-.34-.85-1-2.41-.93-2.37-.94-2.41-.17-.4-.4-1l-.36-.92Z"/><path class="cls-9" d="M49.5,90.29l.15-.11h4.59v1.11h-3.9v2.79h2v1.11h-2v.91h3.9v1.11H51.91a17.33,17.33,0,0,1-2.43-.07.37.37,0,0,1-.18-.25c0-.2-.07-1.26-.07-3.18s0-3.13.06-3.21A.69.69,0,0,1,49.5,90.29Z"/><path class="cls-9" d="M55.18,90.49a.5.5,0,0,1,.43-.26c.15,0,.31.11.51.34s.73,1,1.61,2.2l1.74,2.41v-5h1.11v3.31c0,1.74,0,2.76,0,3.07s-.08.49-.18.57h0a.44.44,0,0,1-.3.07.51.51,0,0,1-.31-.07s-.65-.85-1.82-2.46l-1.71-2.4,0,2.46v2.47H55.07V90.65Z"/><path class="cls-9" d="M64.46,91.29V90.18h2.17v7.07H65.52v-6Z"/><path class="cls-9" d="M69.5,90.25a1.61,1.61,0,0,1,.44,0,2.2,2.2,0,0,1,.73.11,1.62,1.62,0,0,1,.88.83,1.81,1.81,0,0,1,.15.76,1.68,1.68,0,0,1-.14.72l-.15.29.34.34a2.39,2.39,0,0,1,.71,1.31,2.21,2.21,0,0,1,0,.35A2.16,2.16,0,0,1,72,96.24a2.52,2.52,0,0,1-1.21.89,3.34,3.34,0,0,1-1.48.05,2.64,2.64,0,0,1-1.06-.59,2.34,2.34,0,0,1-.66-1,2.28,2.28,0,0,1-.12-.73,2.25,2.25,0,0,1,.73-1.63l.34-.34-.14-.3a1.69,1.69,0,0,1-.14-.73,1.79,1.79,0,0,1,.11-.7A1.64,1.64,0,0,1,69.5,90.25Zm.76,3.45-.28,0-.31.06a1.3,1.3,0,0,0-.74.44,1.16,1.16,0,0,0-.29.75,1.19,1.19,0,0,0,.11.47,1.21,1.21,0,0,0,.51.56,1.43,1.43,0,0,0,.73.2,1.36,1.36,0,0,0,1-.41,1.14,1.14,0,0,0,.36-.82,1.12,1.12,0,0,0-.41-.86A1.37,1.37,0,0,0,70.26,93.7Zm.29-2a.64.64,0,0,0-.56-.39.56.56,0,0,0-.42.2.62.62,0,0,0-.19.42v0a0,0,0,0,1,0,0,.59.59,0,0,0,.23.35.64.64,0,0,0,.4.15h.09a.91.91,0,0,0,.35-.21.48.48,0,0,0,.09-.58Z"/><path class="cls-9" d="M73.38,97.2V96h1.24v1.2Z"/><path class="cls-9" d="M77.34,90.26a2.58,2.58,0,0,1,.6-.07,2.39,2.39,0,0,1,1.48.49A2.49,2.49,0,0,1,80.34,92a10.63,10.63,0,0,1,.08,1.76c0,.69,0,1.12,0,1.29a1.85,1.85,0,0,1-.09.49,2.5,2.5,0,0,1-.92,1.24,2.52,2.52,0,0,1-3,0,2.29,2.29,0,0,1-.88-1.31,10.43,10.43,0,0,1-.08-1.68c0-.76,0-1.25,0-1.48a2.16,2.16,0,0,1,.25-.74,2.1,2.1,0,0,1,.65-.76A2.65,2.65,0,0,1,77.34,90.26Zm1.18,1.17A1.2,1.2,0,0,0,78,91.3a1.33,1.33,0,0,0-.71.21,1.4,1.4,0,0,0-.52.56l-.13.26V93.7c0,.65,0,1,0,1.19a1,1,0,0,0,.09.37,1.38,1.38,0,0,0,.52.62,1.41,1.41,0,0,0,.74.21,1.26,1.26,0,0,0,.94-.4,1.08,1.08,0,0,0,.34-.57,9.88,9.88,0,0,0,.06-1.42,11.75,11.75,0,0,0-.05-1.38,1.23,1.23,0,0,0-.3-.56A1.61,1.61,0,0,0,78.52,91.43Z"/><path class="cls-9" d="M83.05,90.29a3.1,3.1,0,0,1,.56-.1h.26a2.32,2.32,0,0,1,2,1.27,2.47,2.47,0,0,1,.26.73l0,.19h-.58c-.39,0-.59,0-.59-.06a.78.78,0,0,0-.11-.3,1.3,1.3,0,0,0-1.19-.73,1.32,1.32,0,0,0-.78.25,1.2,1.2,0,0,0-.37.45,1.07,1.07,0,0,0-.16.53v.19l.25-.12a2.59,2.59,0,0,1,1.06-.23,2.53,2.53,0,0,1,1.52.49,2.42,2.42,0,0,1,.91,1.29,2.87,2.87,0,0,1,.07.65,2.73,2.73,0,0,1-.07.65,2.48,2.48,0,0,1-2.4,1.8A2.64,2.64,0,0,1,82.57,97a2.77,2.77,0,0,1-.58-.45,2.11,2.11,0,0,1-.69-1.25c0-.19,0-.71,0-1.54s0-1.38,0-1.6a2,2,0,0,1,.27-.73,2.37,2.37,0,0,1,.63-.69A2.25,2.25,0,0,1,83.05,90.29Zm1.83,3.79a1.4,1.4,0,0,0-.47-.43,1.34,1.34,0,0,0-.65-.17,1,1,0,0,0-.35,0,1.29,1.29,0,0,0-.74.48,1.34,1.34,0,0,0-.26.79,1.35,1.35,0,0,0,2.7,0A1.32,1.32,0,0,0,84.88,94.08Z"/><path class="cls-9" d="M90.12,94.72v-1h5v1Z"/><path class="cls-9" d="M99.21,90.27a1.27,1.27,0,0,1,.59-.09h.71a7.49,7.49,0,0,1,1.58.14,3.48,3.48,0,0,1,2.47,2.29,3.41,3.41,0,0,1,.13,1,3.15,3.15,0,0,1-.11,1,3.55,3.55,0,0,1-2.44,2.39,1.62,1.62,0,0,1-.47.09l-1.15,0-1.26,0-.15-.14a.64.64,0,0,1-.16-.29c0-.1,0-1.14,0-3.13,0-1.61,0-2.55,0-2.83a.65.65,0,0,1,.23-.54A0,0,0,0,1,99.21,90.27Zm2.57,1.12a5.43,5.43,0,0,0-1-.09l-.75,0v4.89l.7,0A4.37,4.37,0,0,0,102,96a2.38,2.38,0,0,0,.88-.53,2.31,2.31,0,0,0,.76-1.75,2.25,2.25,0,0,0-.49-1.42A2.61,2.61,0,0,0,101.78,91.39Z"/><path class="cls-9" d="M105.51,97.25V90.18h1l0,.87c0,.48,0,1.65,0,3.52v2.68Z"/><path class="cls-9" d="M107.46,90.49a.51.51,0,0,1,.52-.3.59.59,0,0,1,.23,0c.06,0,.62.67,1.67,1.94l1.59,1.92s.57-.64,1.63-1.91,1.62-1.93,1.67-2a.64.64,0,0,1,.24,0,.52.52,0,0,1,.29.07h0c.12.06.19.21.21.47s0,1,0,2.41v4.11h-1.11c0-.56,0-1.39,0-2.52s0-2,0-2.52l-1.29,1.59a13.79,13.79,0,0,1-1.45,1.68.52.52,0,0,1-.23,0,.56.56,0,0,1-.36-.14q-.14-.14-1.35-1.65l-1.22-1.54c0,.56,0,1.4,0,2.52s0,2,0,2.53h-1.11V93.91C107.41,91.7,107.43,90.56,107.46,90.49Z"/><path class="cls-9" d="M121.4,90.3a2.35,2.35,0,0,1,.51-.06,2.44,2.44,0,0,1,1.79.73,2.38,2.38,0,0,1,.71,1.73,1.94,1.94,0,0,1-.15.78,2.94,2.94,0,0,1-.53.84,13,13,0,0,1-1.23,1.11l-.9.73,1.39,0h1.39v1.09h-4.61l-.17-.15a.53.53,0,0,1-.15-.36,1,1,0,0,1,0-.24,12,12,0,0,1,1.68-1.47c.79-.66,1.29-1.09,1.5-1.28a3.07,3.07,0,0,0,.48-.58,1,1,0,0,0,.12-.54,1.15,1.15,0,0,0-.12-.55,1.21,1.21,0,0,0-.5-.55,1.32,1.32,0,0,0-.71-.2,1.12,1.12,0,0,0-.51.11,1.59,1.59,0,0,0-.44.32,1.5,1.5,0,0,0-.31.42l-.08.23h-1.07s-.07,0-.07-.1a1.61,1.61,0,0,1,.12-.44,3,3,0,0,1,.25-.51A2.46,2.46,0,0,1,121.4,90.3Z"/><path class="cls-9" d="M127.15,90.26a2.6,2.6,0,0,1,.61-.07,2.41,2.41,0,0,1,1.48.49,2.47,2.47,0,0,1,.91,1.28,9.12,9.12,0,0,1,.09,1.76c0,.69,0,1.12,0,1.29a1.85,1.85,0,0,1-.09.49,2.56,2.56,0,0,1-.92,1.24,2.43,2.43,0,0,1-1.45.46,2.47,2.47,0,0,1-1.53-.51,2.32,2.32,0,0,1-.87-1.31,8.93,8.93,0,0,1-.09-1.68,14.18,14.18,0,0,1,0-1.48,2.36,2.36,0,0,1,.24-.74,2.2,2.2,0,0,1,.65-.76A2.65,2.65,0,0,1,127.15,90.26Zm1.18,1.17a1.13,1.13,0,0,0-.56-.13,1.37,1.37,0,0,0-.72.21,1.31,1.31,0,0,0-.51.56l-.13.26V93.7c0,.65,0,1,0,1.19a1.27,1.27,0,0,0,.08.37,1.4,1.4,0,0,0,.53.62,1.38,1.38,0,0,0,.74.21,1.28,1.28,0,0,0,.94-.4,1.12,1.12,0,0,0,.33-.57,9.88,9.88,0,0,0,.06-1.42,9.78,9.78,0,0,0,0-1.38,1.21,1.21,0,0,0-.29-.56A1.5,1.5,0,0,0,128.33,91.43Z"/><path class="cls-9" d="M131.08,97.2V96h1.24v1.2Z"/><path class="cls-9" d="M135,90.26a2.6,2.6,0,0,1,.61-.07,2.44,2.44,0,0,1,1.48.49A2.47,2.47,0,0,1,138,92a9.12,9.12,0,0,1,.09,1.76c0,.69,0,1.12,0,1.29a1.85,1.85,0,0,1-.09.49,2.56,2.56,0,0,1-.92,1.24,2.53,2.53,0,0,1-3,0,2.27,2.27,0,0,1-.87-1.31,8.93,8.93,0,0,1-.09-1.68,14.18,14.18,0,0,1,.05-1.48,2.13,2.13,0,0,1,.24-.74,2.2,2.2,0,0,1,.65-.76A2.65,2.65,0,0,1,135,90.26Zm1.18,1.17a1.16,1.16,0,0,0-.56-.13,1.37,1.37,0,0,0-.72.21,1.31,1.31,0,0,0-.51.56l-.13.26V93.7c0,.65,0,1,0,1.19a1,1,0,0,0,.08.37,1.4,1.4,0,0,0,.53.62,1.38,1.38,0,0,0,.74.21,1.28,1.28,0,0,0,.94-.4,1.12,1.12,0,0,0,.33-.57A9.88,9.88,0,0,0,137,93.7a9.78,9.78,0,0,0-.05-1.38,1.21,1.21,0,0,0-.29-.56A1.5,1.5,0,0,0,136.22,91.43Z"/><path class="cls-9" d="M140.75,90.29a3.3,3.3,0,0,1,.57-.1h.25a2.39,2.39,0,0,1,1.57.63,2.59,2.59,0,0,1,.47.64,2.47,2.47,0,0,1,.26.73l0,.19h-.58c-.4,0-.59,0-.59-.06a1,1,0,0,0-.11-.3,1.37,1.37,0,0,0-.5-.54,1.31,1.31,0,0,0-.69-.19,1.35,1.35,0,0,0-.79.25,1.3,1.3,0,0,0-.37.45,1.18,1.18,0,0,0-.16.53v.06l0,.13.25-.12a2.59,2.59,0,0,1,1.06-.23,2.5,2.5,0,0,1,1.51.49,2.24,2.24,0,0,1,1,1.94,2.3,2.3,0,0,1-.07.65,2.42,2.42,0,0,1-.92,1.32,2.45,2.45,0,0,1-1.48.48,2.68,2.68,0,0,1-1.19-.29,3.26,3.26,0,0,1-1-1,2,2,0,0,1-.25-.71,15.34,15.34,0,0,1,0-1.54c0-.84,0-1.38,0-1.6a2,2,0,0,1,.27-.73,2.37,2.37,0,0,1,.63-.69A2.32,2.32,0,0,1,140.75,90.29Zm1.83,3.79a1.4,1.4,0,0,0-.47-.43,1.34,1.34,0,0,0-.65-.17,1,1,0,0,0-.35,0,1.29,1.29,0,0,0-.74.48,1.34,1.34,0,0,0-.26.79,1.29,1.29,0,0,0,.76,1.21A1.46,1.46,0,0,0,142,96a1.29,1.29,0,0,0,.78-1.19A1.32,1.32,0,0,0,142.58,94.08Z"/><path class="cls-9" d="M149.81,90.3a2.44,2.44,0,0,1,.52-.06,2.41,2.41,0,0,1,1.78.73,2.38,2.38,0,0,1,.71,1.73,2.13,2.13,0,0,1-.14.78,3.45,3.45,0,0,1-.53.84,14.5,14.5,0,0,1-1.23,1.11l-.91.73,1.39,0h1.4v1.09h-4.62l-.17-.15a.53.53,0,0,1-.15-.36,1,1,0,0,1,0-.24,12,12,0,0,1,1.68-1.47c.79-.66,1.29-1.09,1.5-1.28a3.15,3.15,0,0,0,.49-.58,1,1,0,0,0,.12-.54,1.15,1.15,0,0,0-.12-.55,1.29,1.29,0,0,0-.51-.55,1.32,1.32,0,0,0-.71-.2,1.12,1.12,0,0,0-.51.11,1.59,1.59,0,0,0-.44.32,1.27,1.27,0,0,0-.3.42l-.09.23h-1.06c-.06,0-.08,0-.08-.1a1.61,1.61,0,0,1,.12-.44,3,3,0,0,1,.25-.51A2.46,2.46,0,0,1,149.81,90.3Z"/><path class="cls-9" d="M155.57,90.26a2.58,2.58,0,0,1,.6-.07,2.41,2.41,0,0,1,1.48.49,2.49,2.49,0,0,1,.92,1.28,10.63,10.63,0,0,1,.08,1.76c0,.69,0,1.12,0,1.29a1.85,1.85,0,0,1-.09.49,2.5,2.5,0,0,1-.92,1.24,2.52,2.52,0,0,1-3,0,2.29,2.29,0,0,1-.88-1.31,10.43,10.43,0,0,1-.08-1.68c0-.76,0-1.25,0-1.48a2.16,2.16,0,0,1,.25-.74,2,2,0,0,1,.65-.76A2.57,2.57,0,0,1,155.57,90.26Zm1.18,1.17a1.2,1.2,0,0,0-.57-.13,1.39,1.39,0,0,0-1.23.77l-.13.26V93.7c0,.65,0,1,0,1.19a1,1,0,0,0,.09.37,1.38,1.38,0,0,0,.52.62,1.41,1.41,0,0,0,.74.21,1.26,1.26,0,0,0,.94-.4,1.15,1.15,0,0,0,.34-.57,9.88,9.88,0,0,0,.06-1.42,9.19,9.19,0,0,0-.06-1.38,1.12,1.12,0,0,0-.29-.56A1.61,1.61,0,0,0,156.75,91.43Z"/><path class="cls-9" d="M161.48,90.3a2.44,2.44,0,0,1,.52-.06,2.41,2.41,0,0,1,1.78.73,2.38,2.38,0,0,1,.71,1.73,2.13,2.13,0,0,1-.14.78,3.17,3.17,0,0,1-.53.84,14.5,14.5,0,0,1-1.23,1.11l-.91.73,1.39,0h1.4v1.09h-4.62l-.16-.15a.5.5,0,0,1-.16-.36.67.67,0,0,1,0-.24,10.88,10.88,0,0,1,1.67-1.47c.79-.66,1.29-1.09,1.5-1.28a3.15,3.15,0,0,0,.49-.58,1,1,0,0,0,.12-.54,1.15,1.15,0,0,0-.12-.55,1.24,1.24,0,0,0-.51-.55,1.3,1.3,0,0,0-.71-.2,1.12,1.12,0,0,0-.51.11,1.59,1.59,0,0,0-.44.32,1.27,1.27,0,0,0-.3.42l-.09.23h-1.06c-.06,0-.08,0-.08-.1a1.41,1.41,0,0,1,.13-.44,2.38,2.38,0,0,1,1.82-1.59Z"/><path class="cls-9" d="M165.41,91.29V90.18h2.16v7.07h-1.1v-6Z"/><path class="cls-9" d="M315.12,49v-.7h2.27v7h-.7V49Z"/><path class="cls-9" d="M320.27,48.32a1.06,1.06,0,0,1,.33,0,1.63,1.63,0,0,1,.76.15A1.49,1.49,0,0,1,322,49a1.58,1.58,0,0,1,.25.84,1.93,1.93,0,0,1-.05.35,1.44,1.44,0,0,1-.37.74s0,.06,0,.08a.87.87,0,0,0,.2.15,2.49,2.49,0,0,1,.84,1,1.91,1.91,0,0,1,.2.86,2.06,2.06,0,0,1-.72,1.6,2.5,2.5,0,0,1-3.43,0,2.07,2.07,0,0,1-.7-1.56v-.16a2.29,2.29,0,0,1,.18-.76,2.41,2.41,0,0,1,.84-1c.17-.12.24-.2.19-.24a.94.94,0,0,1-.28-.45,1.72,1.72,0,0,1-.13-.66s0-.12,0-.21a1.77,1.77,0,0,1,.42-.83A1.5,1.5,0,0,1,320.27,48.32Zm.81,3.2a1.52,1.52,0,0,0-.42-.06,1.77,1.77,0,0,0-.91.26,1.73,1.73,0,0,0-.65.69,1.35,1.35,0,0,0-.14.64,1.28,1.28,0,0,0,.13.63,1.68,1.68,0,0,0,.81.79,1.72,1.72,0,0,0,.76.15,1.57,1.57,0,0,0,1.46-.74,1.43,1.43,0,0,0,.26-.83,1,1,0,0,0-.06-.4A1.66,1.66,0,0,0,321.08,51.52Zm.09-2.37a1,1,0,0,0-.52-.17.94.94,0,0,0-.89.9.75.75,0,0,0,.12.4.85.85,0,0,0,.78.46.87.87,0,0,0,.5-.15.89.89,0,0,0,.41-.73A.82.82,0,0,0,321.17,49.15Z"/><path class="cls-9" d="M324,55.34v-.93h.88v.93Z"/><path class="cls-9" d="M327.52,48.34a1.88,1.88,0,0,1,.55-.07,2.55,2.55,0,0,1,1.28.31,2.24,2.24,0,0,1,.7.62,2.57,2.57,0,0,1,.43.86,10.51,10.51,0,0,1,.07,1.68,11.53,11.53,0,0,1-.08,1.82,2.45,2.45,0,0,1-2.32,1.78H328a2.34,2.34,0,0,1-1.35-.5,2.38,2.38,0,0,1-.81-1.15,2,2,0,0,1-.09-.5c0-.17,0-.63,0-1.37s0-1.39,0-1.58a2.33,2.33,0,0,1,.25-.73,2.07,2.07,0,0,1,.61-.7A2.75,2.75,0,0,1,327.52,48.34Zm1.32.77a1.74,1.74,0,0,0-.65-.13,2.26,2.26,0,0,0-.55.05,1.69,1.69,0,0,0-1.21,1.36,12.94,12.94,0,0,0-.05,1.41,13.31,13.31,0,0,0,.05,1.42,1.69,1.69,0,0,0,.61,1,1.67,1.67,0,0,0,1.09.4,1.71,1.71,0,0,0,.67-.14,1.75,1.75,0,0,0,.74-.61,1.79,1.79,0,0,0,.25-.56,7.08,7.08,0,0,0,0-1V50.23l-.12-.26a1.66,1.66,0,0,0-.37-.5A1.8,1.8,0,0,0,328.84,49.11Z"/><path class="cls-9" d="M333.48,48.3h.21a3.25,3.25,0,0,1,.92.11,2.3,2.3,0,0,1,.94.6,2.21,2.21,0,0,1,.55,1,1.51,1.51,0,0,1,.08.31.09.09,0,0,1-.07.09l-.27,0h-.34l-.06-.2a1.69,1.69,0,0,0-.6-.89,1.59,1.59,0,0,0-1-.33,1.81,1.81,0,0,0-1,.28,1.71,1.71,0,0,0-.78,1.6v.41l.29-.19a2.5,2.5,0,0,1,1.3-.44h.17a2.4,2.4,0,0,1,1.19.31,2.25,2.25,0,0,1,1.17,2,2.45,2.45,0,0,1-.26,1.11,2.79,2.79,0,0,1-.92,1,2.54,2.54,0,0,1-1.22.31,2.46,2.46,0,0,1-1.48-.49,2.25,2.25,0,0,1-.86-1.32,13,13,0,0,1-.08-1.85,9.85,9.85,0,0,1,.07-1.59,2.29,2.29,0,0,1,.59-1.09A2.93,2.93,0,0,1,333.48,48.3Zm1,3.12a1.7,1.7,0,0,0-.61-.12,1.83,1.83,0,0,0-.78.21,1.61,1.61,0,0,0-.68.61,1.52,1.52,0,0,0-.19,1.26,1.75,1.75,0,0,0,.64.94,1.71,1.71,0,0,0,2.36-.33,1.56,1.56,0,0,0,.35-1,1.74,1.74,0,0,0-.29-1A1.55,1.55,0,0,0,334.45,51.42Z"/><path class="cls-9" d="M337.11,52.59v-.73h5.11v.73Z"/><path class="cls-9" d="M345.25,48.35h.45a2.46,2.46,0,0,1,1.43.58,2.35,2.35,0,0,1,.78,1.33,2.54,2.54,0,0,1,0,.41,2.41,2.41,0,0,1-.45,1.37,4.92,4.92,0,0,1-.5.54c-.19.18-.63.55-1.32,1.12l-1.18,1,1.74,0H348v.69h-2.33c-1.15,0-1.83,0-2,0a.66.66,0,0,1-.38-.07.32.32,0,0,1-.09-.23.35.35,0,0,1,.13-.28l1.67-1.39c1.07-.89,1.67-1.4,1.8-1.54a1.73,1.73,0,0,0,.53-1.16,1.52,1.52,0,0,0,0-.24,1.65,1.65,0,0,0-.48-.9,1.82,1.82,0,0,0-.93-.49,1.39,1.39,0,0,0-.3,0,1.64,1.64,0,0,0-.88.26,1.79,1.79,0,0,0-.64.7,1.09,1.09,0,0,0-.14.37.07.07,0,0,1-.06.08h-.31c-.24,0-.35,0-.35-.06a.15.15,0,0,1,0-.08s0-.08,0-.14a.89.89,0,0,0,0-.14,2.09,2.09,0,0,1,.73-1.1A2.72,2.72,0,0,1,345.25,48.35Z"/><path class="cls-9" d="M350.64,48.34a2,2,0,0,1,.56-.07,2.52,2.52,0,0,1,1.27.31,2.13,2.13,0,0,1,.7.62,2.4,2.4,0,0,1,.43.86,10,10,0,0,1,.08,1.68,9.88,9.88,0,0,1-.09,1.82,2.29,2.29,0,0,1-.85,1.27,2.32,2.32,0,0,1-1.46.51h-.17a2.34,2.34,0,0,1-1.34-.5,2.47,2.47,0,0,1-.82-1.15,3.71,3.71,0,0,1-.09-.5c0-.17,0-.63,0-1.37s0-1.39,0-1.58a2.4,2.4,0,0,1,.26-.73,2,2,0,0,1,.61-.7A2.8,2.8,0,0,1,350.64,48.34Zm1.33.77a1.79,1.79,0,0,0-.65-.13,2.35,2.35,0,0,0-.56.05,1.69,1.69,0,0,0-1.2,1.36,10.71,10.71,0,0,0-.05,1.41,11,11,0,0,0,.05,1.42,1.74,1.74,0,0,0,1.69,1.42,1.76,1.76,0,0,0,.68-.14,1.72,1.72,0,0,0,.73-.61,1.59,1.59,0,0,0,.25-.56,5.52,5.52,0,0,0,.06-1v-.6l0-1.47-.12-.26a1.8,1.8,0,0,0-.36-.5A2.14,2.14,0,0,0,352,49.11Z"/><path class="cls-9" d="M354.53,55.34v-.93h.88v.93Z"/><path class="cls-9" d="M358.06,48.34a1.93,1.93,0,0,1,.55-.07,2.53,2.53,0,0,1,1.28.31,2.13,2.13,0,0,1,.7.62,2.4,2.4,0,0,1,.43.86,10.51,10.51,0,0,1,.07,1.68,10.33,10.33,0,0,1-.08,1.82,2.35,2.35,0,0,1-.85,1.27,2.32,2.32,0,0,1-1.46.51h-.17a2.34,2.34,0,0,1-1.34-.5,2.4,2.4,0,0,1-.82-1.15,3.71,3.71,0,0,1-.09-.5c0-.17,0-.63,0-1.37s0-1.39,0-1.58a2.63,2.63,0,0,1,.25-.73,2.1,2.1,0,0,1,.62-.7A2.7,2.7,0,0,1,358.06,48.34Zm1.32.77a1.7,1.7,0,0,0-.65-.13,2.32,2.32,0,0,0-.55.05,1.68,1.68,0,0,0-1.2,1.36,10.71,10.71,0,0,0-.05,1.41,11,11,0,0,0,.05,1.42,1.74,1.74,0,0,0,1.69,1.42,1.76,1.76,0,0,0,.68-.14,1.72,1.72,0,0,0,.73-.61,1.79,1.79,0,0,0,.25-.56,5.84,5.84,0,0,0,.05-1V50.23l-.12-.26a1.66,1.66,0,0,0-.37-.5A1.8,1.8,0,0,0,359.38,49.11Z"/><path class="cls-9" d="M364,48.3h.22a3.18,3.18,0,0,1,.91.11,2.17,2.17,0,0,1,.94.6,2.23,2.23,0,0,1,.56,1,1.27,1.27,0,0,1,.07.31.08.08,0,0,1-.07.09,1.31,1.31,0,0,1-.27,0H366l-.05-.2a1.77,1.77,0,0,0-.61-.89,1.56,1.56,0,0,0-1-.33,1.87,1.87,0,0,0-1,.28,1.71,1.71,0,0,0-.78,1.6v.41l.29-.19a2.53,2.53,0,0,1,1.3-.44h.17a2.37,2.37,0,0,1,1.19.31,2.25,2.25,0,0,1,1.17,2,2.44,2.44,0,0,1-.25,1.11,2.4,2.4,0,0,1-.41.54,2.1,2.1,0,0,1-.52.43,2.54,2.54,0,0,1-1.22.31,2.48,2.48,0,0,1-1.48-.49,2.23,2.23,0,0,1-.85-1.32,11.14,11.14,0,0,1-.09-1.85,11.29,11.29,0,0,1,.07-1.59,2.37,2.37,0,0,1,.59-1.09A3,3,0,0,1,364,48.3Zm1,3.12a1.75,1.75,0,0,0-.62-.12,1.83,1.83,0,0,0-.78.21,1.7,1.7,0,0,0-.93,1.47,1.55,1.55,0,0,0,.06.4,1.81,1.81,0,0,0,.64.94,1.73,1.73,0,0,0,1,.33,1.67,1.67,0,0,0,1.33-.66,1.56,1.56,0,0,0,.35-1,1.66,1.66,0,0,0-.29-1A1.57,1.57,0,0,0,365,51.42Z"/></g></g></svg>