<svg xmlns="http://www.w3.org/2000/svg" viewBox="0 0 411.48 196.59"><defs><style>.cls-1{fill:#eb5e25;}.cls-2{fill:#f39200;}.cls-3{fill:#fed169;}.cls-4{fill:#249197;}.cls-5{fill:#6cc4cd;}.cls-6{fill:#c1e6fb;}.cls-10,.cls-11,.cls-7,.cls-8{fill:none;}.cls-7,.cls-8{stroke:#dadada;}.cls-10,.cls-7,.cls-8{stroke-miterlimit:10;}.cls-8{stroke-dasharray:4.91 4.91;}.cls-9{fill:#1d1d1b;}.cls-10,.cls-11{stroke:#1d1d1b;}.cls-10{stroke-width:2px;}.cls-11{stroke-linecap:round;stroke-linejoin:round;stroke-width:0.75px;}</style></defs><g id="Calque_2" data-name="Calque 2"><g id="Calque_1-2" data-name="Calque 1"><rect class="cls-1" y="0.15" width="137.16" height="19.8"/><rect class="cls-2" x="137.16" y="0.15" width="137.16" height="19.8"/><rect class="cls-3" x="274.32" y="0.15" width="137.16" height="19.8"/><rect class="cls-1" x="274.32" y="176.64" width="137.16" height="19.8" transform="translate(685.81 373.09) rotate(180)"/><rect class="cls-2" x="137.16" y="176.64" width="137.16" height="19.8" transform="translate(411.48 373.09) rotate(180)"/><rect class="cls-3" y="176.64" width="137.16" height="19.8" transform="translate(137.16 373.09) rotate(180)"/><rect class="cls-4" x="375.47" y="36.17" width="52.23" height="19.8" transform="translate(447.65 -355.52) rotate(90)"/><rect class="cls-5" x="375.47" y="88.4" width="52.23" height="19.8" transform="translate(499.88 -303.28) rotate(90)"/><rect class="cls-6" x="375.47" y="140.63" width="52.23" height="19.8" transform="translate(552.11 -251.05) rotate(90)"/><rect class="cls-4" x="-16.21" y="140.63" width="52.23" height="19.8" transform="translate(-140.63 160.43) rotate(-90)"/><rect class="cls-5" x="-16.21" y="88.4" width="52.23" height="19.8" transform="translate(-88.4 108.2) rotate(-90)"/><rect class="cls-6" x="-16.21" y="36.16" width="52.23" height="19.8" transform="translate(-36.16 55.97) rotate(-90)"/><line class="cls-7" x1="292.29" x2="292.29" y2="2.5"/><line class="cls-8" x1="292.29" y1="7.41" x2="292.29" y2="191.64"/><line class="cls-7" x1="292.29" y1="194.09" x2="292.29" y2="196.59"/><path class="cls-9" d="M315.44,35.46a1.16,1.16,0,0,1,.65-.11l.83,0a7,7,0,0,1,1.66.13,2.73,2.73,0,0,1,1.38,1,2.48,2.48,0,0,1,.5,1.55,2.32,2.32,0,0,1-1.37,2.21,2.59,2.59,0,0,1-.76.24,9.42,9.42,0,0,1-1.25.06H316v2.36h-.73V35.56Zm2.77.71a5.47,5.47,0,0,0-1.22-.08h-1v3.68h1a6.24,6.24,0,0,0,1.39-.1,1.83,1.83,0,0,0,.75-.44,1.58,1.58,0,0,0,.56-1.18,1.85,1.85,0,0,0-.06-.39,1.82,1.82,0,0,0-.52-.95A2.06,2.06,0,0,0,318.21,36.17Z"/><path class="cls-9" d="M324.28,35.39a.29.29,0,0,1,.42,0,15.4,15.4,0,0,1,.69,1.63c.41,1,.86,2.23,1.36,3.56s.78,2,.81,2.13a.13.13,0,0,1,0,.06s-.12,0-.37,0h-.4c-.28-.79-.58-1.58-.89-2.35h-2.85c-.1.26-.24.65-.43,1.17s-.34.91-.44,1.16h-.39c-.25,0-.38,0-.38,0s.46-1.28,1.37-3.69S324.2,35.47,324.28,35.39Zm.82,2.93c-.38-1-.57-1.5-.58-1.51h0a6.47,6.47,0,0,0-.58,1.38l-.54,1.5a5.54,5.54,0,0,0,1.12,0h1.12Z"/><path class="cls-9" d="M330.56,35.43a3.48,3.48,0,0,1,.76-.08,2.16,2.16,0,0,1,.57.06A2.7,2.7,0,0,1,333,36a2.83,2.83,0,0,1,.8.94,1.57,1.57,0,0,1,.18.44q0,.09-.36.09h-.35l-.2-.29a2.31,2.31,0,0,0-.95-.85,2.49,2.49,0,0,0-.77-.18h-.16a1.84,1.84,0,0,0-1.06.29,1.16,1.16,0,0,0-.53.79,1.85,1.85,0,0,0,0,.26,1,1,0,0,0,.35.7,3,3,0,0,0,1.31.67,6,6,0,0,1,2,.81,1.5,1.5,0,0,1,.65,1.22.78.78,0,0,1,0,.19,1.46,1.46,0,0,1-.11.54,1.94,1.94,0,0,1-.35.47,2.34,2.34,0,0,1-.91.6,3.05,3.05,0,0,1-1.15.22,3.69,3.69,0,0,1-.62-.06,2.88,2.88,0,0,1-1.13-.54,2.71,2.71,0,0,1-.8-1,1.7,1.7,0,0,1-.18-.43c0-.07.12-.11.36-.11s.4,0,.41.08a1.62,1.62,0,0,0,.16.28,2.08,2.08,0,0,0,.79.74,2,2,0,0,0,1,.27,1.71,1.71,0,0,0,.49-.07,2.2,2.2,0,0,0,1-.47.92.92,0,0,0,.36-.71.2.2,0,0,0,0-.07v-.05a.9.9,0,0,0-.27-.45,3,3,0,0,0-1.27-.63,9.3,9.3,0,0,1-1.39-.46,2.66,2.66,0,0,1-.81-.56,2.14,2.14,0,0,1-.39-.47,1.73,1.73,0,0,1-.16-.76,1.88,1.88,0,0,1,.6-1.43A2.36,2.36,0,0,1,330.56,35.43Z"/><path class="cls-9" d="M336.93,35.43a3.55,3.55,0,0,1,.76-.08,2.16,2.16,0,0,1,.57.06,2.64,2.64,0,0,1,1.12.54,2.83,2.83,0,0,1,.8.94,1.57,1.57,0,0,1,.18.44q0,.09-.36.09h-.35l-.19-.29a2.34,2.34,0,0,0-1-.85,2.49,2.49,0,0,0-.77-.18h-.15a1.87,1.87,0,0,0-1.07.29,1.19,1.19,0,0,0-.53.79,1.49,1.49,0,0,0,0,.26,1,1,0,0,0,.34.7,3.07,3.07,0,0,0,1.32.67,6.05,6.05,0,0,1,2,.81,1.49,1.49,0,0,1,.64,1.22.92.92,0,0,1,0,.19,1.67,1.67,0,0,1-.12.54,1.7,1.7,0,0,1-.35.47,2.34,2.34,0,0,1-.91.6,3,3,0,0,1-1.15.22,3.58,3.58,0,0,1-.61-.06,2.85,2.85,0,0,1-1.14-.54,2.71,2.71,0,0,1-.8-1,1.7,1.7,0,0,1-.18-.43c0-.07.12-.11.36-.11s.4,0,.42.08a3.08,3.08,0,0,0,.15.28,2.15,2.15,0,0,0,.79.74,2.11,2.11,0,0,0,1,.27,1.81,1.81,0,0,0,.49-.07,2.26,2.26,0,0,0,1-.47.94.94,0,0,0,.35-.71v-.07a.11.11,0,0,1,0-.05.9.9,0,0,0-.27-.45,2.86,2.86,0,0,0-1.26-.63,9.11,9.11,0,0,1-1.4-.46,2.92,2.92,0,0,1-.81-.56,2.05,2.05,0,0,1-.38-.47,1.73,1.73,0,0,1-.17-.76,1.85,1.85,0,0,1,.61-1.43A2.28,2.28,0,0,1,336.93,35.43Z"/><path class="cls-9" d="M341.3,40.16v-.78h5.46v.78Z"/><path class="cls-9" d="M350.1,35.32h.06l.13,0h.29a2.6,2.6,0,0,1,1.53.61,2.52,2.52,0,0,1,.83,1.42,2.06,2.06,0,0,1,0,.44,2.54,2.54,0,0,1-.49,1.47,4.65,4.65,0,0,1-.53.58c-.2.19-.68.59-1.41,1.19l-1.27,1,1.86,0H353v.73h-4.67c-.23,0-.37,0-.41-.08a.31.31,0,0,1-.1-.24.39.39,0,0,1,.14-.3l1.79-1.49q1.71-1.41,1.92-1.65a1.79,1.79,0,0,0,.57-1.24,1.75,1.75,0,0,0,0-.25,1.86,1.86,0,0,0-.51-1,2,2,0,0,0-1-.51,1.12,1.12,0,0,0-.32,0,1.75,1.75,0,0,0-.95.28,1.86,1.86,0,0,0-.67.75,1.13,1.13,0,0,0-.16.4s0,.07-.06.07a1.78,1.78,0,0,1-.33,0c-.25,0-.38,0-.38-.07s0,0,0-.08,0-.09.05-.15a1.31,1.31,0,0,0,0-.15,2.28,2.28,0,0,1,.78-1.18A2.9,2.9,0,0,1,350.1,35.32Z"/><path d="M359.3,119.73v1.87H315.47v-1.87Z"/><path d="M315.47,107.65V105.9h43.81v1.75Z"/><path d="M315.47,114.31v-1.62H359.3v1.62Z"/><path d="M359.31,131.61v1.62H315.47v-1.62Z"/><path d="M315.47,100.38V99h43.81v1.38Z"/><path d="M359.3,136v1.26H315.47V136Z"/><path d="M359.3,127.12v1.26H315.47v-1.26Z"/><path d="M359.3,154.88V156H315.49v-1.14Z"/><path d="M359.3,141.06v1H315.47v-1Z"/><path d="M359.3,139.49v1H315.47v-1Z"/><path d="M315.47,160.85v-1H359.3v1Z"/><path d="M359.31,122v1H315.47v-1Z"/><path d="M315.31,83.72h44l.07.94a2.79,2.79,0,0,1-.65.12q-21.33,0-42.67,0C315.1,84.8,315.65,84.12,315.31,83.72Z"/><path d="M315.47,75.05v-.9h43.84v.9Z"/><path d="M315.47,88.14v-.9H359.3v.9Z"/><path d="M315.47,71.33v-.81h43.8c.25.74.21.81-.5.81h-43.3Z"/><path d="M315.47,78.44v-.77H359.3v.77Z"/><path d="M359.29,90.21H315.47v-.7h43.25C359.45,89.51,359.46,89.52,359.29,90.21Z"/><path d="M359.3,142.76v.65H315.46v-.65Z"/><path d="M359.29,126.57H315.47v-.66h43.82Z"/><path d="M315.46,85.63v-.57l.38,0c6.07,0,12.14-.1,18.21-.12,8,0,16.08,0,24.12,0a4.9,4.9,0,0,1,1,.13c.1,0,.27.21.25.26a.6.6,0,0,1-.29.32c-.09,0-.23,0-.35,0H315.46Z"/><path d="M315.47,152.61v-.53h43.81l.06.53Z"/><path d="M359.31,103.25v.53H315.49l-.06-.53Z"/><path d="M359.31,111.25v.53H315.49l-.06-.53Z"/><path d="M315.47,116.74v-.53h43.82l0,.53Z"/><path d="M359.3,92.1v.53H315.49l-.06-.53Z"/><path d="M315.47,117.47v-.54h43.82l0,.54Z"/><path d="M315.46,135.65v-.54h43.82l.07.54Z"/><path d="M315.47,146.92v-.54h43.82l0,.54Z"/><path d="M315.47,82.93v-.54h43.81l.06.54Z"/><path d="M359.31,80.46V81H315.49l-.06-.54Z"/><path d="M315.47,148.37v-.53h43.82l0,.53Z"/><path d="M315.46,151v-.54h43.82l.07.54Z"/><path d="M315.48,91.34h43.78c.13.31.1.5-.29.48H316.05C315.79,91.81,315.34,92,315.48,91.34Z"/><path d="M315.38,76.88h44l0,.19a4,4,0,0,1-.89.19c-3.35,0-6.71,0-10.06,0-4.49,0-9,0-13.46,0l-18.34-.12H315.4Z"/><path d="M315.48,96.91h42.7c.26,0,.52-.06.78,0a1.34,1.34,0,0,1,.42.2l-.08.21h-36c-1.33,0-2.67,0-4,0a22.73,22.73,0,0,1-3.87-.1Z"/><path d="M315.48,94.87h44.13c-.25.18-.34.29-.46.32a2,2,0,0,1-.49,0H316.23a7.11,7.11,0,0,1-.79-.1Z"/><path d="M359.42,73H315.3a2.32,2.32,0,0,1,.44-.32,1.47,1.47,0,0,1,.42,0h42.55a6.26,6.26,0,0,1,.74.1Z"/><path class="cls-9" d="M362.84,158.27a1.92,1.92,0,0,1-.08-.55,2.54,2.54,0,0,1,.31-1.25,2.4,2.4,0,0,1,.6-.69,2.55,2.55,0,0,1,.86-.42,10,10,0,0,1,1.64-.07,9.82,9.82,0,0,1,1.78.08,2.36,2.36,0,0,1,1.75,2.27v.08a.28.28,0,0,0,0,.09,2.3,2.3,0,0,1-.48,1.31,2.33,2.33,0,0,1-1.14.8,1.86,1.86,0,0,1-.48.09c-.18,0-.63,0-1.35,0a15.46,15.46,0,0,1-1.55,0,2.21,2.21,0,0,1-.72-.25,2,2,0,0,1-.69-.6A2.65,2.65,0,0,1,362.84,158.27Zm.75-1.3a1.63,1.63,0,0,0-.13.63,2.26,2.26,0,0,0,.05.55,1.67,1.67,0,0,0,1.33,1.18,12.89,12.89,0,0,0,1.39,0,12.62,12.62,0,0,0,1.39,0,1.68,1.68,0,0,0,1-.6,1.64,1.64,0,0,0,.39-1.07,1.66,1.66,0,0,0-.14-.66,1.62,1.62,0,0,0-1.15-1,5.34,5.34,0,0,0-1-.06h-.59l-1.44,0-.26.11a1.72,1.72,0,0,0-.48.36A2,2,0,0,0,363.59,157Z"/><path class="cls-9" d="M362.81,152.44a1.69,1.69,0,0,1,0-.33,1.62,1.62,0,0,1,.14-.75,1.54,1.54,0,0,1,.58-.66,1.55,1.55,0,0,1,.83-.25,1.85,1.85,0,0,1,.34.05,1.41,1.41,0,0,1,.73.37.05.05,0,0,0,.08,0l.15-.2a2.38,2.38,0,0,1,1-.83,1.86,1.86,0,0,1,.85-.19,2,2,0,0,1,1.57.7,2.48,2.48,0,0,1,0,3.37,2,2,0,0,1-1.54.68h-.15a2,2,0,0,1-.74-.17,2.32,2.32,0,0,1-1-.82c-.12-.17-.2-.24-.24-.19a1,1,0,0,1-.44.28,1.91,1.91,0,0,1-.65.12l-.21,0a1.64,1.64,0,0,1-.82-.41A1.54,1.54,0,0,1,362.81,152.44Zm3.15-.81a1.58,1.58,0,0,0-.06.42,1.69,1.69,0,0,0,.25.89,1.74,1.74,0,0,0,.68.64,1.34,1.34,0,0,0,.63.13,1.36,1.36,0,0,0,.61-.11,1.71,1.71,0,0,0,.78-.81,1.6,1.6,0,0,0,.14-.74,1.87,1.87,0,0,0-.11-.72,1.77,1.77,0,0,0-.61-.71,1.39,1.39,0,0,0-.81-.26,1.14,1.14,0,0,0-.39.06A1.61,1.61,0,0,0,366,151.63Zm-2.33-.08a1,1,0,0,0-.17.51.85.85,0,0,0,.47.76.94.94,0,0,0,.42.11.82.82,0,0,0,.39-.11.84.84,0,0,0,.45-.77.88.88,0,0,0-.86-.89A.79.79,0,0,0,363.63,151.55Z"/><path class="cls-9" d="M362.8,143.8a1.1,1.1,0,0,1,0-.22,3.07,3.07,0,0,1,.1-.89,2.28,2.28,0,0,1,.59-.93,2.18,2.18,0,0,1,1-.54,1.27,1.27,0,0,1,.31-.07.08.08,0,0,1,.09.06,1.47,1.47,0,0,1,0,.27v.33l-.2.06a1.64,1.64,0,0,0-.87.59,1.51,1.51,0,0,0-.33,1,1.82,1.82,0,0,0,.27.94,1.69,1.69,0,0,0,1.58.77h.4l-.19-.28a2.54,2.54,0,0,1-.43-1.28v-.16a2.27,2.27,0,0,1,.31-1.17,2.2,2.2,0,0,1,2-1.15,2.39,2.39,0,0,1,1.09.25,2.59,2.59,0,0,1,.95.91,2.48,2.48,0,0,1-.18,2.65,2.2,2.2,0,0,1-1.29.84,12.7,12.7,0,0,1-1.82.08,10.75,10.75,0,0,1-1.56-.07,2.26,2.26,0,0,1-1.06-.58A2.77,2.77,0,0,1,362.8,143.8Zm3.06-1a1.64,1.64,0,0,0-.12.6,1.87,1.87,0,0,0,.2.77,1.6,1.6,0,0,0,.6.66,1.48,1.48,0,0,0,1.24.19,1.78,1.78,0,0,0,.92-.62,1.67,1.67,0,0,0,.33-1,1.63,1.63,0,0,0-.65-1.31,1.5,1.5,0,0,0-1-.34,1.66,1.66,0,0,0-.93.28A1.53,1.53,0,0,0,365.86,142.84Z"/><path class="cls-9" d="M362.88,140.1l-.12-.11v-4h.69v3.53H365l0-1a5.13,5.13,0,0,1,.13-1.32,2.38,2.38,0,0,1,1.57-1.64,1.94,1.94,0,0,1,.61-.1,2.33,2.33,0,0,1,2,1.26,2.6,2.6,0,0,1,.3,1.25,2.15,2.15,0,0,1-1.06,2,1.17,1.17,0,0,1-.33.15c-.07,0-.11-.12-.11-.35v-.35l.17-.1A1.53,1.53,0,0,0,369,138c0-.06,0-.15,0-.26a1.93,1.93,0,0,0-.58-1.12,1.51,1.51,0,0,0-1.05-.45,1.42,1.42,0,0,0-.38.06,1.51,1.51,0,0,0-.79.51,1.67,1.67,0,0,0-.42.75,7.85,7.85,0,0,0-.09,1.48V140l-.11.09a.47.47,0,0,1-.28.08H363Z"/><path class="cls-9" d="M362.82,130.92a.27.27,0,0,1-.06-.16.35.35,0,0,1,.12-.26l.11-.11h4.12v-.54h.69v.54h1.9v.68h-1.9v1.64a15.36,15.36,0,0,1,0,1.61.25.25,0,0,1-.27.23h0a1,1,0,0,1-.53-.28l-.69-.56-1.39-1.11-1.35-1.1Zm2.81.15c-1,0-1.51,0-1.51,0l1.51,1.22,1.48,1.19v-2.43Z"/><path class="cls-9" d="M362.81,124a1.69,1.69,0,0,1,0-.33,1.62,1.62,0,0,1,.14-.75,1.54,1.54,0,0,1,.58-.66,1.55,1.55,0,0,1,.83-.25,1.85,1.85,0,0,1,.34,0,1.41,1.41,0,0,1,.73.37.05.05,0,0,0,.08,0l.15-.2a2.38,2.38,0,0,1,1-.83,1.86,1.86,0,0,1,.85-.19,2,2,0,0,1,1.57.7,2.48,2.48,0,0,1,0,3.37,2,2,0,0,1-1.54.68h-.15a2,2,0,0,1-.74-.17,2.32,2.32,0,0,1-1-.82c-.12-.17-.2-.24-.24-.19a1,1,0,0,1-.44.28,1.91,1.91,0,0,1-.65.12l-.21,0a1.64,1.64,0,0,1-.82-.41A1.54,1.54,0,0,1,362.81,124Zm3.15-.81a1.58,1.58,0,0,0-.06.42,1.69,1.69,0,0,0,.25.89,1.74,1.74,0,0,0,.68.64,1.34,1.34,0,0,0,.63.13,1.36,1.36,0,0,0,.61-.11,1.71,1.71,0,0,0,.78-.81,1.6,1.6,0,0,0,.14-.74,1.87,1.87,0,0,0-.11-.72,1.77,1.77,0,0,0-.61-.71,1.39,1.39,0,0,0-.81-.26,1.14,1.14,0,0,0-.39.06A1.61,1.61,0,0,0,366,123.2Zm-2.33-.08a1,1,0,0,0-.17.51.85.85,0,0,0,.47.76.83.83,0,0,0,.42.11.72.72,0,0,0,.39-.11.84.84,0,0,0,.45-.77.93.93,0,0,0-.14-.49.9.9,0,0,0-.72-.4A.79.79,0,0,0,363.63,123.12Z"/><path class="cls-9" d="M362.94,118.65a2.38,2.38,0,0,1-.08-.68,2.27,2.27,0,0,1,.07-.64,2.42,2.42,0,0,1,.62-1.06,2.35,2.35,0,0,1,1.05-.6,12.05,12.05,0,0,1,1.7-.07,12.24,12.24,0,0,1,1.71.07,2.25,2.25,0,0,1,1,.58,2.37,2.37,0,0,1,.61,1,2.43,2.43,0,0,1,.09.72,2.13,2.13,0,0,1-.1.74,2.22,2.22,0,0,1-1.53,1.47l-.3.07c-.06,0-.09,0-.1-.06a1.52,1.52,0,0,1,0-.28v-.33l.24-.07a1.58,1.58,0,0,0,.84-.59,1.61,1.61,0,0,0,.32-1,1.7,1.7,0,0,0-1.86-1.68h-.39l.19.28a2.54,2.54,0,0,1,.43,1.27V118a2.27,2.27,0,0,1-.31,1.17,2.15,2.15,0,0,1-.84.85,2.27,2.27,0,0,1-1.15.3,2.14,2.14,0,0,1-1.59-.66A2.39,2.39,0,0,1,362.94,118.65Zm.65-1.14a1.49,1.49,0,0,0-.07.47,1.62,1.62,0,0,0,.39,1.06,1.7,1.7,0,0,0,1,.58l.23,0a1.75,1.75,0,0,0,1.66-1.66,1.61,1.61,0,0,0,0-.25,1.72,1.72,0,0,0-.58-1,1.52,1.52,0,0,0-1.05-.4,1.64,1.64,0,0,0-.82.23A1.59,1.59,0,0,0,363.59,117.51Z"/><path class="cls-9" d="M362.84,113a1.8,1.8,0,0,1-.08-.54,2.54,2.54,0,0,1,.31-1.25,2.28,2.28,0,0,1,.6-.69,2.57,2.57,0,0,1,.86-.43,11.36,11.36,0,0,1,1.64-.07,9.39,9.39,0,0,1,1.78.09,2.36,2.36,0,0,1,1.75,2.27v.08a.25.25,0,0,0,0,.08,2.3,2.3,0,0,1-.48,1.32,2.4,2.4,0,0,1-1.14.8,3.41,3.41,0,0,1-.48.09h-1.35c-.84,0-1.36,0-1.55,0a2.48,2.48,0,0,1-.72-.25,2.1,2.1,0,0,1-.69-.6A2.69,2.69,0,0,1,362.84,113Zm.75-1.3a1.73,1.73,0,0,0-.13.64,2.22,2.22,0,0,0,.05.54,1.67,1.67,0,0,0,1.33,1.19,13.88,13.88,0,0,0,1.39,0,13.61,13.61,0,0,0,1.39,0,1.68,1.68,0,0,0,1-.6,1.68,1.68,0,0,0-.34-2.45,1.71,1.71,0,0,0-.56-.24,5.34,5.34,0,0,0-1-.06h-2l-.26.12a1.72,1.72,0,0,0-.48.36A1.92,1.92,0,0,0,363.59,111.7Z"/><path class="cls-9" d="M362.84,104.47a1.92,1.92,0,0,1-.08-.55,2.54,2.54,0,0,1,.31-1.25,2.25,2.25,0,0,1,.6-.68,2.4,2.4,0,0,1,.86-.43,10,10,0,0,1,1.64-.07,11,11,0,0,1,1.78.08,2.36,2.36,0,0,1,1.26.84,2.27,2.27,0,0,1,.49,1.43v.08a.31.31,0,0,0,0,.09,2.36,2.36,0,0,1-.48,1.32,2.32,2.32,0,0,1-1.14.79,1.86,1.86,0,0,1-.48.09c-.18,0-.63,0-1.35,0a15.46,15.46,0,0,1-1.55,0A2.16,2.16,0,0,1,364,106a2,2,0,0,1-.69-.61A2.55,2.55,0,0,1,362.84,104.47Zm.75-1.3a1.65,1.65,0,0,0-.13.64,2.22,2.22,0,0,0,.05.54,1.66,1.66,0,0,0,1.33,1.18,12.89,12.89,0,0,0,1.39,0,12.62,12.62,0,0,0,1.39,0,1.68,1.68,0,0,0,1-.6,1.62,1.62,0,0,0,.39-1.06,1.75,1.75,0,0,0-.14-.67,1.72,1.72,0,0,0-.59-.72,2.29,2.29,0,0,0-.56-.24,5.64,5.64,0,0,0-1,0h-2l-.26.12a1.72,1.72,0,0,0-.48.36A1.76,1.76,0,0,0,363.59,103.17Z"/><path class="cls-9" d="M362.85,98.52v-.06a.45.45,0,0,1,0-.11v-.13a1,1,0,0,0,0-.15,2.45,2.45,0,0,1,.56-1.4,2.27,2.27,0,0,1,1.31-.76,2.35,2.35,0,0,1,.4,0,2.32,2.32,0,0,1,1.34.45,4.06,4.06,0,0,1,.54.49c.17.19.54.62,1.1,1.3l.94,1.16c0-.38,0-1,0-1.71s0-1.33,0-1.71h.67v2.28c0,1.13,0,1.8,0,2a.71.71,0,0,1-.07.37.33.33,0,0,1-.23.09.32.32,0,0,1-.27-.13l-1.37-1.64c-.87-1-1.37-1.64-1.51-1.76a1.65,1.65,0,0,0-1.14-.52l-.24,0A1.64,1.64,0,0,0,364,97a1.87,1.87,0,0,0-.48.91,1.53,1.53,0,0,0,0,.3,1.61,1.61,0,0,0,.26.87,1.69,1.69,0,0,0,.68.62,1.09,1.09,0,0,0,.37.14.07.07,0,0,1,.07.06,2,2,0,0,1,0,.31c0,.23,0,.34-.06.34l-.07,0-.14,0-.14,0a2.16,2.16,0,0,1-1.08-.71A2.67,2.67,0,0,1,362.85,98.52Z"/><path class="cls-9" d="M363.45,94.94h-.69V92.79c0-1,0-1.64,0-1.86a.73.73,0,0,1,.07-.39.19.19,0,0,1,.16-.09,2.35,2.35,0,0,1,.76.3c.39.2,1.28.7,2.69,1.48l3.22,1.8v.39a1.65,1.65,0,0,1,0,.39s-1.07-.57-3.12-1.73l-3.08-1.71c0,.4,0,1,0,1.79S363.46,94.55,363.45,94.94Z"/><path class="cls-9" d="M363.45,86.57h-.69V84.42c0-1,0-1.64,0-1.86a.73.73,0,0,1,.07-.39.19.19,0,0,1,.16-.09,2.35,2.35,0,0,1,.76.3c.39.2,1.28.7,2.69,1.48l3.22,1.8v.39a1.65,1.65,0,0,1,0,.39s-1.07-.57-3.12-1.72L363.47,83c0,.4,0,1,0,1.79S363.46,86.18,363.45,86.57Z"/><path class="cls-9" d="M362.81,79.19a1.55,1.55,0,0,1,0-.33,1.6,1.6,0,0,1,.14-.74,1.43,1.43,0,0,1,.58-.66,1.47,1.47,0,0,1,.83-.25,1.26,1.26,0,0,1,.34.05,1.41,1.41,0,0,1,.73.36,0,0,0,0,0,.08,0l.15-.2a2.36,2.36,0,0,1,1-.82,1.86,1.86,0,0,1,.85-.19,2,2,0,0,1,1.57.69,2.48,2.48,0,0,1,0,3.37,2,2,0,0,1-1.54.69h-.15a2.17,2.17,0,0,1-.74-.18,2.23,2.23,0,0,1-1-.81c-.12-.18-.2-.24-.24-.19a1,1,0,0,1-.44.27,1.71,1.71,0,0,1-.65.13l-.21,0a1.62,1.62,0,0,1-.82-.4A1.57,1.57,0,0,1,362.81,79.19Zm3.15-.8a1.51,1.51,0,0,0-.06.41,1.7,1.7,0,0,0,.25.9,1.74,1.74,0,0,0,.68.64,1.34,1.34,0,0,0,.63.13,1.35,1.35,0,0,0,.61-.12,1.64,1.64,0,0,0,.78-.8,1.68,1.68,0,0,0,.14-.75,1.94,1.94,0,0,0-.11-.72,1.84,1.84,0,0,0-.61-.71,1.47,1.47,0,0,0-.81-.26,1.14,1.14,0,0,0-.39.06A1.62,1.62,0,0,0,366,78.39Zm-2.33-.08a.94.94,0,0,0-.17.51.93.93,0,0,0,.89.87.74.74,0,0,0,.39-.12.83.83,0,0,0,.45-.77.87.87,0,0,0-.86-.88A.79.79,0,0,0,363.63,78.31Z"/><path class="cls-9" d="M362.84,73.78a1.85,1.85,0,0,1-.08-.54,2.58,2.58,0,0,1,.31-1.26,2.25,2.25,0,0,1,.6-.68,2.4,2.4,0,0,1,.86-.43,11.36,11.36,0,0,1,1.64-.07,11,11,0,0,1,1.78.08,2.36,2.36,0,0,1,1.26.84,2.3,2.3,0,0,1,.49,1.43v.09a.25.25,0,0,0,0,.08,2.36,2.36,0,0,1-.48,1.32,2.13,2.13,0,0,1-1.62.88c-.18,0-.63,0-1.35,0s-1.36,0-1.55,0a2.48,2.48,0,0,1-.72-.25,2,2,0,0,1-.69-.61A2.55,2.55,0,0,1,362.84,73.78Zm.75-1.3a1.69,1.69,0,0,0-.13.64,2.22,2.22,0,0,0,.05.54,1.66,1.66,0,0,0,1.33,1.18,10.63,10.63,0,0,0,1.39,0,10.43,10.43,0,0,0,1.39,0,1.62,1.62,0,0,0,1-.59,1.65,1.65,0,0,0,.25-1.73,1.6,1.6,0,0,0-.59-.72,2,2,0,0,0-.56-.25,6.84,6.84,0,0,0-1,0h-2l-.26.12A1.72,1.72,0,0,0,364,72,1.76,1.76,0,0,0,363.59,72.48Z"/><path class="cls-2" d="M43.57,65.8a4.22,4.22,0,0,1,1.56-.18q1.11,0,2,0a21.29,21.29,0,0,1,3.91.27,6.56,6.56,0,0,1,4.66,4.39,7.1,7.1,0,0,1,0,3.66,6.07,6.07,0,0,1-4.39,3.94,15.75,15.75,0,0,1-3.28.3l-2.49,0v4.93H42.76V73.28A53.18,53.18,0,0,1,43,66.37a.91.91,0,0,1,.51-.51Zm6.25,2.7a16,16,0,0,0-2.5-.15h-1.8v7.12h2a13.17,13.17,0,0,0,3.14-.27,3.8,3.8,0,0,0,1.73-1,2.8,2.8,0,0,0,.81-2.07.86.86,0,0,0,0-.15,1,1,0,0,1,0-.15,3.46,3.46,0,0,0-1-2.18A4.22,4.22,0,0,0,49.82,68.5Z"/><path class="cls-2" d="M64.75,66a1.43,1.43,0,0,1,1-.48,1.53,1.53,0,0,1,.66.19,1.18,1.18,0,0,1,.51.41q.12.18,3.35,8.34t3.24,8.46c0,.1-.48.15-1.42.15H70.64q-1.14-2.8-2-4.93H62.92q-.63,1.62-1.89,4.93H59.52q-1.41,0-1.41-.12a.27.27,0,0,1,0-.12q.18-.59,3.35-8.64T64.75,66Zm2.83,9.34q-1.72-4.5-1.75-4.5L64.06,75.2s0,.07,0,.08l.28,0a4,4,0,0,0,.54,0h.87C67,75.35,67.58,75.34,67.58,75.32Z"/><path class="cls-2" d="M81.19,65.68a6.51,6.51,0,0,1,.81,0,10.54,10.54,0,0,1,2.07.15A6.55,6.55,0,0,1,86.55,67a6.34,6.34,0,0,1,1.79,2,.87.87,0,0,0,.07.17,1.09,1.09,0,0,1,.08.15l.06.15a.67.67,0,0,0,.06.12.36.36,0,0,1,0,.09.25.25,0,0,1,0,.07l0,0a7.66,7.66,0,0,1-1.56.06,3.59,3.59,0,0,1-1.81-.24,3.93,3.93,0,0,0-3-1.23,2.78,2.78,0,0,0-2.74,1.35,2.37,2.37,0,0,0-.24.91c0,.72.53,1.35,1.6,1.89a21.53,21.53,0,0,0,3.15,1.08,7.64,7.64,0,0,1,3.4,1.86,3.48,3.48,0,0,1,1,1.51,4.57,4.57,0,0,1,.18,1.26,3.92,3.92,0,0,1-.48,2,5.27,5.27,0,0,1-2.29,2.1,7,7,0,0,1-3.3.79h-.45a7.44,7.44,0,0,1-2.74-.7,6.35,6.35,0,0,1-1.39-1A7.48,7.48,0,0,1,76.8,80a10.26,10.26,0,0,1-.59-1.17,3.53,3.53,0,0,1-.34-1q0-.12,1.44-.12h1.41l.24.48A4.34,4.34,0,0,0,80.86,80a3.51,3.51,0,0,0,1.59.36,4.32,4.32,0,0,0,2.4-.66,1.82,1.82,0,0,0,1-1.47,1.08,1.08,0,0,0-.21-.63,2.66,2.66,0,0,0-.91-.68,10.48,10.48,0,0,0-1.43-.62L82.45,76l-1-.3q-4.87-1.47-4.87-4.95a5.2,5.2,0,0,1,.18-1.3A4.24,4.24,0,0,1,78,67.21,6.41,6.41,0,0,1,81.19,65.68Z"/><path class="cls-2" d="M96.21,65.68a6.51,6.51,0,0,1,.81,0,10.72,10.72,0,0,1,2.08.15,6.51,6.51,0,0,1,2.47,1.2,6.22,6.22,0,0,1,1.79,2,.89.89,0,0,0,.08.17,1,1,0,0,1,.07.15l.06.15.06.12a.41.41,0,0,1,.05.09.2.2,0,0,1,0,.07l0,0a7.66,7.66,0,0,1-1.56.06,3.57,3.57,0,0,1-1.8-.24,4,4,0,0,0-3-1.23,2.77,2.77,0,0,0-2.73,1.35,2.37,2.37,0,0,0-.24.91q0,1.08,1.59,1.89a21.37,21.37,0,0,0,3.16,1.08,7.6,7.6,0,0,1,3.39,1.86,3.48,3.48,0,0,1,1,1.51,4.57,4.57,0,0,1,.18,1.26,3.92,3.92,0,0,1-.48,2,5.3,5.3,0,0,1-2.28,2.1,7.09,7.09,0,0,1-3.31.79h-.45a7.34,7.34,0,0,1-2.73-.7,6.37,6.37,0,0,1-1.4-1A7.48,7.48,0,0,1,91.82,80a10.54,10.54,0,0,1-.58-1.17,3.7,3.7,0,0,1-.35-1q0-.12,1.44-.12h1.42l.24.48A4.36,4.36,0,0,0,95.88,80a3.51,3.51,0,0,0,1.59.36,4.35,4.35,0,0,0,2.41-.66,1.82,1.82,0,0,0,1-1.47,1.08,1.08,0,0,0-.21-.63,2.72,2.72,0,0,0-.92-.68,10.48,10.48,0,0,0-1.43-.62L97.47,76l-1-.3c-3.24-1-4.87-2.63-4.87-4.95a5.2,5.2,0,0,1,.18-1.3A4.19,4.19,0,0,1,93,67.21,6.41,6.41,0,0,1,96.21,65.68Z"/><path class="cls-2" d="M118.3,65.8A6.15,6.15,0,0,1,124,67.48a5.82,5.82,0,0,1,1.78,4.3,4.92,4.92,0,0,1-.36,2,7.83,7.83,0,0,1-1.32,2.1,32.83,32.83,0,0,1-3.07,2.77l-2.25,1.83,3.45,0,3.49,0v2.74H114.24l-.42-.4a1.22,1.22,0,0,1-.39-.9,2.08,2.08,0,0,1,.09-.6,32.27,32.27,0,0,1,4.17-3.66c2-1.65,3.23-2.71,3.75-3.19A7.34,7.34,0,0,0,122.65,73a2.55,2.55,0,0,0,.3-1.35,2.93,2.93,0,0,0-.3-1.38,3.09,3.09,0,0,0-1.26-1.37,3.44,3.44,0,0,0-1.77-.5,3,3,0,0,0-1.26.27,4.06,4.06,0,0,0-1.12.81,3.35,3.35,0,0,0-.75,1.06l-.21.57h-1.41c-.7,0-1.12,0-1.25,0a.21.21,0,0,1-.19-.24,3.89,3.89,0,0,1,.31-1.12,6.7,6.7,0,0,1,.62-1.26A6.12,6.12,0,0,1,118.3,65.8Z"/><path d="M57.13,157h-.69V140.55h.69Z"/><path d="M61.66,140.55h.65V157h-.65Z"/><path d="M59.16,140.55h.61V157h-.61Z"/><path d="M52.69,157h-.61V140.55h.61Z"/><path d="M64.38,140.55h.52V157h-.52Z"/><path d="M51.05,157h-.47V140.55h.47Z"/><path d="M54.37,157h-.48V140.55h.48Z"/><path d="M44,157h-.43V140.55H44Z"/><path d="M49.15,157h-.38V140.54h.38Z"/><path d="M49.74,157h-.38V140.55h.38Z"/><path d="M41.73,140.54h.38V157h-.38Z"/><path d="M56.27,157h-.38V140.55h.38Z"/><path d="M70.62,140.49V157l-.35,0a1.58,1.58,0,0,1,0-.25v-16C70.22,140.41,70.47,140.61,70.62,140.49Z"/><path d="M73.87,140.55h.33V157h-.33Z"/><path d="M69,140.55h.33V157H69Z"/><path d="M75.26,140.54h.31V157c-.28.09-.31.08-.31-.19V140.54Z"/><path d="M72.6,140.54h.29V157H72.6Z"/><path d="M68.19,157V140.55h.26v16.19C68.45,157,68.45,157,68.19,157Z"/><path d="M48.51,157h-.24V140.54h.24Z"/><path d="M54.57,157V140.54h.25V157Z"/><path d="M69.9,140.54h.22c0,.06,0,.1,0,.14,0,2.28,0,4.55,0,6.83q0,4.52,0,9a1.57,1.57,0,0,1,0,.37s-.07.1-.09.09a.2.2,0,0,1-.12-.1.32.32,0,0,1,0-.14V140.54Z"/><path d="M44.82,140.54H45V157l-.2,0Z"/><path d="M63.31,157h-.2V140.55l.2,0Z"/><path d="M60.31,157h-.2V140.55l.2,0Z"/><path d="M58.25,140.54h.2V157l-.2,0Z"/><path d="M67.48,157h-.2V140.55l.2,0Z"/><path d="M58,140.55h.2V157l-.2,0Z"/><path d="M51.17,140.54h.2V157l-.2,0Z"/><path d="M47,140.54h.2V157l-.2,0Z"/><path d="M70.92,140.54h.2V157l-.2,0Z"/><path d="M71.84,157h-.2V140.55l.2,0Z"/><path d="M46.41,140.54h.2V157l-.2,0Z"/><path d="M45.41,140.54h.2V157l-.2,0Z"/><path d="M67.77,140.55V157c-.12.05-.19,0-.18-.11V140.76C67.59,140.67,67.53,140.5,67.77,140.55Z"/><path d="M73.18,140.51V157l-.07,0a1.94,1.94,0,0,1-.07-.33c0-1.26,0-2.52,0-3.77,0-1.68,0-3.36,0-5,0-2.29,0-4.58,0-6.87v-.48Z"/><path d="M65.68,140.55v16c0,.1,0,.2,0,.29a.77.77,0,0,1-.07.16l-.08,0V143.49c0-.5,0-1,0-1.5a8.79,8.79,0,0,1,0-1.45Z"/><path d="M66.45,140.55v16.53a1.38,1.38,0,0,1-.13-.18,1.08,1.08,0,0,1,0-.18V140.83a2.54,2.54,0,0,1,0-.29Z"/><path d="M74.63,157V140.48a1,1,0,0,1,.13.17.75.75,0,0,1,0,.15v15.94c0,.09,0,.18,0,.28Z"/><path class="cls-9" d="M42.7,158.28l.21,0a1,1,0,0,1,.47.11.77.77,0,0,1,.25.23.88.88,0,0,1,.16.32,3.34,3.34,0,0,1,0,.61,4,4,0,0,1,0,.67.91.91,0,0,1-.85.66h-.06a.87.87,0,0,1-.5-.18.91.91,0,0,1-.3-.42,1.08,1.08,0,0,1,0-.19c0-.06,0-.23,0-.5a5.41,5.41,0,0,1,0-.58,1.05,1.05,0,0,1,.09-.27.69.69,0,0,1,.23-.26A1.1,1.1,0,0,1,42.7,158.28Zm.49.29a.57.57,0,0,0-.24,0l-.2,0a.62.62,0,0,0-.45.5c0,.08,0,.25,0,.52s0,.44,0,.52a.67.67,0,0,0,.63.52.74.74,0,0,0,.25,0,.67.67,0,0,0,.27-.22,1.65,1.65,0,0,0,.09-.21,2.69,2.69,0,0,0,0-.38V159l0-.1a.73.73,0,0,0-.14-.18A.68.68,0,0,0,43.19,158.57Z"/><path class="cls-9" d="M44.89,158.28l.12,0a.58.58,0,0,1,.28.06.63.63,0,0,1,.25.21.59.59,0,0,1,.09.31.83.83,0,0,1,0,.13.49.49,0,0,1-.14.28s0,0,0,0l.08.06a1,1,0,0,1,.31.37.83.83,0,0,1,.07.32.76.76,0,0,1-.27.59.92.92,0,0,1-1.26,0,.76.76,0,0,1-.25-.58V160a.61.61,0,0,1,.06-.28.81.81,0,0,1,.31-.37c.06,0,.09-.07.07-.09a.33.33,0,0,1-.1-.17.52.52,0,0,1-.05-.24.32.32,0,0,1,0-.08.57.57,0,0,1,.15-.3A.54.54,0,0,1,44.89,158.28Zm.3,1.17-.16,0a.56.56,0,0,0-.33.1.53.53,0,0,0-.24.25.43.43,0,0,0-.05.24.53.53,0,0,0,0,.23.65.65,0,0,0,.3.29.78.78,0,0,0,.28.05.64.64,0,0,0,.27,0,.75.75,0,0,0,.27-.23.58.58,0,0,0,.09-.3.34.34,0,0,0,0-.15A.62.62,0,0,0,45.19,159.45Zm0-.87a.38.38,0,0,0-.19-.06.33.33,0,0,0-.29.18.3.3,0,0,0,0,.3.32.32,0,0,0,.29.17.28.28,0,0,0,.18-.06.32.32,0,0,0,.15-.27A.29.29,0,0,0,45.22,158.58Z"/><path class="cls-9" d="M48.12,158.27h.08a1.09,1.09,0,0,1,.34,0,.69.69,0,0,1,.34.22.82.82,0,0,1,.21.36c0,.06,0,.09,0,.11s0,0,0,0h-.22l0-.07a.59.59,0,0,0-.22-.33.56.56,0,0,0-.36-.12.63.63,0,0,0-.64.69v.15l.11-.07a.89.89,0,0,1,.48-.16h.06a.83.83,0,0,1,.44.12.82.82,0,0,1,.43.73,1,1,0,0,1-.1.41.77.77,0,0,1-.15.19.64.64,0,0,1-.19.16.84.84,0,0,1-.45.12.88.88,0,0,1-.54-.18.83.83,0,0,1-.31-.49,4,4,0,0,1,0-.68,3.15,3.15,0,0,1,0-.58.83.83,0,0,1,.22-.4A1,1,0,0,1,48.12,158.27Zm.36,1.15a.64.64,0,0,0-.23,0,.67.67,0,0,0-.28.08.54.54,0,0,0-.25.22.62.62,0,0,0-.09.32.44.44,0,0,0,0,.15.62.62,0,0,0,.61.46.62.62,0,0,0,.49-.24.56.56,0,0,0,.13-.37.6.6,0,0,0-.11-.34A.55.55,0,0,0,48.48,159.42Z"/><path class="cls-9" d="M49.51,158.3l0,0H51v.25H49.72v.59h.38a2,2,0,0,1,.49,0,.9.9,0,0,1,.62.59,1,1,0,0,1,0,.23.81.81,0,0,1-.13.45.79.79,0,0,1-.34.31.91.91,0,0,1-.47.12.8.8,0,0,1-.74-.4.4.4,0,0,1-.06-.13s0,0,.13,0h.13l0,.07a.59.59,0,0,0,.5.25h.1a.72.72,0,0,0,.42-.22A.56.56,0,0,0,51,160a.39.39,0,0,0,0-.14.54.54,0,0,0-.19-.3.72.72,0,0,0-.28-.16,3.28,3.28,0,0,0-.55,0h-.41l0,0a.13.13,0,0,1,0-.1,3.59,3.59,0,0,1,0-.41v-.47Z"/><path class="cls-9" d="M52.94,158.28l.07,0a.12.12,0,0,1,.09,0l0,0v1.55h.21v.25h-.21v.72h-.25v-.72H51.67a.1.1,0,0,1-.09-.1h0a.38.38,0,0,1,.11-.19l.21-.26.42-.52.41-.51Zm0,1.05a4.62,4.62,0,0,0,0-.56l-.45.56-.45.56h.91Z"/><path class="cls-9" d="M55.53,158.28l.13,0a.61.61,0,0,1,.28.06.54.54,0,0,1,.24.21.52.52,0,0,1,.1.31.83.83,0,0,1,0,.13.56.56,0,0,1-.14.28s0,0,0,0l.07.06a.81.81,0,0,1,.31.37.68.68,0,0,1,.07.32.75.75,0,0,1-.26.59.92.92,0,0,1-1.26,0,.77.77,0,0,1-.26-.58V160a.77.77,0,0,1,.07-.28.81.81,0,0,1,.31-.37c.06,0,.08-.07.07-.09a.33.33,0,0,1-.11-.17.67.67,0,0,1,0-.24v-.08a.67.67,0,0,1,.16-.3A.55.55,0,0,1,55.53,158.28Zm.3,1.17-.15,0a.61.61,0,0,0-.34.1.64.64,0,0,0-.24.25.54.54,0,0,0-.05.24.52.52,0,0,0,.05.23.65.65,0,0,0,.3.29.74.74,0,0,0,.28.05.64.64,0,0,0,.27,0,.65.65,0,0,0,.26-.23.51.51,0,0,0,.1-.3.61.61,0,0,0,0-.15A.62.62,0,0,0,55.83,159.45Zm0-.87a.33.33,0,0,0-.19-.06.31.31,0,0,0-.28.18.3.3,0,0,0,0,.3.32.32,0,0,0,.29.17.28.28,0,0,0,.18-.06.32.32,0,0,0,.15-.27A.3.3,0,0,0,55.86,158.58Z"/><path class="cls-9" d="M57.54,158.32a.85.85,0,0,1,.25,0,.78.78,0,0,1,.24,0,.84.84,0,0,1,.4.23.76.76,0,0,1,.22.39,3.79,3.79,0,0,1,0,.64,3.62,3.62,0,0,1,0,.64.75.75,0,0,1-.21.38.83.83,0,0,1-.38.23.7.7,0,0,1-.27,0,1,1,0,0,1-.28,0,.84.84,0,0,1-.55-.58c0-.07,0-.1,0-.11s0,0,0,0h.23l0,.09a.53.53,0,0,0,.21.31.6.6,0,0,0,.36.12.62.62,0,0,0,.35-.1.64.64,0,0,0,.28-.59v-.15l-.1.07a1,1,0,0,1-.48.16h-.06a.93.93,0,0,1-.44-.11.91.91,0,0,1-.43-.75.86.86,0,0,1,.25-.6A1,1,0,0,1,57.54,158.32Zm.43.25-.18,0a.6.6,0,0,0-.4.15.58.58,0,0,0-.21.37.39.39,0,0,0,0,.09.59.59,0,0,0,.19.43.57.57,0,0,0,.43.19h.09a.68.68,0,0,0,.39-.21.6.6,0,0,0,.15-.4.61.61,0,0,0-.09-.31A.6.6,0,0,0,58,158.57Z"/><path class="cls-9" d="M59.65,158.28l.21,0a1,1,0,0,1,.47.11.77.77,0,0,1,.25.23.88.88,0,0,1,.16.32,3.34,3.34,0,0,1,0,.61,4,4,0,0,1,0,.67.85.85,0,0,1-.32.47.84.84,0,0,1-.53.19h-.06a.87.87,0,0,1-.5-.18.91.91,0,0,1-.3-.42l0-.19c0-.06,0-.23,0-.5a5.41,5.41,0,0,1,0-.58,1.05,1.05,0,0,1,.09-.27.78.78,0,0,1,.23-.26A1.1,1.1,0,0,1,59.65,158.28Zm.49.29a.54.54,0,0,0-.24,0l-.2,0a.6.6,0,0,0-.44.5,3.07,3.07,0,0,0,0,.52,3.14,3.14,0,0,0,0,.52.59.59,0,0,0,.22.37.6.6,0,0,0,.4.15.7.7,0,0,0,.25,0,.67.67,0,0,0,.27-.22.6.6,0,0,0,.09-.21,2.69,2.69,0,0,0,0-.38V159l0-.1a.68.68,0,0,0-.13-.18A.92.92,0,0,0,60.14,158.57Z"/><path class="cls-9" d="M62.85,158.28l.2,0a1,1,0,0,1,.47.11.8.8,0,0,1,.26.23.88.88,0,0,1,.16.32,3.34,3.34,0,0,1,0,.61,4,4,0,0,1,0,.67.91.91,0,0,1-.32.47.88.88,0,0,1-.53.19H63a.84.84,0,0,1-.49-.18.91.91,0,0,1-.3-.42.58.58,0,0,1,0-.19c0-.06,0-.23,0-.5s0-.51,0-.58a.83.83,0,0,1,.1-.27.75.75,0,0,1,.22-.26A1.3,1.3,0,0,1,62.85,158.28Zm.49.29a.6.6,0,0,0-.24,0l-.21,0a.63.63,0,0,0-.44.5,4.83,4.83,0,0,0,0,.52,5,5,0,0,0,0,.52.67.67,0,0,0,.63.52.69.69,0,0,0,.24,0,.56.56,0,0,0,.27-.22,1,1,0,0,0,.1-.21,2.69,2.69,0,0,0,0-.38V159l0-.1a.73.73,0,0,0-.14-.18A.68.68,0,0,0,63.34,158.57Z"/><path class="cls-9" d="M65.08,158.29h.17a.83.83,0,0,1,.52.21.91.91,0,0,1,.29.49s0,.1,0,.15a.88.88,0,0,1-.17.5,1.12,1.12,0,0,1-.18.2,5.68,5.68,0,0,1-.49.41l-.43.36h1.28v.25H64.47l-.14,0a.12.12,0,0,1,0-.09.11.11,0,0,1,0-.1l.61-.51c.39-.33.61-.51.66-.57a.63.63,0,0,0,.2-.42s0-.05,0-.09a.67.67,0,0,0-.18-.33.66.66,0,0,0-.34-.18h-.11a.66.66,0,0,0-.33.09.64.64,0,0,0-.23.26.47.47,0,0,0-.05.14,0,0,0,0,1,0,0h-.12c-.08,0-.13,0-.13,0s0,0,0,0v0a.14.14,0,0,0,0-.06.8.8,0,0,1,.26-.4A1,1,0,0,1,65.08,158.29Z"/><path class="cls-9" d="M66.42,158.51v-.25h1.5c.08,0,.13,0,.15,0a.09.09,0,0,1,0,.06.87.87,0,0,1-.11.28c-.08.15-.26.49-.56,1l-.67,1.21h-.29l.64-1.17.65-1.15H66.42Z"/><path class="cls-9" d="M69.55,158.51v-.25h1.5c.08,0,.13,0,.15,0s0,0,0,.06a.76.76,0,0,1-.12.28c-.07.15-.26.49-.55,1l-.68,1.21H69.6l.65-1.17.64-1.15H69.55Z"/><path class="cls-9" d="M72.32,158.28l.12,0a.58.58,0,0,1,.28.06.63.63,0,0,1,.25.21.59.59,0,0,1,.09.31.83.83,0,0,1,0,.13.49.49,0,0,1-.14.28s0,0,0,0l.08.06a1,1,0,0,1,.31.37.83.83,0,0,1,.07.32.76.76,0,0,1-.27.59.92.92,0,0,1-1.26,0,.76.76,0,0,1-.25-.58V160a.61.61,0,0,1,.06-.28.81.81,0,0,1,.31-.37c.06,0,.09-.07.07-.09a.33.33,0,0,1-.1-.17.52.52,0,0,1,0-.24.32.32,0,0,1,0-.08.57.57,0,0,1,.15-.3A.54.54,0,0,1,72.32,158.28Zm.3,1.17-.16,0a.56.56,0,0,0-.33.1.53.53,0,0,0-.24.25.43.43,0,0,0,0,.24.53.53,0,0,0,0,.23.65.65,0,0,0,.3.29.78.78,0,0,0,.28.05.64.64,0,0,0,.27,0,.75.75,0,0,0,.27-.23.58.58,0,0,0,.09-.3.34.34,0,0,0,0-.15A.62.62,0,0,0,72.62,159.45Zm0-.87a.38.38,0,0,0-.19-.06.33.33,0,0,0-.29.18.3.3,0,0,0,0,.3.32.32,0,0,0,.29.17.28.28,0,0,0,.18-.06.32.32,0,0,0,.15-.27A.29.29,0,0,0,72.65,158.58Z"/><path class="cls-9" d="M74.34,158.28l.21,0a1,1,0,0,1,.47.11.77.77,0,0,1,.25.23.88.88,0,0,1,.16.32,3.34,3.34,0,0,1,0,.61,4,4,0,0,1,0,.67.91.91,0,0,1-.85.66h-.06a.87.87,0,0,1-.5-.18.91.91,0,0,1-.3-.42,1.08,1.08,0,0,1,0-.19c0-.06,0-.23,0-.5a5.41,5.41,0,0,1,0-.58,1.05,1.05,0,0,1,.09-.27.69.69,0,0,1,.23-.26A1.1,1.1,0,0,1,74.34,158.28Zm.49.29a.54.54,0,0,0-.24,0l-.2,0a.62.62,0,0,0-.45.5c0,.08,0,.25,0,.52s0,.44,0,.52a.67.67,0,0,0,.63.52.74.74,0,0,0,.25,0,.67.67,0,0,0,.27-.22,1.65,1.65,0,0,0,.09-.21,2.69,2.69,0,0,0,0-.38V159l0-.1a.73.73,0,0,0-.14-.18A.68.68,0,0,0,74.83,158.57Z"/><path class="cls-9" d="M208.85,154.87v-.57h4.55v.57h-2v5.7h-.62v-5.7Z"/><path class="cls-9" d="M216.89,154.32h.53a3,3,0,0,1,1.79.66,3.19,3.19,0,0,1,1.1,1.62,3.33,3.33,0,0,1,.1.86,3.14,3.14,0,0,1-.13.92,3.39,3.39,0,0,1-.87,1.36,3.08,3.08,0,0,1-1.4.75,2.84,2.84,0,0,1-.71.08,2.89,2.89,0,0,1-1-.14,3.07,3.07,0,0,1-2.05-2.09,2.74,2.74,0,0,1-.1-.88,2.84,2.84,0,0,1,.1-.9,3.13,3.13,0,0,1,1-1.49A3.26,3.26,0,0,1,216.89,154.32Zm.9.66a2.4,2.4,0,0,0-.52-.07,2.69,2.69,0,0,0-.74.13,2.5,2.5,0,0,0-1,4.18,2.39,2.39,0,0,0,1.74.75h0a2.56,2.56,0,0,0,2.42-1.79,2.66,2.66,0,0,0,.1-.77,2,2,0,0,0-.09-.65,2.75,2.75,0,0,0-.75-1.17A2.53,2.53,0,0,0,217.79,155Z"/><path class="cls-9" d="M221.2,154.87v-.57h4.55v.57h-2v5.7h-.62v-5.7Z"/><path class="cls-9" d="M229,154.33a.38.38,0,0,1,.18-.07.39.39,0,0,1,.17.07,10,10,0,0,1,.58,1.36c.34.87.72,1.86,1.13,3s.65,1.7.67,1.77a.08.08,0,0,1,0,0s-.11.05-.31.05h-.34c-.23-.67-.48-1.32-.74-2H228c-.09.22-.21.54-.36,1s-.28.75-.37,1h-.32c-.22,0-.32,0-.32,0s.38-1.05,1.14-3.07S228.89,154.4,229,154.33Zm.69,2.44c-.32-.83-.48-1.25-.49-1.26h0a6.44,6.44,0,0,0-.48,1.15c-.3.83-.45,1.24-.45,1.26a5.43,5.43,0,0,0,.93,0h.94Z"/><path class="cls-9" d="M232.51,160.56v-6.3h.61v5.68h3.75v.62Z"/><path class="cls-9" d="M237.63,157.5v-.83h.78v.83Zm0,3.07v-.82h.78v.82Z"/><path class="cls-9" d="M245.18,154.31a.3.3,0,0,1,.15-.05.3.3,0,0,1,.24.11l.1.09v3.75h.49v.62h-.49v1.73h-.61v-1.73h-1.5a12.74,12.74,0,0,1-1.46,0,.22.22,0,0,1-.21-.24h0a.94.94,0,0,1,.26-.48l.51-.63,1-1.26c.34-.43.67-.84,1-1.22Zm-.12,2.55a11.81,11.81,0,0,0,0-1.37l-1.1,1.37-1.08,1.35h2.21Z"/><path class="cls-9" d="M248.55,154.32a2,2,0,0,1,.5-.06,2.24,2.24,0,0,1,1.14.28,2,2,0,0,1,.62.55,2.22,2.22,0,0,1,.38.77,8.26,8.26,0,0,1,.07,1.49,9.16,9.16,0,0,1-.08,1.62,2.15,2.15,0,0,1-2.06,1.59H249a2.14,2.14,0,0,1-1.92-1.47,2.14,2.14,0,0,1-.08-.44c0-.16,0-.57,0-1.23s0-1.23,0-1.41a2.06,2.06,0,0,1,.22-.65,1.75,1.75,0,0,1,.55-.62A2.6,2.6,0,0,1,248.55,154.32Zm1.18.69a1.56,1.56,0,0,0-.58-.12,1.87,1.87,0,0,0-.49.05,1.49,1.49,0,0,0-1.07,1.21,11.14,11.14,0,0,0,0,1.25,11.34,11.34,0,0,0,0,1.27,1.57,1.57,0,0,0,1.51,1.27,1.54,1.54,0,0,0,.6-.13,1.57,1.57,0,0,0,.66-.54,2.07,2.07,0,0,0,.22-.5,5.68,5.68,0,0,0,0-.92v-.53l0-1.31-.1-.24a1.58,1.58,0,0,0-.33-.44A1.63,1.63,0,0,0,249.73,155Z"/><path class="cls-9" d="M252,160.56v-.83h.78v.83Z"/><path class="cls-9" d="M255.16,154.32a2,2,0,0,1,.5-.06,2.24,2.24,0,0,1,1.14.28,2,2,0,0,1,.62.55,2.22,2.22,0,0,1,.38.77,8.26,8.26,0,0,1,.07,1.49,9.16,9.16,0,0,1-.08,1.62,2.15,2.15,0,0,1-2.06,1.59h-.15a2.16,2.16,0,0,1-1.19-.44,2.24,2.24,0,0,1-.73-1,2.14,2.14,0,0,1-.08-.44c0-.16,0-.57,0-1.23s0-1.23,0-1.41a2.06,2.06,0,0,1,.22-.65,1.75,1.75,0,0,1,.55-.62A2.6,2.6,0,0,1,255.16,154.32Zm1.19.69a1.66,1.66,0,0,0-.58-.12,1.91,1.91,0,0,0-.5.05,1.49,1.49,0,0,0-1.07,1.21,11.14,11.14,0,0,0,0,1.25,11.34,11.34,0,0,0,0,1.27,1.57,1.57,0,0,0,1.51,1.27,1.54,1.54,0,0,0,.6-.13,1.57,1.57,0,0,0,.66-.54,2.07,2.07,0,0,0,.22-.5,5.68,5.68,0,0,0,.05-.92V156l-.11-.24a1.58,1.58,0,0,0-.33-.44A1.75,1.75,0,0,0,256.35,155Z"/><path class="cls-9" d="M260.23,154.32a1.88,1.88,0,0,1,.49-.06,2.24,2.24,0,0,1,1.14.28,1.78,1.78,0,0,1,.62.55,2.08,2.08,0,0,1,.39.77,10,10,0,0,1,.06,1.49,9.64,9.64,0,0,1-.07,1.62,2.11,2.11,0,0,1-.76,1.14,2.07,2.07,0,0,1-1.3.45h-.15a2.11,2.11,0,0,1-1.92-1.47,1.63,1.63,0,0,1-.08-.44c0-.16,0-.57,0-1.23s0-1.23,0-1.41a2.13,2.13,0,0,1,.23-.65,1.66,1.66,0,0,1,.55-.62A2.49,2.49,0,0,1,260.23,154.32Zm1.18.69a1.61,1.61,0,0,0-.58-.12,1.82,1.82,0,0,0-.49.05,1.51,1.51,0,0,0-1.08,1.21,11.14,11.14,0,0,0,0,1.25,11.34,11.34,0,0,0,0,1.27,1.49,1.49,0,0,0,.55.91,1.48,1.48,0,0,0,1,.36,1.62,1.62,0,0,0,.6-.13,1.54,1.54,0,0,0,.65-.54,1.5,1.5,0,0,0,.22-.5,5.68,5.68,0,0,0,.05-.92V156l-.11-.24a1.84,1.84,0,0,0-.77-.76Z"/><path class="cls-9" d="M267.37,154.26a1.58,1.58,0,0,1,.35,0,3.7,3.7,0,0,1,1.56.35,3.43,3.43,0,0,1,.49.28q.24.16.24.21a1.17,1.17,0,0,1-.2.24l-.2.23-.19-.16a2.78,2.78,0,0,0-2.91-.22,3,3,0,0,0-1,1l-.14.26h3.24v.65h-3.4v.58h3.15v.7h-1.47a8.76,8.76,0,0,0-1.48,0,.83.83,0,0,0,.19.33,2.58,2.58,0,0,0,1.84,1.13,2.25,2.25,0,0,0,.38,0,2.76,2.76,0,0,0,1.62-.54l.19-.14.2.23.2.23-.16.14a3.31,3.31,0,0,1-1.22.59,3.49,3.49,0,0,1-.82.09,3.6,3.6,0,0,1-.92-.1,3.06,3.06,0,0,1-2-1.7l-.16-.34h-1v-.7h.86v-.58H264v-.65h.72l.16-.35A3.09,3.09,0,0,1,267.37,154.26Z"/><path class="cls-9" d="M44.54,127.25a.38.38,0,0,1,.18-.07.44.44,0,0,1,.17.07,13.13,13.13,0,0,1,.57,1.36q.51,1.3,1.14,3l.67,1.77a.07.07,0,0,1,0,.05s-.1,0-.31,0h-.33c-.24-.66-.48-1.32-.74-2H43.53c-.09.22-.21.54-.37,1l-.36,1h-.33c-.21,0-.32,0-.32,0s.39-1.06,1.15-3.07S44.47,127.32,44.54,127.25Zm.68,2.44q-.47-1.24-.48-1.26h0a5.3,5.3,0,0,0-.48,1.15c-.31.82-.46,1.24-.46,1.26a5.62,5.62,0,0,0,.94,0h.93Z"/><path class="cls-9" d="M48.18,127.26c.06-.06.21-.08.47-.08h.59l.89,0a2.88,2.88,0,0,1,.45.11,3.1,3.1,0,0,1,2.09,2.14,2.85,2.85,0,0,1,.11.86,3,3,0,0,1-.12.9,3.25,3.25,0,0,1-.79,1.3,3.06,3.06,0,0,1-1.28.77,1.83,1.83,0,0,1-.45.11c-.13,0-.43,0-.89,0h-.6a1.27,1.27,0,0,1-.49-.05,1,1,0,0,1-.06-.45c0-.27,0-1.14,0-2.6v-3Zm2.1.61a4.74,4.74,0,0,0-1-.08h-.65v5.1l.7,0a5.38,5.38,0,0,0,1-.1,2.58,2.58,0,0,0,1.32-.94,2.53,2.53,0,0,0,.5-1.5,2.4,2.4,0,0,0-.32-1.21,2.52,2.52,0,0,0-.44-.55,2.82,2.82,0,0,0-.54-.44A2.22,2.22,0,0,0,50.28,127.87Z"/><path class="cls-9" d="M53.52,129.24v-2h.61v2a19.65,19.65,0,0,0,.06,2.23,2,2,0,0,0,1.44,1.38,1.47,1.47,0,0,0,.45.05,1.9,1.9,0,0,0,1.23-.44,2,2,0,0,0,.69-1.14,16.53,16.53,0,0,0,.07-2.17v-1.89h.61v2.07q0,1.46,0,1.8a2.21,2.21,0,0,1-.08.54,2.61,2.61,0,0,1-1.72,1.74,2.48,2.48,0,0,1-.78.11,2.29,2.29,0,0,1-.68-.09,2.91,2.91,0,0,1-1-.51,2.56,2.56,0,0,1-.88-1.6Q53.52,130.92,53.52,129.24Z"/><path class="cls-9" d="M59.41,133.48v-6.3H60v5.67h3.75v.63Z"/><path class="cls-9" d="M64.58,127.79v-.57h4.55v.57h-2v5.7H66.5v-5.7Z"/><path class="cls-9" d="M70,127.28l.1-.1h4.1v.61H70.52v3.08h2v.61h-2v1.39h3.69v.57H70.08l-.09-.08a1,1,0,0,1-.08-.46c0-.26,0-1.12,0-2.58v-2.94Z"/><circle class="cls-10" cx="236.64" cy="66.38" r="32.44"/><path class="cls-11" d="M258.65,85.48a29.14,29.14,0,1,1-2.91-41.11"/><path class="cls-11" d="M242.54,41a26.08,26.08,0,1,1-31.3,19.5"/><path class="cls-11" d="M224.73,86a22.91,22.91,0,1,1,31.48-7.66"/><path class="cls-11" d="M251.45,71.09a14.63,14.63,0,0,1-.88,2.2,15.54,15.54,0,1,1,1.07-11"/><path class="cls-11" d="M217.74,61.6c0-.17.08-.33.13-.5a19.32,19.32,0,0,1,36.52-1.88"/><path class="cls-11" d="M253.36,75.75a19.32,19.32,0,0,1-30.52,4.43"/><polygon class="cls-2" points="214.84 81.41 222.75 52.2 230.55 81.41 214.84 81.41"/><rect class="cls-2" x="232.32" y="51.05" width="7.57" height="30.35"/><path class="cls-2" d="M243.78,51.09h4.57a20.88,20.88,0,0,1,5.17.41,5.84,5.84,0,0,1,3.31,2.65,9.22,9.22,0,0,1,1.28,5,10.09,10.09,0,0,1-.88,4.35,6.27,6.27,0,0,1-2.51,2.83,9.05,9.05,0,0,1-4.52,1l8.24,14.06H254.8l-8.24-14.06h0V81.37h-2.78Z"/><path class="cls-9" d="M218,61.28a4.58,4.58,0,0,1,1-.09,3.22,3.22,0,0,1,.71.06A3.75,3.75,0,0,1,222,63.11a2.28,2.28,0,0,1,.23.55c0,.08-.15.11-.45.11h-.44l-.24-.35a2.85,2.85,0,0,0-1.2-1.07,3.07,3.07,0,0,0-1-.23h-.19a2.33,2.33,0,0,0-1.34.36,1.48,1.48,0,0,0-.66,1,1.77,1.77,0,0,0,0,.33,1.23,1.23,0,0,0,.44.87,3.8,3.8,0,0,0,1.65.84,8,8,0,0,1,2.47,1,1.9,1.9,0,0,1,.81,1.54,1.25,1.25,0,0,1,0,.24,2.11,2.11,0,0,1-.14.67,2.41,2.41,0,0,1-.44.59,2.93,2.93,0,0,1-1.15.76,3.93,3.93,0,0,1-1.44.28,4.68,4.68,0,0,1-.77-.08,3.52,3.52,0,0,1-1.42-.68,3.27,3.27,0,0,1-1-1.2,2.12,2.12,0,0,1-.23-.55c0-.08.15-.13.45-.13s.5,0,.52.1.14.27.19.36a2.76,2.76,0,0,0,1,.92,2.53,2.53,0,0,0,1.28.34,2.25,2.25,0,0,0,.61-.09,2.63,2.63,0,0,0,1.22-.59,1.16,1.16,0,0,0,.45-.89.25.25,0,0,0,0-.08.56.56,0,0,0,0-.07,1,1,0,0,0-.34-.56,3.4,3.4,0,0,0-1.58-.79,10.53,10.53,0,0,1-1.75-.59,3.35,3.35,0,0,1-1-.69,2.44,2.44,0,0,1-.49-.6,2.11,2.11,0,0,1-.21-.95,2.36,2.36,0,0,1,.76-1.79A2.86,2.86,0,0,1,218,61.28Z"/><path class="cls-9" d="M227.5,61.22h.81a4.51,4.51,0,0,1,2.69,1,4.74,4.74,0,0,1,1.65,2.43,4.69,4.69,0,0,1,.15,1.3,4.48,4.48,0,0,1-.2,1.39,4.92,4.92,0,0,1-1.31,2,4.69,4.69,0,0,1-2.1,1.14,4.54,4.54,0,0,1-1.06.11,4.24,4.24,0,0,1-1.47-.21,4.44,4.44,0,0,1-3.23-4.47,4.92,4.92,0,0,1,.14-1.36A4.79,4.79,0,0,1,225,62.34,5,5,0,0,1,227.5,61.22Zm1.35,1a3,3,0,0,0-.77-.1,3.64,3.64,0,0,0-1.11.19,3.72,3.72,0,0,0-1.34.75,3.89,3.89,0,0,0-.93,1.19,3.65,3.65,0,0,0-.4,1.68,3.69,3.69,0,0,0,1.13,2.67,3.61,3.61,0,0,0,2.62,1.13h.06a3.85,3.85,0,0,0,3.64-2.7,4,4,0,0,0,.14-1.15,3,3,0,0,0-.13-1,4,4,0,0,0-1.12-1.76A3.79,3.79,0,0,0,228.85,62.21Z"/><path class="cls-9" d="M233.91,64.22v-3h.92v3a25.78,25.78,0,0,0,.1,3.34,3,3,0,0,0,.81,1.33,2.88,2.88,0,0,0,1.35.75,2.24,2.24,0,0,0,.68.09,2.83,2.83,0,0,0,1.84-.68,2.93,2.93,0,0,0,1-1.72,26.39,26.39,0,0,0,.1-3.26V61.19h.92v3.12c0,1.46,0,2.37,0,2.71a2.77,2.77,0,0,1-.12.81,3.92,3.92,0,0,1-2.58,2.61,3.68,3.68,0,0,1-1.18.17,3.72,3.72,0,0,1-1-.13,4.14,4.14,0,0,1-1.43-.77,3.64,3.64,0,0,1-1-1.2,3.78,3.78,0,0,1-.37-1.22C233.93,66.94,233.91,65.92,233.91,64.22Z"/><path class="cls-9" d="M242.91,61.32a.41.41,0,0,1,.32-.12.39.39,0,0,1,.23.07c.1.1,1,1.37,2.65,3.83l2.57,3.75V61.19h.94v4.52c0,3,0,4.56-.08,4.69a.39.39,0,0,1-.39.24.44.44,0,0,1-.19,0,47,47,0,0,1-2.73-3.85L243.67,63c0,.84,0,2.11,0,3.8s0,3,0,3.82h-.86V66c0-2.26,0-3.6,0-4A1.46,1.46,0,0,1,242.91,61.32Z"/><path class="cls-9" d="M250.86,61.25a1.15,1.15,0,0,1,.69-.13l.89,0q1.08,0,1.35.06a2.67,2.67,0,0,1,.67.15,4.69,4.69,0,0,1,3.15,3.23,4.1,4.1,0,0,1,.16,1.29,4.53,4.53,0,0,1-.18,1.36,4.68,4.68,0,0,1-1.18,2,4.85,4.85,0,0,1-1.93,1.17,3,3,0,0,1-.68.15c-.2,0-.64,0-1.34,0h-.91a1.75,1.75,0,0,1-.73-.08,1.52,1.52,0,0,1-.09-.68c0-.41,0-1.71,0-3.91V61.38Zm3.15.92a6.74,6.74,0,0,0-1.46-.13h-1v7.68l1.06,0a8.41,8.41,0,0,0,1.51-.16A3.82,3.82,0,0,0,256.4,64a4.78,4.78,0,0,0-1.49-1.48A3.53,3.53,0,0,0,254,62.17Z"/><path class="cls-9" d="M42.58,89.84h.74l.93,2.39q.93,2.4,1,2.46a21.51,21.51,0,0,0,1-2.4l.95-2.45H48c.2,0,.3,0,.3.05s-.2.54-.62,1.61l-1.29,3.27c-.43,1.12-.68,1.72-.72,1.82a.51.51,0,0,1-.49.27.69.69,0,0,1-.26-.06.47.47,0,0,1-.18-.15s-.35-.85-1-2.41-.93-2.37-1-2.41-.16-.4-.39-1l-.37-.92Z"/><path class="cls-9" d="M49.52,89.92l.15-.11h4.59v1.11h-3.9v2.79h2v1.11h-2v.92h3.9v1.1H51.93a17.33,17.33,0,0,1-2.43-.07.37.37,0,0,1-.18-.25,31.81,31.81,0,0,1-.07-3.18c0-2.07,0-3.13.06-3.21A.69.69,0,0,1,49.52,89.92Z"/><path class="cls-9" d="M55.2,90.12a.5.5,0,0,1,.43-.26c.15,0,.32.11.51.34s.73,1,1.61,2.2l1.74,2.41v-5h1.11v3.31c0,1.74,0,2.77,0,3.07s-.08.5-.19.57h0a.47.47,0,0,1-.3.07.54.54,0,0,1-.32-.07s-.65-.84-1.81-2.46L56.22,92l0,2.46v2.47H55.09V90.28Z"/><path class="cls-9" d="M64.49,90.92V89.81h2.17v7.07H65.55v-6Z"/><path class="cls-9" d="M69.53,89.88a1.61,1.61,0,0,1,.44,0,2.1,2.1,0,0,1,.72.11,1.56,1.56,0,0,1,.88.83,1.9,1.9,0,0,1,0,1.48l-.15.29.34.34a2.39,2.39,0,0,1,.71,1.31,2.21,2.21,0,0,1,0,.35,2.16,2.16,0,0,1-.47,1.33,2.52,2.52,0,0,1-1.21.89,2.83,2.83,0,0,1-.87.11,2.8,2.8,0,0,1-.61-.06,2.62,2.62,0,0,1-1.07-.59,2.25,2.25,0,0,1-.65-1,2.28,2.28,0,0,1-.12-.73,2.25,2.25,0,0,1,.73-1.63l.34-.34-.15-.3a1.87,1.87,0,0,1-.13-.73,1.79,1.79,0,0,1,.11-.7A1.62,1.62,0,0,1,69.53,89.88Zm.76,3.45-.28,0-.31.06a1.36,1.36,0,0,0-.75.44,1.2,1.2,0,0,0-.28.75,1.19,1.19,0,0,0,.11.47,1.21,1.21,0,0,0,.51.56,1.4,1.4,0,0,0,.73.2,1.37,1.37,0,0,0,1-.41,1.1,1.1,0,0,0,0-1.67A1.35,1.35,0,0,0,70.29,93.33Zm.28-2a.62.62,0,0,0-.55-.39.56.56,0,0,0-.42.2.62.62,0,0,0-.19.42v0a0,0,0,0,1,0,0,.59.59,0,0,0,.23.35.64.64,0,0,0,.39.15h.1a.81.81,0,0,0,.34-.21.48.48,0,0,0,.09-.58Z"/><path class="cls-9" d="M73.41,96.83v-1.2h1.24v1.2Z"/><path class="cls-9" d="M77.37,89.89a2.58,2.58,0,0,1,.6-.07,2.39,2.39,0,0,1,1.48.49,2.43,2.43,0,0,1,.92,1.28,9.54,9.54,0,0,1,.08,1.76c0,.69,0,1.12,0,1.3a3.41,3.41,0,0,1-.09.48,2.58,2.58,0,0,1-.93,1.24,2.41,2.41,0,0,1-1.45.46,2.48,2.48,0,0,1-1.52-.5A2.34,2.34,0,0,1,75.57,95a10.34,10.34,0,0,1-.08-1.68c0-.76,0-1.25,0-1.48a2.16,2.16,0,0,1,.25-.74,2.1,2.1,0,0,1,.65-.76A2.49,2.49,0,0,1,77.37,89.89Zm1.18,1.17a1.2,1.2,0,0,0-.57-.13,1.36,1.36,0,0,0-.71.21,1.31,1.31,0,0,0-.51.56l-.14.26v1.37c0,.65,0,1,0,1.19a.81.81,0,0,0,.08.37,1.38,1.38,0,0,0,.52.62,1.41,1.41,0,0,0,.74.21,1.28,1.28,0,0,0,.94-.39,1.14,1.14,0,0,0,.34-.58,9.88,9.88,0,0,0,.06-1.42,11.75,11.75,0,0,0,0-1.38,1.23,1.23,0,0,0-.3-.56A1.61,1.61,0,0,0,78.55,91.06Z"/><path class="cls-9" d="M83.08,89.92a3.3,3.3,0,0,1,.57-.1h.25a2.34,2.34,0,0,1,1.57.63,2.41,2.41,0,0,1,.47.64,2.22,2.22,0,0,1,.26.73l0,.19h-.58c-.4,0-.59,0-.59-.06a1,1,0,0,0-.11-.3,1.37,1.37,0,0,0-.5-.54,1.28,1.28,0,0,0-.69-.19,1.35,1.35,0,0,0-.79.25,1.3,1.3,0,0,0-.37.45,1.18,1.18,0,0,0-.16.53v.19l.26-.12A2.59,2.59,0,0,1,83.77,92a2.5,2.5,0,0,1,1.51.49,2.24,2.24,0,0,1,1,1.94,2.27,2.27,0,0,1-1,2,2.45,2.45,0,0,1-1.48.48,2.68,2.68,0,0,1-1.19-.29,2.74,2.74,0,0,1-.57-.44,2.09,2.09,0,0,1-.44-.55,2.22,2.22,0,0,1-.26-.71c0-.19,0-.7,0-1.54s0-1.38,0-1.6a2,2,0,0,1,.27-.73,2.37,2.37,0,0,1,.63-.69A2.32,2.32,0,0,1,83.08,89.92Zm1.83,3.79a1.4,1.4,0,0,0-.47-.43,1.31,1.31,0,0,0-.65-.17,1,1,0,0,0-.35,0,1.31,1.31,0,0,0-1,1.27,1.29,1.29,0,0,0,.76,1.21,1.31,1.31,0,0,0,.58.12,1.33,1.33,0,0,0,1.36-1.31A1.25,1.25,0,0,0,84.91,93.71Z"/><path class="cls-9" d="M90.15,94.92V94h5v1Z"/><path class="cls-9" d="M99.25,89.9a1.27,1.27,0,0,1,.59-.09h.71a7.41,7.41,0,0,1,1.58.14,3.48,3.48,0,0,1,2.47,2.29,3.41,3.41,0,0,1,.13,1,3.54,3.54,0,0,1-.1,1,3.59,3.59,0,0,1-2.45,2.39,1.66,1.66,0,0,1-.46.1l-1.16,0-1.26,0-.14-.15a.58.58,0,0,1-.17-.29c0-.09,0-1.14,0-3.13,0-1.61,0-2.55,0-2.83a.65.65,0,0,1,.23-.54A0,0,0,0,1,99.25,89.9ZM101.82,91a5.33,5.33,0,0,0-1-.09l-.75,0v4.9l.7,0a4.41,4.41,0,0,0,1.24-.18,2.56,2.56,0,0,0,.88-.54,2.27,2.27,0,0,0,.76-1.75,2.19,2.19,0,0,0-.49-1.42A2.57,2.57,0,0,0,101.82,91Z"/><path class="cls-9" d="M105.55,96.88V89.81h1l0,.86c0,.49,0,1.66,0,3.54v2.67Z"/><path class="cls-9" d="M107.5,90.12a.52.52,0,0,1,.52-.3.59.59,0,0,1,.23,0,24.62,24.62,0,0,1,1.68,1.94c1,1.27,1.58,1.92,1.59,1.92s.56-.64,1.62-1.91,1.62-1.93,1.68-2a.64.64,0,0,1,.24,0,.54.54,0,0,1,.29.07s0,0,0,0,.2.21.22.47,0,1,0,2.41v4.11h-1.11c0-.55,0-1.39,0-2.52s0-2,0-2.52l-1.29,1.59a14.34,14.34,0,0,1-1.44,1.68.56.56,0,0,1-.23,0,.52.52,0,0,1-.36-.14q-.15-.13-1.35-1.65l-1.23-1.54c0,.56,0,1.41,0,2.53s0,2,0,2.52h-1.11V93.54C107.46,91.33,107.47,90.19,107.5,90.12Z"/><path class="cls-9" d="M121.45,89.93a2.35,2.35,0,0,1,.51-.06,2.44,2.44,0,0,1,1.79.73,2.38,2.38,0,0,1,.71,1.73,1.94,1.94,0,0,1-.15.78,2.94,2.94,0,0,1-.53.84,11.75,11.75,0,0,1-1.23,1.11l-.9.74h2.78v1.1h-4.61l-.17-.16a.52.52,0,0,1-.16-.36,1,1,0,0,1,0-.24,12,12,0,0,1,1.68-1.47c.79-.66,1.29-1.09,1.5-1.28a3.07,3.07,0,0,0,.48-.58,1,1,0,0,0,.12-.54,1.15,1.15,0,0,0-.12-.55,1.21,1.21,0,0,0-.5-.55A1.32,1.32,0,0,0,122,91a1.12,1.12,0,0,0-.51.11,1.79,1.79,0,0,0-.45.32,1.66,1.66,0,0,0-.3.42l-.08.23h-1.07a.09.09,0,0,1-.08-.1,1.78,1.78,0,0,1,.13-.44,3,3,0,0,1,.25-.51A2.46,2.46,0,0,1,121.45,89.93Z"/><path class="cls-9" d="M127.21,89.89a2.52,2.52,0,0,1,.6-.07,2.41,2.41,0,0,1,1.48.49,2.49,2.49,0,0,1,.92,1.28,10.63,10.63,0,0,1,.08,1.76c0,.69,0,1.12,0,1.3a1.86,1.86,0,0,1-.09.48,2.5,2.5,0,0,1-.92,1.24,2.41,2.41,0,0,1-1.45.46,2.53,2.53,0,0,1-1.53-.5,2.38,2.38,0,0,1-.87-1.32,9.23,9.23,0,0,1-.08-1.68c0-.76,0-1.25,0-1.48a2.36,2.36,0,0,1,.24-.74,2.13,2.13,0,0,1,.66-.76A2.42,2.42,0,0,1,127.21,89.89Zm1.18,1.17a1.2,1.2,0,0,0-.57-.13,1.37,1.37,0,0,0-.72.21,1.31,1.31,0,0,0-.51.56l-.13.26v1.37c0,.65,0,1,0,1.19a1.2,1.2,0,0,0,.08.37,1.47,1.47,0,0,0,.53.62,1.41,1.41,0,0,0,.74.21,1.31,1.31,0,0,0,.94-.39,1.22,1.22,0,0,0,.34-.58,9.88,9.88,0,0,0,.06-1.42A9.19,9.19,0,0,0,129.1,92a1.12,1.12,0,0,0-.29-.56A1.61,1.61,0,0,0,128.39,91.06Z"/><path class="cls-9" d="M131.13,96.83v-1.2h1.24v1.2Z"/><path class="cls-9" d="M135.1,89.89a2.58,2.58,0,0,1,.6-.07,2.39,2.39,0,0,1,1.48.49,2.49,2.49,0,0,1,.92,1.28,10.63,10.63,0,0,1,.08,1.76c0,.69,0,1.12,0,1.3a1.86,1.86,0,0,1-.09.48,2.5,2.5,0,0,1-.92,1.24,2.41,2.41,0,0,1-1.45.46,2.48,2.48,0,0,1-1.52-.5A2.34,2.34,0,0,1,133.3,95a10.34,10.34,0,0,1-.08-1.68c0-.76,0-1.25,0-1.48a2.16,2.16,0,0,1,.25-.74,2,2,0,0,1,.65-.76A2.42,2.42,0,0,1,135.1,89.89Zm1.18,1.17a1.2,1.2,0,0,0-.57-.13,1.31,1.31,0,0,0-.71.21,1.4,1.4,0,0,0-.52.56l-.13.26v1.37c0,.65,0,1,0,1.19a1,1,0,0,0,.09.37,1.38,1.38,0,0,0,.52.62,1.41,1.41,0,0,0,.74.21,1.29,1.29,0,0,0,.94-.39,1.14,1.14,0,0,0,.34-.58,9.88,9.88,0,0,0,.06-1.42A11.75,11.75,0,0,0,137,92a1.23,1.23,0,0,0-.3-.56A1.61,1.61,0,0,0,136.28,91.06Z"/><path class="cls-9" d="M140.81,89.92a3.25,3.25,0,0,1,.56-.1h.26a2.32,2.32,0,0,1,1.56.63,2.24,2.24,0,0,1,.48.64,2.47,2.47,0,0,1,.26.73l0,.19h-.57q-.6,0-.6-.06a.89.89,0,0,0-.1-.3,1.37,1.37,0,0,0-.5-.54,1.34,1.34,0,0,0-.7-.19,1.32,1.32,0,0,0-.78.25,1.3,1.3,0,0,0-.37.45,1.07,1.07,0,0,0-.16.53v.19l.26-.12A2.56,2.56,0,0,1,141.5,92a2.52,2.52,0,0,1,1.51.49,2.42,2.42,0,0,1,.91,1.29,2.39,2.39,0,0,1,.07.65,2.42,2.42,0,0,1-.07.66A2.48,2.48,0,0,1,143,96.4a2.45,2.45,0,0,1-1.48.48,2.64,2.64,0,0,1-1.19-.29,3.05,3.05,0,0,1-.58-.44,2.62,2.62,0,0,1-.44-.55,2.43,2.43,0,0,1-.25-.71c0-.19,0-.7,0-1.54s0-1.38,0-1.6a2,2,0,0,1,.27-.73,2.37,2.37,0,0,1,.63-.69A2.32,2.32,0,0,1,140.81,89.92Zm1.83,3.79a1.4,1.4,0,0,0-.47-.43,1.34,1.34,0,0,0-.65-.17,1,1,0,0,0-.35,0,1.31,1.31,0,0,0-1,1.27,1.31,1.31,0,0,0,1.34,1.33,1.31,1.31,0,0,0,.58-.12,1.29,1.29,0,0,0,.78-1.19A1.32,1.32,0,0,0,142.64,93.71Z"/><path class="cls-9" d="M149.87,89.93a2.44,2.44,0,0,1,.52-.06,2.41,2.41,0,0,1,1.78.73,2.34,2.34,0,0,1,.71,1.73,2.13,2.13,0,0,1-.14.78,3.17,3.17,0,0,1-.53.84A12.93,12.93,0,0,1,151,95.06l-.91.74h2.79v1.1h-4.62l-.17-.16a.51.51,0,0,1-.15-.36,1,1,0,0,1,0-.24,12,12,0,0,1,1.68-1.47c.79-.66,1.29-1.09,1.5-1.28a3.15,3.15,0,0,0,.49-.58,1,1,0,0,0,.12-.54,1.15,1.15,0,0,0-.12-.55,1.24,1.24,0,0,0-.51-.55,1.3,1.3,0,0,0-.71-.2,1.12,1.12,0,0,0-.51.11,1.59,1.59,0,0,0-.44.32,1.27,1.27,0,0,0-.3.42l-.09.23H148c-.06,0-.08,0-.08-.1a1.61,1.61,0,0,1,.12-.44,3,3,0,0,1,.25-.51A2.46,2.46,0,0,1,149.87,89.93Z"/><path class="cls-9" d="M155.63,89.89a2.58,2.58,0,0,1,.6-.07,2.39,2.39,0,0,1,1.48.49,2.43,2.43,0,0,1,.92,1.28,9.54,9.54,0,0,1,.08,1.76c0,.69,0,1.12,0,1.3a3.41,3.41,0,0,1-.09.48,2.58,2.58,0,0,1-.93,1.24,2.41,2.41,0,0,1-1.45.46,2.48,2.48,0,0,1-1.52-.5,2.34,2.34,0,0,1-.88-1.32,10.34,10.34,0,0,1-.08-1.68c0-.76,0-1.25,0-1.48a2.16,2.16,0,0,1,.25-.74,2.1,2.1,0,0,1,.65-.76A2.49,2.49,0,0,1,155.63,89.89Zm1.18,1.17a1.2,1.2,0,0,0-.57-.13,1.33,1.33,0,0,0-.71.21,1.31,1.31,0,0,0-.51.56l-.14.26v1.37c0,.65,0,1,0,1.19a1,1,0,0,0,.09.37,1.38,1.38,0,0,0,.52.62,1.41,1.41,0,0,0,.74.21,1.28,1.28,0,0,0,.94-.39,1.14,1.14,0,0,0,.34-.58,9.88,9.88,0,0,0,.06-1.42,11.75,11.75,0,0,0-.05-1.38,1.23,1.23,0,0,0-.3-.56A1.61,1.61,0,0,0,156.81,91.06Z"/><path class="cls-9" d="M161.55,89.93a2.35,2.35,0,0,1,.51-.06,2.44,2.44,0,0,1,1.79.73,2.38,2.38,0,0,1,.71,1.73,1.94,1.94,0,0,1-.15.78,2.94,2.94,0,0,1-.53.84,12.93,12.93,0,0,1-1.23,1.11l-.9.74h2.78v1.1h-4.61l-.17-.16a.52.52,0,0,1-.16-.36,1,1,0,0,1,0-.24,12.25,12.25,0,0,1,1.67-1.47c.8-.66,1.3-1.09,1.5-1.28a2.8,2.8,0,0,0,.49-.58,1,1,0,0,0,.12-.54,1.15,1.15,0,0,0-.12-.55,1.21,1.21,0,0,0-.5-.55,1.34,1.34,0,0,0-.71-.2,1.12,1.12,0,0,0-.51.11,1.79,1.79,0,0,0-.45.32,1.66,1.66,0,0,0-.3.42l-.08.23h-1.07a.09.09,0,0,1-.08-.1,1.78,1.78,0,0,1,.13-.44,2.46,2.46,0,0,1,1.83-1.59Z"/><path class="cls-9" d="M165.47,90.92V89.81h2.17v7.07h-1.11v-6Z"/><path class="cls-9" d="M315.14,49v-.7h2.27v7h-.7V49Z"/><path class="cls-9" d="M320.29,48.33a1.13,1.13,0,0,1,.34,0,1.76,1.76,0,0,1,.75.14,1.59,1.59,0,0,1,.93,1.44,1.32,1.32,0,0,1-.05.35,1.37,1.37,0,0,1-.37.74s0,.06,0,.08a.87.87,0,0,0,.2.15,2.51,2.51,0,0,1,.85,1,1.9,1.9,0,0,1,.19.86,2.12,2.12,0,0,1-.71,1.61,2.54,2.54,0,0,1-3.44,0,2.09,2.09,0,0,1-.69-1.57V53a1.89,1.89,0,0,1,.18-.76,2.31,2.31,0,0,1,.83-1c.17-.12.24-.2.19-.24a1,1,0,0,1-.28-.45,1.72,1.72,0,0,1-.13-.66s0-.12,0-.21a1.77,1.77,0,0,1,.42-.83A1.5,1.5,0,0,1,320.29,48.33Zm.82,3.2a1.64,1.64,0,0,0-.42-.06,1.72,1.72,0,0,0-.91.26,1.69,1.69,0,0,0-.66.69,1.35,1.35,0,0,0-.13.64,1.41,1.41,0,0,0,.12.63,1.7,1.7,0,0,0,.82.79,1.69,1.69,0,0,0,.76.15,1.75,1.75,0,0,0,.73-.12,1.68,1.68,0,0,0,.72-.62,1.44,1.44,0,0,0,.27-.83,1.25,1.25,0,0,0-.06-.4A1.68,1.68,0,0,0,321.11,51.53Zm.08-2.37a.92.92,0,0,0-.52-.17.86.86,0,0,0-.77.48.84.84,0,0,0-.12.42.75.75,0,0,0,.12.4.85.85,0,0,0,.79.46.84.84,0,0,0,.49-.15.89.89,0,0,0,.41-.73A.8.8,0,0,0,321.19,49.16Z"/><path class="cls-9" d="M324,55.35v-.93h.88v.93Z"/><path class="cls-9" d="M327.54,48.35a2,2,0,0,1,.56-.07,2.52,2.52,0,0,1,1.27.31,2.13,2.13,0,0,1,.7.62,2.43,2.43,0,0,1,.44.86,12,12,0,0,1,.07,1.68,9.88,9.88,0,0,1-.09,1.82,2.29,2.29,0,0,1-.85,1.27,2.32,2.32,0,0,1-1.46.51H328a2.34,2.34,0,0,1-1.34-.5,2.47,2.47,0,0,1-.82-1.15,3.44,3.44,0,0,1-.09-.5c0-.17,0-.63,0-1.37s0-1.39,0-1.58a2.4,2.4,0,0,1,.26-.73,1.88,1.88,0,0,1,.61-.7A2.8,2.8,0,0,1,327.54,48.35Zm1.33.77a1.79,1.79,0,0,0-.65-.13,1.92,1.92,0,0,0-.56,0,1.69,1.69,0,0,0-1.2,1.36,10.71,10.71,0,0,0,0,1.41,10.89,10.89,0,0,0,0,1.42,1.76,1.76,0,0,0,1.7,1.42,1.68,1.68,0,0,0,1.65-1.31,5.52,5.52,0,0,0,.06-1V50.24l-.12-.26a2.08,2.08,0,0,0-.37-.5A2,2,0,0,0,328.87,49.12Z"/><path class="cls-9" d="M333.51,48.31h.21a3.25,3.25,0,0,1,.92.11,2.3,2.3,0,0,1,.94.6,2.21,2.21,0,0,1,.55,1,1.27,1.27,0,0,1,.07.31.08.08,0,0,1-.06.09l-.27,0h-.34l-.06-.2a1.69,1.69,0,0,0-.6-.89,1.59,1.59,0,0,0-1-.33,1.81,1.81,0,0,0-1,.28,1.71,1.71,0,0,0-.79,1.6v.41l.29-.19a2.56,2.56,0,0,1,1.3-.44h.17a2.44,2.44,0,0,1,1.2.31,2.22,2.22,0,0,1,1.16,2,2.44,2.44,0,0,1-.25,1.11,2.7,2.7,0,0,1-.93,1,2.5,2.5,0,0,1-2.69-.18,2.2,2.2,0,0,1-.86-1.32,11.6,11.6,0,0,1-.08-1.85,9.85,9.85,0,0,1,.07-1.59,2.2,2.2,0,0,1,.59-1.09A2.93,2.93,0,0,1,333.51,48.31Zm1,3.12a1.7,1.7,0,0,0-.61-.12,1.83,1.83,0,0,0-.79.21,1.64,1.64,0,0,0-.67.61,1.52,1.52,0,0,0-.19,1.26,1.75,1.75,0,0,0,.64.94,1.71,1.71,0,0,0,2.36-.33,1.56,1.56,0,0,0,.35-1,1.74,1.74,0,0,0-.29-1A1.59,1.59,0,0,0,334.48,51.43Z"/><path class="cls-9" d="M337.14,52.56v-.73h5.11v.73Z"/><path class="cls-9" d="M345.28,48.36h.46a2.37,2.37,0,0,1,1.42.58,2.3,2.3,0,0,1,.78,1.33,2.48,2.48,0,0,1,0,.41,2.42,2.42,0,0,1-.46,1.37,4.1,4.1,0,0,1-.5.54c-.19.18-.63.55-1.32,1.12l-1.18,1H348v.69h-2.32c-1.15,0-1.83,0-2.05,0a.66.66,0,0,1-.38-.07.32.32,0,0,1-.09-.23.32.32,0,0,1,.13-.27s.58-.49,1.67-1.4,1.67-1.4,1.8-1.54a1.73,1.73,0,0,0,.53-1.16c0-.05,0-.13,0-.24a1.76,1.76,0,0,0-1.41-1.39,1.55,1.55,0,0,0-.31,0,1.58,1.58,0,0,0-.88.26,1.7,1.7,0,0,0-.63.7,1,1,0,0,0-.15.37.08.08,0,0,1-.06.08h-.31c-.23,0-.35,0-.35-.06a.15.15,0,0,1,0-.08s0-.08,0-.14a1,1,0,0,0,0-.14,2.13,2.13,0,0,1,.72-1.1A2.72,2.72,0,0,1,345.28,48.36Z"/><path class="cls-9" d="M350.68,48.35a1.88,1.88,0,0,1,.55-.07,2.55,2.55,0,0,1,1.28.31,2.24,2.24,0,0,1,.7.62,2.57,2.57,0,0,1,.43.86,10.51,10.51,0,0,1,.07,1.68,11.53,11.53,0,0,1-.08,1.82,2.45,2.45,0,0,1-2.32,1.78h-.16a2.34,2.34,0,0,1-1.35-.5,2.38,2.38,0,0,1-.81-1.15,1.93,1.93,0,0,1-.09-.5c0-.17,0-.63,0-1.37s0-1.39,0-1.58a2.1,2.1,0,0,1,.25-.73,2,2,0,0,1,.61-.7A2.75,2.75,0,0,1,350.68,48.35Zm1.32.77a1.74,1.74,0,0,0-.65-.13,1.84,1.84,0,0,0-.55,0,1.69,1.69,0,0,0-1.21,1.36,12.94,12.94,0,0,0,0,1.41,13.18,13.18,0,0,0,0,1.42,1.69,1.69,0,0,0,.61,1,1.67,1.67,0,0,0,1.09.4A1.72,1.72,0,0,0,353,53.34a7.08,7.08,0,0,0,.05-1V50.24l-.12-.26a1.66,1.66,0,0,0-.37-.5A1.8,1.8,0,0,0,352,49.12Z"/><path class="cls-9" d="M354.57,55.35v-.93h.88v.93Z"/><path class="cls-9" d="M358.1,48.35a1.93,1.93,0,0,1,.55-.07,2.55,2.55,0,0,1,1.28.31,2.13,2.13,0,0,1,.7.62,2.4,2.4,0,0,1,.43.86,10.51,10.51,0,0,1,.07,1.68,10.33,10.33,0,0,1-.08,1.82,2.45,2.45,0,0,1-2.31,1.78h-.17a2.4,2.4,0,0,1-2.16-1.65,1.93,1.93,0,0,1-.09-.5c0-.17,0-.63,0-1.37s0-1.39,0-1.58a2.33,2.33,0,0,1,.25-.73,1.92,1.92,0,0,1,.62-.7A2.7,2.7,0,0,1,358.1,48.35Zm1.32.77a1.7,1.7,0,0,0-.65-.13,1.88,1.88,0,0,0-.55,0A1.69,1.69,0,0,0,357,50.4a14,14,0,0,0,0,1.41c0,.72,0,1.2,0,1.42a1.69,1.69,0,0,0,.61,1,1.67,1.67,0,0,0,1.09.4,1.76,1.76,0,0,0,.68-.14,1.72,1.72,0,0,0,.73-.61,1.79,1.79,0,0,0,.25-.56,5.84,5.84,0,0,0,.05-1V50.24l-.12-.26a1.66,1.66,0,0,0-.37-.5A1.8,1.8,0,0,0,359.42,49.12Z"/><path class="cls-9" d="M364.06,48.31h.22a3.18,3.18,0,0,1,.91.11,2.17,2.17,0,0,1,.94.6,2.23,2.23,0,0,1,.56,1,1.27,1.27,0,0,1,.07.31.08.08,0,0,1-.07.09,1.31,1.31,0,0,1-.27,0h-.33l-.06-.2a1.77,1.77,0,0,0-.61-.89,1.56,1.56,0,0,0-1-.33,1.87,1.87,0,0,0-1,.28,1.71,1.71,0,0,0-.78,1.6v.41l.29-.19a2.53,2.53,0,0,1,1.3-.44h.17a2.37,2.37,0,0,1,1.19.31,2.23,2.23,0,0,1,1.17,2,2.44,2.44,0,0,1-.25,1.11,2.4,2.4,0,0,1-.41.54,2.1,2.1,0,0,1-.52.43,2.51,2.51,0,0,1-2.7-.18,2.19,2.19,0,0,1-.85-1.32,11.14,11.14,0,0,1-.09-1.85,11.29,11.29,0,0,1,.07-1.59,2.37,2.37,0,0,1,.59-1.09A3,3,0,0,1,364.06,48.31Zm1,3.12a1.75,1.75,0,0,0-.62-.12,1.83,1.83,0,0,0-.78.21,1.7,1.7,0,0,0-.93,1.47,1.55,1.55,0,0,0,.06.4,1.81,1.81,0,0,0,.64.94,1.73,1.73,0,0,0,1,.33,1.65,1.65,0,0,0,1.33-.66,1.51,1.51,0,0,0,.35-1,1.66,1.66,0,0,0-.29-1A1.53,1.53,0,0,0,365,51.43Z"/></g></g></svg>