<svg xmlns="http://www.w3.org/2000/svg" viewBox="0 0 411.92 196.8"><defs><style>.cls-1{fill:#eb5e25;}.cls-2{fill:#f39200;}.cls-3{fill:#fed169;}.cls-4{fill:#249197;}.cls-5{fill:#6cc4cd;}.cls-6{fill:#c1e6fb;}.cls-10,.cls-11,.cls-7,.cls-8{fill:none;}.cls-7,.cls-8{stroke:#dadada;}.cls-10,.cls-7,.cls-8{stroke-miterlimit:10;}.cls-8{stroke-dasharray:4.92 4.92;}.cls-9{fill:#1d1d1b;}.cls-10,.cls-11{stroke:#1d1d1b;}.cls-10{stroke-width:2px;}.cls-11{stroke-linecap:round;stroke-linejoin:round;stroke-width:0.75px;}</style></defs><g id="Calque_2" data-name="Calque 2"><g id="Calque_1-2" data-name="Calque 1"><rect class="cls-1" y="0.15" width="137.31" height="19.82"/><rect class="cls-2" x="137.31" y="0.15" width="137.31" height="19.82"/><rect class="cls-3" x="274.61" y="0.15" width="137.31" height="19.82"/><rect class="cls-1" x="274.61" y="176.83" width="137.31" height="19.82" transform="translate(686.53 373.48) rotate(180)"/><rect class="cls-2" x="137.31" y="176.83" width="137.31" height="19.82" transform="translate(411.92 373.48) rotate(180)"/><rect class="cls-3" y="176.83" width="137.31" height="19.82" transform="translate(137.31 373.48) rotate(180)"/><rect class="cls-4" x="375.86" y="36.2" width="52.29" height="19.82" transform="translate(448.12 -355.89) rotate(90)"/><rect class="cls-5" x="375.86" y="88.49" width="52.29" height="19.82" transform="translate(500.41 -303.6) rotate(90)"/><rect class="cls-6" x="375.86" y="140.77" width="52.29" height="19.82" transform="translate(552.69 -251.32) rotate(90)"/><rect class="cls-4" x="-16.23" y="140.77" width="52.29" height="19.82" transform="translate(-140.77 160.6) rotate(-90)"/><rect class="cls-5" x="-16.23" y="88.49" width="52.29" height="19.82" transform="translate(-88.49 108.31) rotate(-90)"/><rect class="cls-6" x="-16.23" y="36.2" width="52.29" height="19.82" transform="translate(-36.2 56.03) rotate(-90)"/><line class="cls-7" x1="292.6" x2="292.6" y2="2.5"/><line class="cls-8" x1="292.6" y1="7.42" x2="292.6" y2="191.84"/><line class="cls-7" x1="292.6" y1="194.3" x2="292.6" y2="196.8"/><path class="cls-9" d="M315.78,35.5a1.12,1.12,0,0,1,.64-.11h.84a8.36,8.36,0,0,1,1.66.13,2.79,2.79,0,0,1,1.38,1,2.48,2.48,0,0,1,.5,1.55,2.34,2.34,0,0,1-1.38,2.22,2.48,2.48,0,0,1-.76.23,9.21,9.21,0,0,1-1.25.06h-1v2.36h-.74V35.6Zm2.77.7a6.57,6.57,0,0,0-1.23-.07h-.95v3.68h1a6.19,6.19,0,0,0,1.38-.1,1.7,1.7,0,0,0,.76-.44,1.57,1.57,0,0,0,.55-1.18,1.71,1.71,0,0,0,0-.39,1.82,1.82,0,0,0-.52-1A2.22,2.22,0,0,0,318.55,36.2Z"/><path class="cls-9" d="M324.62,35.43a.5.5,0,0,1,.22-.09.57.57,0,0,1,.2.09,12.38,12.38,0,0,1,.69,1.63c.41,1,.87,2.23,1.37,3.57s.77,2,.81,2.12,0,0,0,.07-.13,0-.38,0h-.39c-.29-.8-.59-1.59-.89-2.36h-1.43l-1.42,0c-.11.25-.25.64-.44,1.16s-.34.91-.44,1.17h-.39c-.26,0-.38,0-.38,0s.46-1.27,1.38-3.69S324.54,35.51,324.62,35.43Zm.82,2.93c-.38-1-.57-1.5-.58-1.51h0a7.19,7.19,0,0,0-.58,1.38c-.36,1-.54,1.49-.54,1.51a6.72,6.72,0,0,0,1.12,0H326Z"/><path class="cls-9" d="M330.91,35.47a3.48,3.48,0,0,1,.76-.08,2.79,2.79,0,0,1,.57,0,2.9,2.9,0,0,1,1.12.54,2.86,2.86,0,0,1,.8,1,1.7,1.7,0,0,1,.18.43q0,.09-.36.09h-.35l-.19-.28a2.41,2.41,0,0,0-1-.85,2.49,2.49,0,0,0-.77-.18h-.16a1.89,1.89,0,0,0-1.07.28,1.19,1.19,0,0,0-.52.8,1.85,1.85,0,0,0,0,.26,1,1,0,0,0,.35.7,3,3,0,0,0,1.31.67,6,6,0,0,1,2,.81,1.5,1.5,0,0,1,.65,1.22,1.09,1.09,0,0,1,0,.2,1.66,1.66,0,0,1-.12.53,1.76,1.76,0,0,1-.35.47,2.47,2.47,0,0,1-.91.61,3,3,0,0,1-1.15.22,2.94,2.94,0,0,1-.62-.07,2.72,2.72,0,0,1-1.13-.53,2.61,2.61,0,0,1-.8-1,1.7,1.7,0,0,1-.18-.44c0-.07.12-.1.36-.1s.39,0,.41.07a2.35,2.35,0,0,0,.16.29,2.14,2.14,0,0,0,1.81,1,2.12,2.12,0,0,0,.49-.06,2.3,2.3,0,0,0,1-.47,1,1,0,0,0,.35-.72.15.15,0,0,0,0-.06v0a.83.83,0,0,0-.27-.45,2.86,2.86,0,0,0-1.27-.64,8.77,8.77,0,0,1-1.4-.46,2.91,2.91,0,0,1-.8-.55,2.41,2.41,0,0,1-.39-.48,1.7,1.7,0,0,1-.17-.76A1.89,1.89,0,0,1,329.8,36,2.28,2.28,0,0,1,330.91,35.47Z"/><path class="cls-9" d="M337.29,35.47a3.48,3.48,0,0,1,.76-.08,2.79,2.79,0,0,1,.57,0,2.9,2.9,0,0,1,1.12.54,2.86,2.86,0,0,1,.8,1,1.7,1.7,0,0,1,.18.43q0,.09-.36.09H340l-.19-.28a2.41,2.41,0,0,0-1-.85,2.49,2.49,0,0,0-.77-.18h-.16a1.89,1.89,0,0,0-1.07.28,1.19,1.19,0,0,0-.52.8,1.85,1.85,0,0,0,0,.26,1,1,0,0,0,.35.7,3,3,0,0,0,1.31.67,6,6,0,0,1,2,.81,1.47,1.47,0,0,1,.65,1.22,1.09,1.09,0,0,1,0,.2,1.66,1.66,0,0,1-.12.53,1.76,1.76,0,0,1-.35.47,2.47,2.47,0,0,1-.91.61,3,3,0,0,1-1.15.22,2.94,2.94,0,0,1-.62-.07,2.72,2.72,0,0,1-1.13-.53,2.61,2.61,0,0,1-.8-1,1.7,1.7,0,0,1-.18-.44c0-.07.12-.1.36-.1s.39,0,.41.07a2.35,2.35,0,0,0,.16.29,2.14,2.14,0,0,0,1.81,1,2.12,2.12,0,0,0,.49-.06,2.24,2.24,0,0,0,1-.47,1,1,0,0,0,.35-.72.15.15,0,0,0,0-.06v0a.83.83,0,0,0-.27-.45,2.86,2.86,0,0,0-1.27-.64,8.26,8.26,0,0,1-1.39-.46,2.82,2.82,0,0,1-.81-.55,2.41,2.41,0,0,1-.39-.48,1.7,1.7,0,0,1-.16-.76,1.88,1.88,0,0,1,.6-1.43A2.28,2.28,0,0,1,337.29,35.47Z"/><path class="cls-9" d="M341.66,40.21v-.79h5.46v.79Z"/><path class="cls-9" d="M351.08,35.49a2.24,2.24,0,0,1,.57-.08h.25a2.44,2.44,0,0,1,.89.16,3.32,3.32,0,0,1,.8.49,1.81,1.81,0,0,1,.51.64,2,2,0,0,1,.22.89,2.1,2.1,0,0,1-.08.56,2.85,2.85,0,0,1-.22.55,1.46,1.46,0,0,1-.27.4c-.05,0,0,.09,0,.16a1.31,1.31,0,0,1,.38.56,2.33,2.33,0,0,1,.15.82,2.12,2.12,0,0,1-.73,1.62,2.47,2.47,0,0,1-1.73.63h-.18a2.88,2.88,0,0,1-1.1-.23,2.46,2.46,0,0,1-1.33-1.84l0-.2H350l.09.3a1.75,1.75,0,0,0,1,1.16,1.62,1.62,0,0,0,.67.1,2.19,2.19,0,0,0,.46,0,2,2,0,0,0,1-.51,1.35,1.35,0,0,0,.38-.92v-.13a1.1,1.1,0,0,0-.23-.71.76.76,0,0,0-.28-.21,1.42,1.42,0,0,0-.49-.06l-.45,0-.77,0V39h.71l.65,0a.48.48,0,0,0,.24-.11,1.36,1.36,0,0,0,.45-.54,1.59,1.59,0,0,0,.17-.69,1.32,1.32,0,0,0-.06-.39,2.19,2.19,0,0,0-.25-.38,1.45,1.45,0,0,0-.37-.34,1.81,1.81,0,0,0-1.1-.32,2,2,0,0,0-1.2.38,2,2,0,0,0-.38.43,1.25,1.25,0,0,0-.22.48l0,.19h-.74l0-.27a2,2,0,0,1,.67-1.24A2.68,2.68,0,0,1,351.08,35.49Z"/><path d="M359.68,119.86v1.87H315.8v-1.87Z"/><path d="M315.8,107.77V106h43.86v1.75Z"/><path d="M315.8,114.43v-1.62h43.88v1.63Z"/><path d="M359.69,131.75v1.62H315.8v-1.62Z"/><path d="M315.8,100.49V99.1h43.86v1.39Z"/><path d="M359.68,136.12v1.26H315.8v-1.27Z"/><path d="M359.68,127.26v1.26H315.8v-1.26Z"/><path d="M359.68,155v1.14H315.82V155Z"/><path d="M359.68,141.21v1H315.8v-1Z"/><path d="M359.68,139.63v1H315.8v-1Z"/><path d="M315.8,161v-1h43.88v1Z"/><path d="M359.69,122.16v1H315.8v-1Z"/><path d="M315.65,83.8h44l.07,1a2.79,2.79,0,0,1-.65.12q-21.36,0-42.72,0C315.44,84.89,316,84.21,315.65,83.8Z"/><path d="M315.8,75.13v-.9h43.89v.9Z"/><path d="M315.8,88.23v-.9h43.88v.9Z"/><path d="M315.8,71.41v-.82h43.85c.25.75.21.82-.51.82H315.8Z"/><path d="M315.8,78.53v-.78h43.88v.78Z"/><path d="M359.67,90.31H315.8v-.7h43.3C359.83,89.61,359.84,89.61,359.67,90.31Z"/><path d="M359.68,142.91v.65H315.8v-.65Z"/><path d="M359.67,126.7H315.8V126h43.87Z"/><path d="M315.8,85.72v-.57l.37,0c6.08,0,12.16-.1,18.24-.12,8,0,16.09,0,24.14,0a4.9,4.9,0,0,1,1,.13c.1,0,.27.21.25.26a.64.64,0,0,1-.29.32c-.09.05-.23,0-.36,0H315.8Z"/><path d="M315.8,152.78v-.54h43.86l.06.54Z"/><path d="M359.68,103.36v.53H315.82l-.06-.53Z"/><path d="M359.69,111.36v.54H315.82l-.06-.54Z"/><path d="M315.8,116.87v-.54h43.86l.06.54Z"/><path d="M359.68,92.19v.54H315.82l-.06-.54Z"/><path d="M315.8,117.59v-.53h43.87l.05.53Z"/><path d="M315.8,135.79v-.53h43.86l.07.53Z"/><path d="M315.8,147.07v-.53h43.87l.05.53Z"/><path d="M315.8,83v-.54h43.86l.06.54Z"/><path d="M359.69,80.55v.53H315.82l-.06-.53Z"/><path d="M315.8,148.53V148h43.87l.05.54Z"/><path d="M315.8,151.2v-.54h43.86l.07.54Z"/><path d="M315.81,91.44h43.83c.13.31.1.5-.29.47h-43C316.12,91.91,315.67,92.08,315.81,91.44Z"/><path d="M315.71,77h44.06l0,.19a4,4,0,0,1-.89.19c-3.36,0-6.71,0-10.07,0-4.49,0-9,0-13.47,0L317,77.23h-1.29Z"/><path d="M315.81,97h42.75c.26,0,.52-.06.78-.05a1.6,1.6,0,0,1,.42.2l-.08.21h-36c-1.33,0-2.67,0-4,0a22.85,22.85,0,0,1-3.88-.1Z"/><path d="M315.81,95H360a2.65,2.65,0,0,1-.46.33,2,2,0,0,1-.49,0H316.57a7.28,7.28,0,0,1-.8-.1Z"/><path d="M359.8,73.08H315.63c.23-.17.33-.29.44-.32a1.46,1.46,0,0,1,.42,0h42.6a4.7,4.7,0,0,1,.74.1Z"/><path class="cls-9" d="M363.22,158.43a1.81,1.81,0,0,1-.07-.54,2.5,2.5,0,0,1,.31-1.26,2,2,0,0,1,.6-.68,2.36,2.36,0,0,1,.85-.43,10.12,10.12,0,0,1,1.65-.07,11,11,0,0,1,1.78.08,2.36,2.36,0,0,1,1.26.84,2.3,2.3,0,0,1,.49,1.44v.08a.25.25,0,0,0,0,.08,2.3,2.3,0,0,1-.48,1.32,2.38,2.38,0,0,1-1.14.8,1.86,1.86,0,0,1-.48.09c-.18,0-.63,0-1.35,0s-1.37,0-1.56,0a2.38,2.38,0,0,1-.72-.25,2,2,0,0,1-.68-.6A2.94,2.94,0,0,1,363.22,158.43Zm.76-1.3a1.55,1.55,0,0,0-.13.64,2.35,2.35,0,0,0,0,.54,1.68,1.68,0,0,0,1.34,1.19,12.52,12.52,0,0,0,1.38.05,12.85,12.85,0,0,0,1.4-.05,1.68,1.68,0,0,0,1-.6,1.65,1.65,0,0,0,.25-1.73,1.56,1.56,0,0,0-.6-.72,1.86,1.86,0,0,0-.55-.25,6.84,6.84,0,0,0-1,0h-2l-.26.12a1.76,1.76,0,0,0-.49.36A1.86,1.86,0,0,0,364,157.13Z"/><path class="cls-9" d="M363.2,152.6a1.15,1.15,0,0,1,0-.33,1.76,1.76,0,0,1,.14-.75,1.6,1.6,0,0,1,.58-.66,1.49,1.49,0,0,1,.83-.25,1.74,1.74,0,0,1,.34,0,1.41,1.41,0,0,1,.74.37,0,0,0,0,0,.07,0,1.21,1.21,0,0,0,.15-.2,2.47,2.47,0,0,1,1-.83,1.86,1.86,0,0,1,.85-.19,2,2,0,0,1,1.57.7,2.48,2.48,0,0,1,0,3.37,2,2,0,0,1-1.54.69h-.15a2.17,2.17,0,0,1-.75-.18,2.31,2.31,0,0,1-1-.82c-.12-.17-.2-.24-.24-.19a.92.92,0,0,1-.44.28,1.85,1.85,0,0,1-.64.12,1,1,0,0,1-.22,0,1.65,1.65,0,0,1-.81-.41A1.47,1.47,0,0,1,363.2,152.6Zm3.14-.81a1.58,1.58,0,0,0-.06.42,1.8,1.8,0,0,0,.94,1.54,1.41,1.41,0,0,0,.63.13,1.35,1.35,0,0,0,.61-.12,1.66,1.66,0,0,0,.78-.81,1.6,1.6,0,0,0,.14-.74,1.87,1.87,0,0,0-.11-.72,1.77,1.77,0,0,0-.61-.71,1.39,1.39,0,0,0-.81-.26,1.25,1.25,0,0,0-.4.06A1.63,1.63,0,0,0,366.34,151.79Zm-2.33-.08a1,1,0,0,0-.16.51.83.83,0,0,0,.47.76.78.78,0,0,0,.41.12.69.69,0,0,0,.39-.12.9.9,0,0,0,.31-1.26.9.9,0,0,0-.72-.4A.81.81,0,0,0,364,151.71Z"/><path class="cls-9" d="M363.18,144s0-.1,0-.21a3.1,3.1,0,0,1,.11-.9,2.21,2.21,0,0,1,1.55-1.47,1.27,1.27,0,0,1,.31-.07.08.08,0,0,1,.08.06.91.91,0,0,1,0,.27V142l-.2.06a1.72,1.72,0,0,0-.87.59,1.54,1.54,0,0,0-.32,1,1.88,1.88,0,0,0,.27,1,1.69,1.69,0,0,0,1.57.77h.4l-.19-.29a2.41,2.41,0,0,1-.42-1.28v-.16a2.3,2.3,0,0,1,2.27-2.32,2.39,2.39,0,0,1,1.09.25,2.59,2.59,0,0,1,1,.91,2.42,2.42,0,0,1,.3,1.19,2.39,2.39,0,0,1-.48,1.46,2.2,2.2,0,0,1-1.29.84,12.7,12.7,0,0,1-1.82.08,9.63,9.63,0,0,1-1.57-.07,2.17,2.17,0,0,1-1.06-.58A2.81,2.81,0,0,1,363.18,144Zm3.07-1a1.69,1.69,0,0,0-.12.6,1.87,1.87,0,0,0,.2.77,1.55,1.55,0,0,0,.6.67,1.57,1.57,0,0,0,.84.24,1.55,1.55,0,0,0,.4-.06,1.67,1.67,0,0,0,1.25-1.63,1.63,1.63,0,0,0-.65-1.31,1.52,1.52,0,0,0-1-.34,1.64,1.64,0,0,0-.93.28A1.53,1.53,0,0,0,366.25,143Z"/><path class="cls-9" d="M363.27,140.24l-.12-.1v-4h.68v3.54h1.58l0-1a5.68,5.68,0,0,1,.13-1.33,2.39,2.39,0,0,1,1.58-1.64,2.2,2.2,0,0,1,.61-.09,2.28,2.28,0,0,1,1.2.34,2.37,2.37,0,0,1,.84.91,2.65,2.65,0,0,1,.3,1.25,2.13,2.13,0,0,1-1.06,2,1,1,0,0,1-.33.16c-.07,0-.11-.12-.11-.36v-.34l.17-.11a1.5,1.5,0,0,0,.67-1.33c0-.07,0-.15,0-.26a2,2,0,0,0-.58-1.13,1.51,1.51,0,0,0-1.06-.45,1.35,1.35,0,0,0-.37.06,1.67,1.67,0,0,0-.8.51,1.7,1.7,0,0,0-.42.76,7.85,7.85,0,0,0-.09,1.48v1.07l-.1.1a.58.58,0,0,1-.28.08h-2.34Z"/><path class="cls-9" d="M363.21,131.06a.27.27,0,0,1-.06-.16.34.34,0,0,1,.12-.26l.1-.11h4.13V130h.69v.55h1.9v.67h-1.9v1.65c0,.92,0,1.46,0,1.61a.25.25,0,0,1-.27.23h0a1,1,0,0,1-.53-.28l-.7-.56-1.38-1.11-1.36-1.1Zm2.8.14a14.09,14.09,0,0,0-1.5,0s.5.41,1.5,1.22l1.49,1.19V131.2Z"/><path class="cls-9" d="M363.2,124.14a1.15,1.15,0,0,1,0-.33,1.76,1.76,0,0,1,.14-.75,1.6,1.6,0,0,1,.58-.66,1.49,1.49,0,0,1,.83-.25,1.74,1.74,0,0,1,.34,0,1.41,1.41,0,0,1,.74.37,0,0,0,0,0,.07,0,1.21,1.21,0,0,0,.15-.2,2.47,2.47,0,0,1,1-.83,1.86,1.86,0,0,1,.85-.19,2,2,0,0,1,1.57.7,2.48,2.48,0,0,1,0,3.37,2,2,0,0,1-1.54.69h-.15a2.17,2.17,0,0,1-.75-.18,2.31,2.31,0,0,1-1-.82c-.12-.17-.2-.24-.24-.19a.92.92,0,0,1-.44.28,1.85,1.85,0,0,1-.64.12,1,1,0,0,1-.22,0,1.65,1.65,0,0,1-.81-.41A1.47,1.47,0,0,1,363.2,124.14Zm3.14-.81a1.58,1.58,0,0,0-.06.42,1.8,1.8,0,0,0,.94,1.54,1.41,1.41,0,0,0,.63.13,1.35,1.35,0,0,0,.61-.12,1.66,1.66,0,0,0,.78-.81,1.6,1.6,0,0,0,.14-.74,1.87,1.87,0,0,0-.11-.72,1.77,1.77,0,0,0-.61-.71,1.39,1.39,0,0,0-.81-.26,1.25,1.25,0,0,0-.4.06A1.63,1.63,0,0,0,366.34,123.33Zm-2.33-.08a1,1,0,0,0-.16.51.83.83,0,0,0,.47.76.78.78,0,0,0,.41.12.69.69,0,0,0,.39-.12.9.9,0,0,0,.31-1.26.9.9,0,0,0-.72-.4A.81.81,0,0,0,364,123.25Z"/><path class="cls-9" d="M363.33,118.78a2.14,2.14,0,0,1-.09-.69,2.77,2.77,0,0,1,.07-.64,2.52,2.52,0,0,1,.62-1.06,2.29,2.29,0,0,1,1.05-.59,20.92,20.92,0,0,1,3.42,0,2.15,2.15,0,0,1,1,.57,2.29,2.29,0,0,1,.7,1.73,2.15,2.15,0,0,1-.1.75,2.21,2.21,0,0,1-1.54,1.47l-.29.07c-.06,0-.09,0-.1-.07a1.35,1.35,0,0,1,0-.28v-.33l.24-.07a1.57,1.57,0,0,0,.84-.58,1.61,1.61,0,0,0,.32-1,1.71,1.71,0,0,0-1.86-1.68h-.39l.19.29a2.4,2.4,0,0,1,.42,1.26v.17a2.32,2.32,0,0,1-.3,1.17,2.36,2.36,0,0,1-.84.85,2.27,2.27,0,0,1-1.15.3,2.13,2.13,0,0,1-1.6-.67A2.34,2.34,0,0,1,363.33,118.78Zm.65-1.15a1.55,1.55,0,0,0,.32,1.53,1.64,1.64,0,0,0,1,.59,1.25,1.25,0,0,0,.24,0,1.73,1.73,0,0,0,1.65-1.65,1.29,1.29,0,0,0,0-.25,1.72,1.72,0,0,0-.58-1.05,1.6,1.6,0,0,0-1-.4,1.68,1.68,0,0,0-.83.23A1.64,1.64,0,0,0,364,117.63Z"/><path class="cls-9" d="M363.22,113.12a1.81,1.81,0,0,1-.07-.54,2.48,2.48,0,0,1,.31-1.26,2,2,0,0,1,.6-.68,2.36,2.36,0,0,1,.85-.43,10.12,10.12,0,0,1,1.65-.07,11,11,0,0,1,1.78.08,2.36,2.36,0,0,1,1.26.84,2.3,2.3,0,0,1,.49,1.44v.08a.25.25,0,0,0,0,.08,2.3,2.3,0,0,1-.48,1.32,2.38,2.38,0,0,1-1.14.8,1.86,1.86,0,0,1-.48.09c-.18,0-.63,0-1.35,0s-1.37,0-1.56,0a2.38,2.38,0,0,1-.72-.25,2,2,0,0,1-.68-.6A2.94,2.94,0,0,1,363.22,113.12Zm.76-1.3a1.52,1.52,0,0,0-.13.64,2.35,2.35,0,0,0,0,.54,1.68,1.68,0,0,0,1.34,1.19,13.5,13.5,0,0,0,1.38,0,13.86,13.86,0,0,0,1.4,0,1.68,1.68,0,0,0,1-.6,1.65,1.65,0,0,0,.25-1.73,1.64,1.64,0,0,0-.6-.73,2.09,2.09,0,0,0-.55-.24,6.84,6.84,0,0,0-1,0h-2l-.26.12a1.76,1.76,0,0,0-.49.36A1.71,1.71,0,0,0,364,111.82Z"/><path class="cls-9" d="M363.22,104.58a1.93,1.93,0,0,1-.07-.55,2.44,2.44,0,0,1,.31-1.25,2.13,2.13,0,0,1,.6-.69,2.5,2.5,0,0,1,.85-.42,10.12,10.12,0,0,1,1.65-.07,9.82,9.82,0,0,1,1.78.08,2.36,2.36,0,0,1,1.75,2.27V104a.31.31,0,0,0,0,.09,2.3,2.3,0,0,1-1.62,2.11,1.86,1.86,0,0,1-.48.09c-.18,0-.63,0-1.35,0s-1.37,0-1.56,0a2.69,2.69,0,0,1-.72-.25,1.91,1.91,0,0,1-.68-.61A2.78,2.78,0,0,1,363.22,104.58Zm.76-1.3a1.48,1.48,0,0,0-.13.64,2.35,2.35,0,0,0,0,.54,1.67,1.67,0,0,0,1.34,1.18,10.35,10.35,0,0,0,1.38,0,10.62,10.62,0,0,0,1.4,0,1.7,1.7,0,0,0,1.4-1.67,1.74,1.74,0,0,0-.14-.66,1.66,1.66,0,0,0-.6-.72,1.59,1.59,0,0,0-.55-.24,5.34,5.34,0,0,0-1-.06h-.59l-1.44,0-.26.12a1.44,1.44,0,0,0-.49.36A1.71,1.71,0,0,0,364,103.28Z"/><path class="cls-9" d="M363.23,98.63v-.06a.57.57,0,0,1,0-.12v-.13a.82.82,0,0,0,0-.14,2.39,2.39,0,0,1,.57-1.41,2.3,2.3,0,0,1,1.3-.76,2.6,2.6,0,0,1,.4,0,2.32,2.32,0,0,1,1.35.45,3.34,3.34,0,0,1,.53.48c.18.19.54.62,1.1,1.3l.95,1.16c0-.38,0-1,0-1.71s0-1.33,0-1.71h.67v2.29c0,1.12,0,1.79,0,2s0,.34-.07.37a.3.3,0,0,1-.23.1.32.32,0,0,1-.27-.13l-1.37-1.65c-.87-1.05-1.38-1.63-1.52-1.76a1.65,1.65,0,0,0-1.13-.52l-.24,0a1.62,1.62,0,0,0-.89.48,1.89,1.89,0,0,0-.47.91.92.92,0,0,0,0,.29,1.61,1.61,0,0,0,.26.87,1.81,1.81,0,0,0,.69.63,1,1,0,0,0,.37.14.07.07,0,0,1,.07.06,2,2,0,0,1,0,.3c0,.23,0,.35-.06.35l-.08,0-.13,0-.14,0a2.06,2.06,0,0,1-1.08-.71A2.7,2.7,0,0,1,363.23,98.63Z"/><path class="cls-9" d="M363.83,95h-.68V92.89c0-1,0-1.65,0-1.86a.84.84,0,0,1,.07-.39.22.22,0,0,1,.17-.1,2.21,2.21,0,0,1,.75.31c.39.2,1.29.69,2.7,1.48l3.22,1.8v.39a1.65,1.65,0,0,1,0,.39s-1.07-.57-3.13-1.73l-3.07-1.71c0,.4,0,1,0,1.79S363.84,94.65,363.83,95Z"/><path class="cls-9" d="M363.83,86.66h-.68V84.51c0-1,0-1.65,0-1.86a.84.84,0,0,1,.07-.39.21.21,0,0,1,.17-.09,2.33,2.33,0,0,1,.75.3c.39.2,1.29.69,2.7,1.48l3.22,1.8v.39a1.65,1.65,0,0,1,0,.39S369,86,366.93,84.81l-3.07-1.72c0,.4,0,1,0,1.79S363.84,86.27,363.83,86.66Z"/><path class="cls-9" d="M363.2,79.28a1.15,1.15,0,0,1,0-.33,1.76,1.76,0,0,1,.14-.75,1.54,1.54,0,0,1,.58-.66,1.49,1.49,0,0,1,.83-.25,1.74,1.74,0,0,1,.34,0,1.41,1.41,0,0,1,.74.36s0,0,.07,0a1.21,1.21,0,0,0,.15-.2,2.4,2.4,0,0,1,1-.83,1.86,1.86,0,0,1,.85-.19,2,2,0,0,1,1.57.7,2.48,2.48,0,0,1,0,3.37,2,2,0,0,1-1.54.68h-.15a2,2,0,0,1-.75-.17,2.31,2.31,0,0,1-1-.82c-.12-.17-.2-.24-.24-.19a.92.92,0,0,1-.44.28,1.85,1.85,0,0,1-.64.12,1,1,0,0,1-.22,0,1.65,1.65,0,0,1-.81-.41A1.47,1.47,0,0,1,363.2,79.28Zm3.14-.81a1.58,1.58,0,0,0-.06.42,1.8,1.8,0,0,0,.94,1.54,1.41,1.41,0,0,0,.63.13,1.35,1.35,0,0,0,.61-.12,1.71,1.71,0,0,0,.78-.81,1.6,1.6,0,0,0,.14-.74,1.87,1.87,0,0,0-.11-.72,1.77,1.77,0,0,0-.61-.71,1.39,1.39,0,0,0-.81-.26,1.25,1.25,0,0,0-.4.06A1.63,1.63,0,0,0,366.34,78.47ZM364,78.39a.93.93,0,0,0-.16.51.83.83,0,0,0,.47.76.78.78,0,0,0,.41.12.69.69,0,0,0,.39-.12.84.84,0,0,0,.45-.77.83.83,0,0,0-.14-.49.87.87,0,0,0-.72-.4A.81.81,0,0,0,364,78.39Z"/><path class="cls-9" d="M363.22,73.86a1.93,1.93,0,0,1-.07-.55,2.44,2.44,0,0,1,.31-1.25,2.13,2.13,0,0,1,.6-.69,2.5,2.5,0,0,1,.85-.42,10.12,10.12,0,0,1,1.65-.07,9.82,9.82,0,0,1,1.78.08,2.36,2.36,0,0,1,1.75,2.27v.08a.31.31,0,0,0,0,.09,2.3,2.3,0,0,1-1.62,2.11,1.86,1.86,0,0,1-.48.09c-.18,0-.63,0-1.35,0s-1.37,0-1.56,0a2.69,2.69,0,0,1-.72-.25,1.91,1.91,0,0,1-.68-.61A2.78,2.78,0,0,1,363.22,73.86Zm.76-1.3a1.48,1.48,0,0,0-.13.64,2.35,2.35,0,0,0,0,.54,1.67,1.67,0,0,0,1.34,1.18,10.35,10.35,0,0,0,1.38,0,10.62,10.62,0,0,0,1.4,0,1.7,1.7,0,0,0,1.4-1.67,1.7,1.7,0,0,0-.14-.66,1.66,1.66,0,0,0-.6-.72,1.59,1.59,0,0,0-.55-.24,5.34,5.34,0,0,0-1-.06h-.59l-1.44,0-.26.12a1.44,1.44,0,0,0-.49.36A1.71,1.71,0,0,0,364,72.56Z"/><path class="cls-1" d="M43.61,65.87a4.25,4.25,0,0,1,1.57-.18q1.11,0,2,0a21.29,21.29,0,0,1,3.91.27,6.54,6.54,0,0,1,4.66,4.39,6.86,6.86,0,0,1,0,3.67A6,6,0,0,1,51.34,78a15.75,15.75,0,0,1-3.28.3l-2.49,0v4.93H42.8V73.36A53.4,53.4,0,0,1,43,66.44a.91.91,0,0,1,.51-.51Zm6.26,2.71a16,16,0,0,0-2.5-.15h-1.8v7.12h2a13.32,13.32,0,0,0,3.15-.27,3.8,3.8,0,0,0,1.73-1,2.8,2.8,0,0,0,.81-2.07,1.15,1.15,0,0,0,0-.16.86.86,0,0,1,0-.15,3.5,3.5,0,0,0-1-2.18A4.17,4.17,0,0,0,49.87,68.58Z"/><path class="cls-1" d="M64.82,66.05a1.43,1.43,0,0,1,1-.48,1.53,1.53,0,0,1,.66.19,1.18,1.18,0,0,1,.51.41q.12.18,3.36,8.35T73.6,83t-1.41.15H70.71q-1.14-2.79-1.95-4.93H63c-.42,1.08-1,2.73-1.89,4.93H59.58q-1.41,0-1.41-.12a.27.27,0,0,1,0-.12q.18-.57,3.35-8.64T64.82,66.05Zm2.83,9.35c-1.15-3-1.73-4.51-1.75-4.51l-1.77,4.39s0,.07,0,.08l.29,0a4,4,0,0,0,.54,0h.87C67.05,75.43,67.65,75.42,67.65,75.4Z"/><path class="cls-1" d="M81.27,65.75a6.51,6.51,0,0,1,.81,0,10.58,10.58,0,0,1,2.08.15,6.55,6.55,0,0,1,2.48,1.2,6.37,6.37,0,0,1,1.79,2,.8.8,0,0,0,.08.16,1,1,0,0,1,.07.15l.06.15a.67.67,0,0,0,.06.12.41.41,0,0,1,0,.09.25.25,0,0,1,0,.08l0,0a7.66,7.66,0,0,1-1.56.06,3.59,3.59,0,0,1-1.81-.24,3.93,3.93,0,0,0-3-1.23,2.78,2.78,0,0,0-2.74,1.35,2.32,2.32,0,0,0-.24.9c0,.72.53,1.35,1.59,1.9a21.37,21.37,0,0,0,3.16,1.08,7.64,7.64,0,0,1,3.4,1.86,3.6,3.6,0,0,1,1,1.51,4.57,4.57,0,0,1,.18,1.26,4,4,0,0,1-.48,2A5.27,5.27,0,0,1,86,82.41a7.16,7.16,0,0,1-3.3.78H82.2a7.53,7.53,0,0,1-2.73-.69,6.15,6.15,0,0,1-1.4-1,7.46,7.46,0,0,1-1.19-1.33A10.58,10.58,0,0,1,76.29,79,3.53,3.53,0,0,1,76,78q0-.12,1.44-.12h1.42l.24.48a4.44,4.44,0,0,0,1.89,1.75,3.52,3.52,0,0,0,1.6.36,4.25,4.25,0,0,0,2.4-.67,1.82,1.82,0,0,0,1-1.47,1.08,1.08,0,0,0-.21-.63,2.66,2.66,0,0,0-.91-.68,9.31,9.31,0,0,0-1.43-.61l-.87-.27-1-.31q-4.87-1.47-4.87-5a5.13,5.13,0,0,1,.18-1.29,4.27,4.27,0,0,1,1.26-2.26A6.49,6.49,0,0,1,81.27,65.75Z"/><path class="cls-1" d="M96.31,65.75a6.51,6.51,0,0,1,.81,0,10.58,10.58,0,0,1,2.08.15,6.55,6.55,0,0,1,2.48,1.2,6.37,6.37,0,0,1,1.79,2,.8.8,0,0,0,.08.16,1,1,0,0,1,.07.15l.06.15a.67.67,0,0,0,.06.12.41.41,0,0,1,.05.09.25.25,0,0,1,0,.08l0,0a7.66,7.66,0,0,1-1.56.06,3.59,3.59,0,0,1-1.81-.24,3.94,3.94,0,0,0-3-1.23,2.77,2.77,0,0,0-2.73,1.35,2.32,2.32,0,0,0-.24.9c0,.72.53,1.35,1.59,1.9a21.37,21.37,0,0,0,3.16,1.08,7.64,7.64,0,0,1,3.4,1.86,3.6,3.6,0,0,1,1,1.51,4.57,4.57,0,0,1,.18,1.26,4,4,0,0,1-.48,2,5.27,5.27,0,0,1-2.29,2.1,7.16,7.16,0,0,1-3.3.78h-.46a7.53,7.53,0,0,1-2.73-.69,6.15,6.15,0,0,1-1.4-1,7.46,7.46,0,0,1-1.19-1.33A10.58,10.58,0,0,1,91.33,79,3.53,3.53,0,0,1,91,78q0-.12,1.44-.12h1.42l.24.48A4.44,4.44,0,0,0,96,80.07a3.51,3.51,0,0,0,1.59.36,4.26,4.26,0,0,0,2.41-.67,1.82,1.82,0,0,0,1-1.47,1.08,1.08,0,0,0-.21-.63,2.66,2.66,0,0,0-.91-.68,9.74,9.74,0,0,0-1.43-.61l-.88-.27-1-.31q-4.87-1.47-4.87-5a5.13,5.13,0,0,1,.18-1.29,4.27,4.27,0,0,1,1.26-2.26A6.49,6.49,0,0,1,96.31,65.75Z"/><path class="cls-1" d="M118.3,65.87a7.77,7.77,0,0,1,1.38-.15,7.16,7.16,0,0,1,4.09,1.35,4.68,4.68,0,0,1,1.84,2.44,4.48,4.48,0,0,1,.21,1.47,5.47,5.47,0,0,1-.78,3l-.3.42.39.57a4.83,4.83,0,0,1,.75,2.71,5.34,5.34,0,0,1-.48,2.15,4.84,4.84,0,0,1-1.24,1.76,6.41,6.41,0,0,1-4.45,1.56,13,13,0,0,1-1.8-.15,4.48,4.48,0,0,1-2.15-1.14,5.78,5.78,0,0,1-1.64-2.14,8.27,8.27,0,0,1-.36-1.06,4.75,4.75,0,0,1-.21-1,6.54,6.54,0,0,1,1.44-.06q1,0,1.23,0t.21.15a2,2,0,0,0,.29.8,4.4,4.4,0,0,0,.62.88,3,3,0,0,0,2.22.94,3.8,3.8,0,0,0,2.53-.81,2.65,2.65,0,0,0,1-2.08,1.7,1.7,0,0,0-.48-1.26l-.3-.27-1.71.06-1.72.09v-2.8h2.95l.48-.51a3,3,0,0,0,.66-1.15,2.22,2.22,0,0,0,.12-.6,2,2,0,0,0-.12-.6,2.54,2.54,0,0,0-.63-1,4.14,4.14,0,0,0-1-.79,4.58,4.58,0,0,0-3.1,0,4,4,0,0,0-1.22,1,1.86,1.86,0,0,0-.53,1.11c0,.1-.06.16-.19.18s-.55,0-1.25,0h-1.44l.09-.54a5.24,5.24,0,0,1,1.53-3A6.11,6.11,0,0,1,118.3,65.87Z"/><path d="M57.19,157.13H56.5V140.69h.69Z"/><path d="M61.72,140.69h.66v16.43h-.66Z"/><path d="M59.23,140.69h.6v16.44h-.6Z"/><path d="M52.74,157.13h-.61V140.69h.61Z"/><path d="M64.45,140.69H65v16.43h-.52Z"/><path d="M51.11,157.13h-.48V140.69h.48Z"/><path d="M54.42,157.13H54V140.69h.47Z"/><path d="M44,157.13h-.43V140.7H44Z"/><path d="M49.2,157.13h-.38V140.69h.38Z"/><path d="M49.79,157.13h-.38V140.69h.38Z"/><path d="M41.78,140.69h.38v16.44h-.38Z"/><path d="M56.33,157.13H56V140.69h.38Z"/><path d="M70.7,140.64v16.49l-.36,0a1.33,1.33,0,0,1,0-.24q0-8,0-16C70.29,140.56,70.54,140.76,70.7,140.64Z"/><path d="M74,140.69h.33v16.44H74Z"/><path d="M69,140.69h.34v16.44H69Z"/><path d="M75.34,140.69h.31v16.42c-.28.1-.31.08-.31-.18V140.69Z"/><path d="M72.67,140.69H73v16.44h-.29Z"/><path d="M68.26,157.12V140.69h.26v16.22C68.52,157.18,68.52,157.19,68.26,157.12Z"/><path d="M48.56,157.13h-.24V140.69h.24Z"/><path d="M54.63,157.12V140.69h.25v16.43Z"/><path d="M70,140.69h.21a.71.71,0,0,1,0,.14c0,2.28,0,4.55,0,6.83,0,3,0,6,0,9a1.65,1.65,0,0,1,0,.38s-.08.1-.1.09a.31.31,0,0,1-.12-.11s0-.08,0-.13V140.69Z"/><path d="M44.87,140.69h.2v16.43l-.2,0Z"/><path d="M63.38,157.13h-.21V140.7l.21,0Z"/><path d="M60.38,157.13h-.2V140.7l.2,0Z"/><path d="M58.32,140.69h.2v16.43l-.2,0Z"/><path d="M67.56,157.13h-.21V140.7l.21,0Z"/><path d="M58,140.69h.2v16.43l-.2,0Z"/><path d="M51.23,140.69h.2v16.43l-.2,0Z"/><path d="M47,140.69h.2v16.43l-.2,0Z"/><path d="M71,140.69h.2v16.43l-.2,0Z"/><path d="M71.92,157.13h-.2V140.7l.2,0Z"/><path d="M46.46,140.69h.2v16.43l-.2,0Z"/><path d="M45.46,140.69h.2v16.43l-.2,0Z"/><path d="M67.84,140.7v16.41c-.12,0-.19,0-.18-.11V140.91C67.66,140.81,67.6,140.64,67.84,140.7Z"/><path d="M73.26,140.66v16.5h-.07a1.3,1.3,0,0,1-.07-.33c0-1.25,0-2.51,0-3.77v-5q0-3.45,0-6.88v-.48Z"/><path d="M65.75,140.7v16a2.83,2.83,0,0,1,0,.29.79.79,0,0,1-.08.16l-.07,0V143.64c0-.5,0-1,0-1.5a7.81,7.81,0,0,1,0-1.45Z"/><path d="M66.52,140.7v16.54a1.54,1.54,0,0,1-.13-.17,1.08,1.08,0,0,1,0-.18V141c0-.1,0-.2,0-.3Z"/><path d="M74.71,157.17V140.63c.07.09.11.12.12.17a.37.37,0,0,1,0,.15v16a2.51,2.51,0,0,1,0,.27Z"/><path class="cls-9" d="M42.75,158.45a.65.65,0,0,1,.2,0,.88.88,0,0,1,.47.11.93.93,0,0,1,.42.55,3.34,3.34,0,0,1,0,.61,3.54,3.54,0,0,1,0,.67.83.83,0,0,1-.31.47A.89.89,0,0,1,43,161h-.06a.84.84,0,0,1-.49-.18.91.91,0,0,1-.3-.42,1.06,1.06,0,0,1,0-.19v-.5c0-.32,0-.51,0-.58a.85.85,0,0,1,.09-.27.78.78,0,0,1,.23-.26A1,1,0,0,1,42.75,158.45Zm.49.29a.6.6,0,0,0-.24-.05h-.21a.64.64,0,0,0-.44.51,4.74,4.74,0,0,0,0,.51,5.23,5.23,0,0,0,0,.53.59.59,0,0,0,.22.37.62.62,0,0,0,.4.15.7.7,0,0,0,.25-.05.62.62,0,0,0,.27-.23.5.5,0,0,0,.09-.2,1.74,1.74,0,0,0,0-.38v-.76l-.05-.1a.51.51,0,0,0-.13-.18A.68.68,0,0,0,43.24,158.74Z"/><path class="cls-9" d="M44.93,158.44h.13a.74.74,0,0,1,.28,0,.56.56,0,0,1,.24.22.52.52,0,0,1,.1.31.83.83,0,0,1,0,.13.52.52,0,0,1-.14.27,0,0,0,0,0,0,0l.07.06a.81.81,0,0,1,.31.37.68.68,0,0,1,.07.32.75.75,0,0,1-.26.59.92.92,0,0,1-1.26,0,.77.77,0,0,1-.26-.58v-.06a.77.77,0,0,1,.07-.27.81.81,0,0,1,.31-.37c.06-.05.08-.08.07-.09a.38.38,0,0,1-.11-.17.67.67,0,0,1,0-.24v-.08a.62.62,0,0,1,.16-.3A.57.57,0,0,1,44.93,158.44Zm.3,1.18-.15,0a.61.61,0,0,0-.34.1.64.64,0,0,0-.24.25.52.52,0,0,0,0,.23.54.54,0,0,0,0,.24.65.65,0,0,0,.3.29.74.74,0,0,0,.28,0,.64.64,0,0,0,.27,0,.75.75,0,0,0,.27-.23.59.59,0,0,0,.09-.31.32.32,0,0,0,0-.14A.6.6,0,0,0,45.23,159.62Zm0-.87a.39.39,0,0,0-.2-.06.32.32,0,0,0-.28.17.32.32,0,0,0,0,.16.28.28,0,0,0,0,.15.32.32,0,0,0,.29.16.27.27,0,0,0,.18-.05.32.32,0,0,0,.15-.27A.3.3,0,0,0,45.27,158.75Z"/><path class="cls-9" d="M48.17,158.44h.08a1.51,1.51,0,0,1,.34,0,.87.87,0,0,1,.34.22,1,1,0,0,1,.21.36.49.49,0,0,1,0,.12,0,0,0,0,1,0,0h-.22l0-.08a.68.68,0,0,0-.23-.32.56.56,0,0,0-.36-.12.67.67,0,0,0-.35.1.63.63,0,0,0-.29.59v.15l.11-.07a.89.89,0,0,1,.48-.16h.06a.93.93,0,0,1,.44.11.84.84,0,0,1,.43.74.86.86,0,0,1-.1.41.54.54,0,0,1-.14.19.66.66,0,0,1-.2.16.88.88,0,0,1-1-.07.78.78,0,0,1-.31-.48,4,4,0,0,1,0-.68,3.37,3.37,0,0,1,0-.59.84.84,0,0,1,.22-.39A1,1,0,0,1,48.17,158.44Zm.36,1.15a.63.63,0,0,0-.22-.05.67.67,0,0,0-.29.08.54.54,0,0,0-.25.22.62.62,0,0,0-.09.32.36.36,0,0,0,0,.14.62.62,0,0,0,.23.35.66.66,0,0,0,.38.12.62.62,0,0,0,.49-.24.56.56,0,0,0,.13-.37.58.58,0,0,0-.11-.35A.54.54,0,0,0,48.53,159.59Z"/><path class="cls-9" d="M49.56,158.47l0,0h1.49v.25H49.77v.59h.38a2.08,2.08,0,0,1,.5.05.88.88,0,0,1,.61.59.66.66,0,0,1,0,.23.93.93,0,0,1-.13.45.92.92,0,0,1-.34.31.94.94,0,0,1-.47.12.82.82,0,0,1-.75-.4.4.4,0,0,1-.06-.13s.05,0,.13,0h.13l0,.07a.59.59,0,0,0,.5.25h.1a.72.72,0,0,0,.42-.22.57.57,0,0,0,.17-.39.78.78,0,0,0,0-.14.6.6,0,0,0-.19-.3.65.65,0,0,0-.29-.16,3.2,3.2,0,0,0-.55,0h-.4l0,0a.16.16,0,0,1,0-.11v-.87Z"/><path class="cls-9" d="M53,158.45a.07.07,0,0,1,.06,0,.13.13,0,0,1,.1,0l0,0v1.55h.2v.25h-.2V161H53v-.72H51.72a.1.1,0,0,1-.08-.1h0a.4.4,0,0,1,.1-.2,2.85,2.85,0,0,0,.22-.26l.41-.51.41-.51A2.5,2.5,0,0,1,53,158.45Zm0,1.05c0-.38,0-.57,0-.57s-.16.19-.46.57l-.45.56H53Z"/><path class="cls-9" d="M55.59,158.44h.13a.68.68,0,0,1,.27,0,.54.54,0,0,1,.25.22.6.6,0,0,1,.1.31.83.83,0,0,1,0,.13.52.52,0,0,1-.14.27,0,0,0,0,0,0,0l.07.06a.87.87,0,0,1,.31.37.68.68,0,0,1,.07.32.75.75,0,0,1-.26.59.92.92,0,0,1-1.26,0,.77.77,0,0,1-.26-.58v-.06a.77.77,0,0,1,.07-.27.85.85,0,0,1,.3-.37c.07-.05.09-.08.07-.09a.5.5,0,0,1-.1-.17.69.69,0,0,1,0-.24s0,0,0-.08a.62.62,0,0,1,.16-.3A.53.53,0,0,1,55.59,158.44Zm.3,1.18-.15,0a.61.61,0,0,0-.34.1.64.64,0,0,0-.24.25.52.52,0,0,0,0,.23.54.54,0,0,0,0,.24.65.65,0,0,0,.3.29.74.74,0,0,0,.28,0,.64.64,0,0,0,.27,0,.65.65,0,0,0,.26-.23.52.52,0,0,0,.1-.31.59.59,0,0,0,0-.14A.6.6,0,0,0,55.89,159.62Zm0-.87a.33.33,0,0,0-.19-.06.32.32,0,0,0-.28.17.32.32,0,0,0,0,.16.28.28,0,0,0,0,.15.31.31,0,0,0,.29.16.27.27,0,0,0,.18-.05.32.32,0,0,0,.15-.27A.29.29,0,0,0,55.92,158.75Z"/><path class="cls-9" d="M57.6,158.49a1.06,1.06,0,0,1,.5,0,.91.91,0,0,1,.62.62c0,.07,0,.29,0,.64a6.35,6.35,0,0,1,0,.64.77.77,0,0,1-.22.38.78.78,0,0,1-.38.23.7.7,0,0,1-.27,0,1,1,0,0,1-.28,0,.84.84,0,0,1-.55-.58c0-.07,0-.1,0-.11s0,0,0,0h.23l0,.09a.53.53,0,0,0,.21.31.61.61,0,0,0,.37.12.62.62,0,0,0,.63-.69V160l-.11.07a.92.92,0,0,1-.48.16h-.06a.93.93,0,0,1-.44-.11.86.86,0,0,1-.31-.32.8.8,0,0,1-.12-.43.82.82,0,0,1,.25-.6A.89.89,0,0,1,57.6,158.49Zm.43.25a.57.57,0,0,0-.18,0,.6.6,0,0,0-.4.15.63.63,0,0,0-.21.37.34.34,0,0,0,0,.09.59.59,0,0,0,.19.43.57.57,0,0,0,.43.19h.09a.64.64,0,0,0,.39-.22.56.56,0,0,0,.15-.39.68.68,0,0,0-.08-.31A.59.59,0,0,0,58,158.74Z"/><path class="cls-9" d="M59.72,158.45a.65.65,0,0,1,.2,0,.88.88,0,0,1,.47.11.8.8,0,0,1,.26.23,1,1,0,0,1,.16.32,3.84,3.84,0,0,1,0,.61,4,4,0,0,1,0,.67.83.83,0,0,1-.31.47A.89.89,0,0,1,60,161h-.06a.84.84,0,0,1-.49-.18.91.91,0,0,1-.3-.42,1.06,1.06,0,0,1,0-.19v-.5c0-.32,0-.51,0-.58a.85.85,0,0,1,.09-.27.78.78,0,0,1,.23-.26A1,1,0,0,1,59.72,158.45Zm.48.29a.52.52,0,0,0-.23-.05h-.21a.64.64,0,0,0-.44.51,4.74,4.74,0,0,0,0,.51,5.23,5.23,0,0,0,0,.53.59.59,0,0,0,.22.37.62.62,0,0,0,.4.15.7.7,0,0,0,.25-.05.62.62,0,0,0,.27-.23.5.5,0,0,0,.09-.2,1.74,1.74,0,0,0,0-.38v-.76l0-.1a.68.68,0,0,0-.13-.18A.59.59,0,0,0,60.2,158.74Z"/><path class="cls-9" d="M62.92,158.45a.65.65,0,0,1,.2,0,.91.91,0,0,1,.47.11.8.8,0,0,1,.26.23,1,1,0,0,1,.16.32,5.87,5.87,0,0,1,0,.61,4,4,0,0,1,0,.67.83.83,0,0,1-.31.47.89.89,0,0,1-.54.19h-.06a.84.84,0,0,1-.49-.18.91.91,0,0,1-.3-.42,1.06,1.06,0,0,1,0-.19v-.5c0-.32,0-.51,0-.58a.85.85,0,0,1,.09-.27.78.78,0,0,1,.23-.26A1,1,0,0,1,62.92,158.45Zm.48.29a.52.52,0,0,0-.23-.05H63a.64.64,0,0,0-.44.51,4.74,4.74,0,0,0,0,.51,5.23,5.23,0,0,0,0,.53.59.59,0,0,0,.22.37.62.62,0,0,0,.4.15.7.7,0,0,0,.25-.05.62.62,0,0,0,.27-.23.5.5,0,0,0,.09-.2,1.74,1.74,0,0,0,0-.38v-.76l-.05-.1a.68.68,0,0,0-.13-.18A.59.59,0,0,0,63.4,158.74Z"/><path class="cls-9" d="M65.15,158.46h.16a.84.84,0,0,1,.53.21.91.91,0,0,1,.29.49s0,.09,0,.15a.88.88,0,0,1-.17.5,1.12,1.12,0,0,1-.18.2c-.07.07-.23.2-.49.41l-.43.36h1.28V161H64.54l-.14,0a.12.12,0,0,1,0-.09.13.13,0,0,1,0-.1l.62-.51.66-.57a.63.63,0,0,0,.2-.42s0,0,0-.09a.59.59,0,0,0-.18-.33.7.7,0,0,0-.34-.18l-.11,0a.63.63,0,0,0-.56.36.26.26,0,0,0,0,.14s0,0,0,0H64.5c-.09,0-.13,0-.13,0a0,0,0,0,1,0,0v-.05l0-.06a.76.76,0,0,1,.26-.4A1,1,0,0,1,65.15,158.46Z"/><path class="cls-9" d="M66.49,158.68v-.25H68a.24.24,0,0,1,.15,0,.06.06,0,0,1,0,.06.73.73,0,0,1-.11.28c-.08.15-.26.48-.56,1L66.83,161h-.15c-.09,0-.14,0-.14,0s.21-.4.64-1.17l.65-1.15H66.49Z"/><path class="cls-9" d="M69.63,158.68v-.25h1.5a.24.24,0,0,1,.15,0,.06.06,0,0,1,0,.06,1,1,0,0,1-.11.28c-.08.15-.26.48-.56,1L70,161h-.15c-.1,0-.14,0-.14,0s.21-.4.64-1.17l.65-1.15H69.63Z"/><path class="cls-9" d="M72.39,158.44h.13a.78.78,0,0,1,.28,0,.56.56,0,0,1,.24.22.52.52,0,0,1,.1.31.83.83,0,0,1,0,.13.52.52,0,0,1-.14.27,0,0,0,0,0,0,0l.07.06a.81.81,0,0,1,.31.37.68.68,0,0,1,.07.32.75.75,0,0,1-.26.59.92.92,0,0,1-1.26,0,.77.77,0,0,1-.26-.58v-.06a.77.77,0,0,1,.07-.27.85.85,0,0,1,.3-.37c.07-.05.09-.08.08-.09a.38.38,0,0,1-.11-.17.69.69,0,0,1,0-.24s0,0,0-.08a.62.62,0,0,1,.16-.3A.53.53,0,0,1,72.39,158.44Zm.3,1.18-.15,0a.61.61,0,0,0-.34.1A.64.64,0,0,0,72,160a.52.52,0,0,0,0,.23.54.54,0,0,0,0,.24.65.65,0,0,0,.3.29.74.74,0,0,0,.28,0,.64.64,0,0,0,.27,0,.65.65,0,0,0,.26-.23.52.52,0,0,0,.1-.31.59.59,0,0,0,0-.14A.6.6,0,0,0,72.69,159.62Zm0-.87a.33.33,0,0,0-.19-.06.32.32,0,0,0-.28.17.32.32,0,0,0,0,.16.28.28,0,0,0,0,.15.32.32,0,0,0,.29.16.27.27,0,0,0,.18-.05.32.32,0,0,0,.15-.27A.29.29,0,0,0,72.72,158.75Z"/><path class="cls-9" d="M74.42,158.45a.68.68,0,0,1,.21,0,.93.93,0,0,1,.47.11.77.77,0,0,1,.25.23.81.81,0,0,1,.16.32,3.34,3.34,0,0,1,0,.61,4,4,0,0,1,0,.67.85.85,0,0,1-.32.47.88.88,0,0,1-.53.19h-.07a.86.86,0,0,1-.49-.18.91.91,0,0,1-.3-.42.58.58,0,0,1,0-.19c0-.06,0-.23,0-.5s0-.51,0-.58a.69.69,0,0,1,.1-.27.75.75,0,0,1,.22-.26A1,1,0,0,1,74.42,158.45Zm.49.29a.6.6,0,0,0-.24-.05h-.2a.65.65,0,0,0-.45.51c0,.08,0,.25,0,.51s0,.44,0,.53a.67.67,0,0,0,.63.52.74.74,0,0,0,.25-.05.62.62,0,0,0,.27-.23,1.13,1.13,0,0,0,.09-.2,2.8,2.8,0,0,0,0-.38v-.76l0-.1a.73.73,0,0,0-.14-.18A.68.68,0,0,0,74.91,158.74Z"/><path class="cls-9" d="M209.07,155v-.57h4.55V155h-2v5.7H211V155Z"/><path class="cls-9" d="M217.11,154.49h.54a3.16,3.16,0,0,1,1.8.65,3.22,3.22,0,0,1,1.09,1.63,2.87,2.87,0,0,1,.1.85,3.21,3.21,0,0,1-.13.93,3.39,3.39,0,0,1-.87,1.36,3.08,3.08,0,0,1-1.4.75,2.84,2.84,0,0,1-.71.08,2.89,2.89,0,0,1-1-.14,3.09,3.09,0,0,1-2.06-2.09,3.17,3.17,0,0,1-.09-.89,3.35,3.35,0,0,1,.09-.9,3.27,3.27,0,0,1,1-1.49A3.34,3.34,0,0,1,217.11,154.49Zm.91.65a2.22,2.22,0,0,0-1.26.07,2.4,2.4,0,0,0-.89.5,2.44,2.44,0,0,0-.61.79,2.39,2.39,0,0,0-.27,1.11,2.44,2.44,0,0,0,.75,1.78,2.39,2.39,0,0,0,1.74.75h0a2.55,2.55,0,0,0,2.42-1.8,2.54,2.54,0,0,0,.1-.76,2,2,0,0,0-.09-.65,2.63,2.63,0,0,0-.75-1.17A2.54,2.54,0,0,0,218,155.14Z"/><path class="cls-9" d="M221.43,155v-.57H226V155h-2v5.7h-.62V155Z"/><path class="cls-9" d="M229.2,154.5a.48.48,0,0,1,.18-.08.46.46,0,0,1,.17.08,9.28,9.28,0,0,1,.58,1.36q.51,1.3,1.14,3l.67,1.77a.09.09,0,0,1,0,.05s-.1,0-.31,0h-.34c-.23-.67-.48-1.32-.74-2h-2.37c-.09.22-.21.54-.37,1s-.28.76-.36,1h-.32c-.22,0-.33,0-.33,0s.39-1,1.15-3.07S229.13,154.56,229.2,154.5Zm.69,2.44c-.32-.83-.48-1.25-.49-1.26h0a7,7,0,0,0-.48,1.15q-.45,1.23-.45,1.26a5.43,5.43,0,0,0,.93,0h.94Z"/><path class="cls-9" d="M232.76,160.73v-6.31h.61v5.69h3.75v.62Z"/><path class="cls-9" d="M237.88,157.67v-.83h.78v.83Zm0,3.07v-.82h.78v.82Z"/><path class="cls-9" d="M244,154.46h.19a3,3,0,0,1,.82.09,2.18,2.18,0,0,1,.84.53,2.07,2.07,0,0,1,.49.88,1.76,1.76,0,0,1,.07.28.08.08,0,0,1-.06.08,1.14,1.14,0,0,1-.25,0h-.3l-.05-.19a1.52,1.52,0,0,0-.54-.79,1.4,1.4,0,0,0-.87-.29,1.72,1.72,0,0,0-.86.24,1.54,1.54,0,0,0-.69,1.43v.37l.25-.17a2.21,2.21,0,0,1,1.16-.39h.15a2,2,0,0,1,1.07.28,2,2,0,0,1,1,1.78,2.25,2.25,0,0,1-.23,1,2.13,2.13,0,0,1-.36.48,2.09,2.09,0,0,1-.46.38,2.23,2.23,0,0,1-2.41-.16,2,2,0,0,1-.76-1.17,10.57,10.57,0,0,1-.08-1.66,7.67,7.67,0,0,1,.07-1.41,2,2,0,0,1,.52-1A2.5,2.5,0,0,1,244,154.46Zm.87,2.78a1.58,1.58,0,0,0-.55-.11,1.69,1.69,0,0,0-.7.18,1.51,1.51,0,0,0-.6.55,1.4,1.4,0,0,0-.22.76,1.2,1.2,0,0,0,.05.36,1.59,1.59,0,0,0,.57.84,1.51,1.51,0,0,0,2.1-.29,1.4,1.4,0,0,0,.32-.9,1.51,1.51,0,0,0-.26-.84A1.39,1.39,0,0,0,244.82,157.24Z"/><path class="cls-9" d="M248.79,154.49a2,2,0,0,1,.5-.07,2.35,2.35,0,0,1,1.14.28,2,2,0,0,1,.62.55,2.08,2.08,0,0,1,.39.77,10.21,10.21,0,0,1,.06,1.5,9.64,9.64,0,0,1-.07,1.62,2.13,2.13,0,0,1-.77,1.14,2.05,2.05,0,0,1-1.3.45h-.15a2.13,2.13,0,0,1-1.19-.44,2.11,2.11,0,0,1-.73-1,2.14,2.14,0,0,1-.08-.44c0-.16,0-.57,0-1.23a12.82,12.82,0,0,1,0-1.41,2,2,0,0,1,.22-.65,1.75,1.75,0,0,1,.55-.62A2.39,2.39,0,0,1,248.79,154.49Zm1.19.69a1.31,1.31,0,0,0-.58-.12,2,2,0,0,0-.5,0,1.51,1.51,0,0,0-1.07,1.21,16,16,0,0,0,0,2.53,1.57,1.57,0,0,0,1.51,1.27,1.54,1.54,0,0,0,.6-.13,1.57,1.57,0,0,0,.66-.54,1.74,1.74,0,0,0,.22-.5,5.77,5.77,0,0,0,.05-.92v-1.85l-.11-.23a1.45,1.45,0,0,0-.33-.44A1.53,1.53,0,0,0,250,155.18Z"/><path class="cls-9" d="M252.26,160.73v-.83h.79v.83Z"/><path class="cls-9" d="M255.41,154.49a2,2,0,0,1,.5-.07,2.34,2.34,0,0,1,1.13.28,2,2,0,0,1,.63.55,2.22,2.22,0,0,1,.38.77,8.41,8.41,0,0,1,.07,1.5,9.16,9.16,0,0,1-.08,1.62,2.15,2.15,0,0,1-2.06,1.59h-.15a2.11,2.11,0,0,1-1.92-1.47,1.63,1.63,0,0,1-.08-.44c0-.16,0-.57,0-1.23s0-1.24,0-1.41a2,2,0,0,1,.23-.65,1.75,1.75,0,0,1,.55-.62A2.3,2.3,0,0,1,255.41,154.49Zm1.18.69a1.25,1.25,0,0,0-.58-.12,1.92,1.92,0,0,0-.49,0,1.53,1.53,0,0,0-1.08,1.21c0,.2,0,.62,0,1.26s0,1.07,0,1.27a1.54,1.54,0,0,0,.55.91,1.48,1.48,0,0,0,1,.36,1.54,1.54,0,0,0,.6-.13,1.63,1.63,0,0,0,.66-.54,2.07,2.07,0,0,0,.22-.5,6.19,6.19,0,0,0,0-.92v-1.85l-.1-.23a1.63,1.63,0,0,0-.33-.44A1.57,1.57,0,0,0,256.59,155.18Z"/><path class="cls-9" d="M260.48,154.49a2,2,0,0,1,.5-.07,2.31,2.31,0,0,1,1.13.28,2,2,0,0,1,.63.55,2.22,2.22,0,0,1,.38.77,8.41,8.41,0,0,1,.07,1.5,9.16,9.16,0,0,1-.08,1.62,2.15,2.15,0,0,1-2.06,1.59h-.15a2.11,2.11,0,0,1-1.92-1.47,1.63,1.63,0,0,1-.08-.44c0-.16,0-.57,0-1.23s0-1.24,0-1.41a2,2,0,0,1,.23-.65,1.75,1.75,0,0,1,.55-.62A2.3,2.3,0,0,1,260.48,154.49Zm1.18.69a1.25,1.25,0,0,0-.58-.12,1.92,1.92,0,0,0-.49,0,1.53,1.53,0,0,0-1.08,1.21c0,.2,0,.62,0,1.26s0,1.07,0,1.27a1.54,1.54,0,0,0,.55.91,1.48,1.48,0,0,0,1,.36,1.54,1.54,0,0,0,.6-.13,1.63,1.63,0,0,0,.66-.54,2.07,2.07,0,0,0,.22-.5,6.19,6.19,0,0,0,0-.92v-1.85l-.1-.23a1.45,1.45,0,0,0-.33-.44A1.57,1.57,0,0,0,261.66,155.18Z"/><path class="cls-9" d="M267.62,154.42l.36,0a3.56,3.56,0,0,1,1.56.36,2.68,2.68,0,0,1,.49.28c.16.1.24.17.24.2a1.38,1.38,0,0,1-.2.25l-.2.22-.19-.16a2.69,2.69,0,0,0-1.63-.52,2.72,2.72,0,0,0-1.28.31,2,2,0,0,0-.56.44,2.17,2.17,0,0,0-.44.56l-.14.25h3.24v.66h-3.4v.58h3.15v.7h-1.47a7.49,7.49,0,0,0-1.48.05.89.89,0,0,0,.18.33,2.61,2.61,0,0,0,.36.42,2.55,2.55,0,0,0,1.49.71,2.17,2.17,0,0,0,.38,0,2.76,2.76,0,0,0,1.62-.54l.19-.14.2.23.2.23-.16.14a3.31,3.31,0,0,1-1.22.59,3.47,3.47,0,0,1-.82.1,3.57,3.57,0,0,1-.92-.11,3.13,3.13,0,0,1-2-1.7l-.16-.34h-1v-.7h.86v-.58h-.61v-.66H265l.16-.34A3.1,3.1,0,0,1,267.62,154.42Z"/><path class="cls-9" d="M44.58,127.39a.24.24,0,0,1,.36,0,11.27,11.27,0,0,1,.57,1.35c.34.88.72,1.87,1.14,3l.67,1.77a.07.07,0,0,1,0,0s-.1,0-.31,0h-.33c-.24-.66-.49-1.32-.74-2H43.57c-.08.22-.21.54-.36,1s-.28.76-.37,1h-.32c-.22,0-.32,0-.32,0s.38-1.06,1.15-3.07S44.52,127.45,44.58,127.39Zm.69,2.44c-.32-.84-.48-1.25-.48-1.26h0a7,7,0,0,0-.48,1.15c-.3.82-.45,1.24-.45,1.25a3.85,3.85,0,0,0,.93,0h.94Z"/><path class="cls-9" d="M48.23,127.4c.06-.06.21-.09.47-.09h.59l.89,0a2,2,0,0,1,.45.1,3.1,3.1,0,0,1,2.09,2.15,2.57,2.57,0,0,1,.11.86,3,3,0,0,1-.12.9,3,3,0,0,1-.79,1.3,3.19,3.19,0,0,1-1.28.78,2.32,2.32,0,0,1-.45.1c-.13,0-.43,0-.89,0h-.6c-.29,0-.45,0-.49,0a1,1,0,0,1-.06-.45c0-.27,0-1.14,0-2.6v-3Zm2.1.61a4,4,0,0,0-1-.09h-.65V133l.71,0a5.24,5.24,0,0,0,1-.1,2.57,2.57,0,0,0,1.33-.94,2.51,2.51,0,0,0,.49-1.5,2.46,2.46,0,0,0-.31-1.22,2.82,2.82,0,0,0-.44-.54,2.77,2.77,0,0,0-.55-.44A2.22,2.22,0,0,0,50.33,128Z"/><path class="cls-9" d="M53.57,129.37v-2h.62v2a19.65,19.65,0,0,0,.06,2.23,2,2,0,0,0,.54.88,1.87,1.87,0,0,0,.9.5,1.47,1.47,0,0,0,.45.05,1.9,1.9,0,0,0,1.23-.44,2,2,0,0,0,.69-1.15,16.42,16.42,0,0,0,.07-2.17v-1.89h.61v2.08q0,1.45,0,1.8a2.21,2.21,0,0,1-.08.54,2.61,2.61,0,0,1-1.72,1.74,2.48,2.48,0,0,1-.78.11,2.24,2.24,0,0,1-.68-.09,2.82,2.82,0,0,1-.95-.51,2.43,2.43,0,0,1-.88-1.61C53.58,131.18,53.57,130.5,53.57,129.37Z"/><path class="cls-9" d="M59.47,133.62v-6.31h.61V133h3.75v.63Z"/><path class="cls-9" d="M64.65,127.92v-.57H69.2v.57h-2v5.71h-.62v-5.71Z"/><path class="cls-9" d="M70.08,127.42l.1-.11h4.1v.61H70.59V131h2v.61h-2V133h3.69v.56H70.15l-.09-.08A.9.9,0,0,1,70,133c0-.26,0-1.12,0-2.58v-2.94Z"/><ellipse class="cls-10" cx="227.36" cy="70.59" rx="33.43" ry="33.51"/><path class="cls-11" d="M250,90.33a30.07,30.07,0,1,1-3-42.48"/><path class="cls-11" d="M233.44,44.35A26.94,26.94,0,1,1,201.18,64.5"/><path class="cls-11" d="M215.09,90.81a23.65,23.65,0,1,1,32.43-7.92"/><path class="cls-11" d="M242.62,75.46a15.58,15.58,0,0,1-.91,2.27,16.06,16.06,0,1,1,1.1-11.33"/><path class="cls-11" d="M207.87,65.66c0-.18.1-.35.14-.52a19.9,19.9,0,0,1,37.64-1.94"/><path class="cls-11" d="M244.59,80.27a19.88,19.88,0,0,1-31.45,4.58"/><polygon class="cls-1" points="204.89 86.12 213.05 55.94 221.08 86.12 204.89 86.12"/><rect class="cls-1" x="222.91" y="54.76" width="7.8" height="31.36"/><path class="cls-1" d="M234.72,54.79h4.7a21.3,21.3,0,0,1,5.33.43A6.07,6.07,0,0,1,248.17,58a9.55,9.55,0,0,1,1.31,5.16,10.55,10.55,0,0,1-.9,4.49,6.43,6.43,0,0,1-2.6,2.93,9.27,9.27,0,0,1-4.65,1l8.49,14.53h-3.75l-8.49-14.53h0V86.08h-2.86Z"/><path class="cls-9" d="M208.1,65.33a4.1,4.1,0,0,1,1-.1,2.85,2.85,0,0,1,.73.07,3.54,3.54,0,0,1,1.45.7,3.6,3.6,0,0,1,1,1.22,2.23,2.23,0,0,1,.24.56c0,.08-.16.12-.47.12h-.45l-.25-.37a3.06,3.06,0,0,0-1.23-1.1,3,3,0,0,0-1-.23h-.2a2.44,2.44,0,0,0-1.38.36,1.57,1.57,0,0,0-.69,1,3.19,3.19,0,0,0,0,.33,1.24,1.24,0,0,0,.45.9,3.76,3.76,0,0,0,1.7.87,8.5,8.5,0,0,1,2.55,1,2,2,0,0,1,.83,1.59,1.47,1.47,0,0,1,0,.25,2,2,0,0,1-.15.69,2.46,2.46,0,0,1-.45.61,3.1,3.1,0,0,1-1.18.79,4,4,0,0,1-1.48.28,5,5,0,0,1-.8-.08,3.69,3.69,0,0,1-1.47-.7,3.48,3.48,0,0,1-1-1.24,2.27,2.27,0,0,1-.23-.57c0-.09.15-.13.46-.13s.52,0,.54.1a3.7,3.7,0,0,0,.2.37A2.78,2.78,0,0,0,209.1,74a2.94,2.94,0,0,0,.63-.08,3,3,0,0,0,1.25-.61,1.23,1.23,0,0,0,.46-.93.25.25,0,0,0,0-.08v-.07a1.06,1.06,0,0,0-.35-.58,3.61,3.61,0,0,0-1.63-.82,11.1,11.1,0,0,1-1.81-.6,3.57,3.57,0,0,1-1-.72,2.34,2.34,0,0,1-.5-.62,2.11,2.11,0,0,1-.22-1,2.45,2.45,0,0,1,.78-1.86A3,3,0,0,1,208.1,65.33Z"/><path class="cls-9" d="M217.94,65.26h.83a4.8,4.8,0,0,1,2.78,1,5.07,5.07,0,0,1,1.7,2.52,5,5,0,0,1,.15,1.34,4.75,4.75,0,0,1-.2,1.43,5.12,5.12,0,0,1-1.35,2.11,4.76,4.76,0,0,1-2.17,1.18,4.29,4.29,0,0,1-1.1.12,4.51,4.51,0,0,1-1.51-.22,4.76,4.76,0,0,1-3.18-3.26,4.45,4.45,0,0,1-.15-1.36,4.83,4.83,0,0,1,.15-1.41,4.94,4.94,0,0,1,1.51-2.31A5.2,5.2,0,0,1,217.94,65.26Zm1.39,1a3.19,3.19,0,0,0-.8-.1,3.91,3.91,0,0,0-1.14.2,4,4,0,0,0-1.38.78,4.11,4.11,0,0,0-1,1.22,3.9,3.9,0,0,0-.41,1.74,3.77,3.77,0,0,0,1.16,2.75A3.71,3.71,0,0,0,218.5,74h.07a3.86,3.86,0,0,0,3.89-4,3.29,3.29,0,0,0-.13-1,4.17,4.17,0,0,0-1.16-1.82A4,4,0,0,0,219.33,66.28Z"/><path class="cls-9" d="M224.54,68.37V65.23h1v3.09a29.77,29.77,0,0,0,.1,3.45,3.15,3.15,0,0,0,.84,1.37,3,3,0,0,0,1.39.79,2.81,2.81,0,0,0,.7.08,2.93,2.93,0,0,0,1.9-.69,3,3,0,0,0,1.08-1.78,28.22,28.22,0,0,0,.1-3.37V65.23h1l0,3.22c0,1.51,0,2.45,0,2.8a2.89,2.89,0,0,1-.12.84,4.05,4.05,0,0,1-2.67,2.7,3.83,3.83,0,0,1-1.21.17,3.58,3.58,0,0,1-1.05-.13A4.22,4.22,0,0,1,226,74a3.53,3.53,0,0,1-1-1.24,3.77,3.77,0,0,1-.39-1.25C224.56,71.17,224.54,70.11,224.54,68.37Z"/><path class="cls-9" d="M233.82,65.36a.47.47,0,0,1,.33-.11.37.37,0,0,1,.23.06q.15.15,2.73,4l2.65,3.87,0-4v-4h1V69.9c0,3.1,0,4.71-.08,4.84a.39.39,0,0,1-.4.25.49.49,0,0,1-.2,0,46.55,46.55,0,0,1-2.81-4L234.6,67.1c0,.87,0,2.18,0,3.93s0,3.07,0,4h-.89V70.22c0-2.34,0-3.71,0-4.13A1.42,1.42,0,0,1,233.82,65.36Z"/><path class="cls-9" d="M242,65.3a1.13,1.13,0,0,1,.71-.14l.92,0c.74,0,1.21,0,1.39.06a3,3,0,0,1,.69.16A4.84,4.84,0,0,1,249,68.73a4.45,4.45,0,0,1,.16,1.34,4.76,4.76,0,0,1-.18,1.4,5,5,0,0,1-1.22,2,4.84,4.84,0,0,1-2,1.2,3.25,3.25,0,0,1-.7.16c-.2,0-.66,0-1.38,0h-.94a1.66,1.66,0,0,1-.75-.08,1.71,1.71,0,0,1-.1-.7c0-.42,0-1.77,0-4V65.43Zm3.24,1a6.29,6.29,0,0,0-1.49-.14h-1V74l1.1-.05a9,9,0,0,0,1.55-.16,3.9,3.9,0,0,0,2-1.47A3.81,3.81,0,0,0,248.2,70a3.85,3.85,0,0,0-.48-1.89,5.43,5.43,0,0,0-1.53-1.54A3.66,3.66,0,0,0,245.25,66.25Z"/><path class="cls-9" d="M42.37,90.11h.74L44,92.49Q45,94.89,45,95a19.24,19.24,0,0,0,1-2.4l1-2.45h.89c.2,0,.3,0,.3,0s-.21.55-.63,1.62L46.23,95c-.44,1.11-.68,1.71-.73,1.81a.5.5,0,0,1-.48.28.54.54,0,0,1-.26-.07.34.34,0,0,1-.19-.15s-.34-.84-1-2.41-.93-2.37-1-2.41l-.39-1-.37-.91Z"/><path class="cls-9" d="M49.32,90.18l.15-.11h4.59v1.11H50.15V94h2v1.11h-2V96h3.91v1.11H51.73a19.45,19.45,0,0,1-2.43-.07.34.34,0,0,1-.18-.26A30,30,0,0,1,49,93.61q0-3.1.06-3.21A.91.91,0,0,1,49.32,90.18Z"/><path class="cls-9" d="M55,90.39a.53.53,0,0,1,.44-.27c.14,0,.31.12.5.35s.74,1,1.62,2.2l1.74,2.41v-5h1.11v3.32c0,1.74,0,2.77,0,3.08s-.08.49-.19.56h0a.47.47,0,0,1-.3.08.54.54,0,0,1-.32-.08c-.05,0-.65-.84-1.82-2.46L56,92.23l0,2.46v2.48H54.89V90.54Z"/><path class="cls-9" d="M64.3,91.18V90.07h2.17v7.08H65.36v-6Z"/><path class="cls-9" d="M69.35,90.15a1.29,1.29,0,0,1,.44-.05,1.88,1.88,0,0,1,.72.11,1.61,1.61,0,0,1,.89.83,1.81,1.81,0,0,1,.15.76,1.68,1.68,0,0,1-.14.72l-.15.29.34.34a2.33,2.33,0,0,1,.71,1.31,1.5,1.5,0,0,1,0,.35,2.21,2.21,0,0,1-.47,1.34,2.5,2.5,0,0,1-1.21.88,2.56,2.56,0,0,1-.87.11,2.32,2.32,0,0,1-1.68-.64,2.34,2.34,0,0,1-.66-1,2.39,2.39,0,0,1-.12-.74,2.26,2.26,0,0,1,.74-1.63l.34-.34-.15-.3a1.73,1.73,0,0,1-.13-.73,1.79,1.79,0,0,1,.11-.7A1.6,1.6,0,0,1,69.35,90.15Zm.75,3.45-.27,0-.32.06a1.37,1.37,0,0,0-.74.44,1.15,1.15,0,0,0-.28.75,1,1,0,0,0,.11.47,1.24,1.24,0,0,0,.5.56,1.37,1.37,0,0,0,.74.2,1.34,1.34,0,0,0,1-.41,1.12,1.12,0,0,0,.36-.82,1.09,1.09,0,0,0-.41-.85A1.34,1.34,0,0,0,70.1,93.6Zm.29-2a.64.64,0,0,0-.55-.4.57.57,0,0,0-.42.21.63.63,0,0,0-.2.42s0,0,0,0a.1.1,0,0,0,0,0,.59.59,0,0,0,.23.35.64.64,0,0,0,.39.15H70a.74.74,0,0,0,.34-.22.46.46,0,0,0,.09-.57Z"/><path class="cls-9" d="M73.23,97.11V95.9h1.24v1.21Z"/><path class="cls-9" d="M77.2,90.16a2.58,2.58,0,0,1,.6-.07,2.45,2.45,0,0,1,1.48.48,2.5,2.5,0,0,1,.92,1.29,9.46,9.46,0,0,1,.08,1.76c0,.69,0,1.12,0,1.3a3.86,3.86,0,0,1-.09.49,2.6,2.6,0,0,1-.93,1.23,2.42,2.42,0,0,1-1.45.47,2.47,2.47,0,0,1-1.53-.51,2.38,2.38,0,0,1-.87-1.32,9.23,9.23,0,0,1-.08-1.68c0-.76,0-1.25,0-1.48a2.36,2.36,0,0,1,.24-.74,2.05,2.05,0,0,1,.66-.76A2.42,2.42,0,0,1,77.2,90.16Zm1.18,1.17a1.2,1.2,0,0,0-.57-.13,1.37,1.37,0,0,0-.72.21,1.31,1.31,0,0,0-.51.56l-.13.26V93.6c0,.66,0,1.06,0,1.2a1,1,0,0,0,.09.36,1.38,1.38,0,0,0,.52.62,1.42,1.42,0,0,0,.74.22,1.3,1.3,0,0,0,.94-.4,1.14,1.14,0,0,0,.34-.58,9.88,9.88,0,0,0,.06-1.42,11.75,11.75,0,0,0-.05-1.38,1.32,1.32,0,0,0-.3-.57A1.8,1.8,0,0,0,78.38,91.33Z"/><path class="cls-9" d="M82.91,90.18a4.07,4.07,0,0,1,.57-.09h.26a2.29,2.29,0,0,1,1.56.63,2.34,2.34,0,0,1,.48.63,2.52,2.52,0,0,1,.26.74l0,.19h-.58c-.39,0-.59,0-.59-.06a.78.78,0,0,0-.11-.3,1.3,1.3,0,0,0-.5-.54,1.28,1.28,0,0,0-.69-.19,1.32,1.32,0,0,0-.78.25,1.23,1.23,0,0,0-.38.45,1.13,1.13,0,0,0-.15.53v.19l.25-.12a2.59,2.59,0,0,1,1.06-.23,2.53,2.53,0,0,1,1.52.49A2.42,2.42,0,0,1,86,94.05a3.1,3.1,0,0,1,0,1.31,2.49,2.49,0,0,1-2.4,1.79,2.59,2.59,0,0,1-1.2-.29,2.19,2.19,0,0,1-.57-.44,2.53,2.53,0,0,1-.44-.54,2.06,2.06,0,0,1-.25-.72,15.2,15.2,0,0,1,0-1.54c0-.84,0-1.38,0-1.6a2,2,0,0,1,.27-.73,2.17,2.17,0,0,1,.64-.69A2.41,2.41,0,0,1,82.91,90.18ZM84.75,94a1.4,1.4,0,0,0-.47-.43,1.34,1.34,0,0,0-.65-.17,1,1,0,0,0-.35.05,1.33,1.33,0,0,0-.75.49,1.3,1.3,0,0,0-.25.79,1.35,1.35,0,0,0,1.91,1.2A1.28,1.28,0,0,0,85,94.72,1.32,1.32,0,0,0,84.75,94Z"/><path class="cls-9" d="M90,95.19v-1h5v1Z"/><path class="cls-9" d="M99.1,90.17a1.24,1.24,0,0,1,.59-.1l.71,0a6.79,6.79,0,0,1,1.58.14,3.48,3.48,0,0,1,2.48,2.29,3.41,3.41,0,0,1,.13,1,3.59,3.59,0,0,1-.11,1A3.55,3.55,0,0,1,102,97a1.59,1.59,0,0,1-.46.1l-1.15,0-1.27,0L99,97a.62.62,0,0,1-.17-.29c0-.1,0-1.15,0-3.14,0-1.61,0-2.55,0-2.83a.66.66,0,0,1,.23-.55Zm2.57,1.12a4.57,4.57,0,0,0-1-.09l-.75,0v4.9l.7,0a4.31,4.31,0,0,0,1.24-.19,2.47,2.47,0,0,0,.88-.54,2.27,2.27,0,0,0,.76-1.75,2.24,2.24,0,0,0-.48-1.42A2.57,2.57,0,0,0,101.67,91.29Z"/><path class="cls-9" d="M105.41,97.15V90.07h1l0,.87c0,.48,0,1.66,0,3.54v2.67Z"/><path class="cls-9" d="M107.36,90.39a.52.52,0,0,1,.52-.3.85.85,0,0,1,.23,0c.07,0,.62.68,1.68,1.95S111.37,94,111.38,94s.57-.64,1.63-1.91,1.62-1.93,1.68-2a.79.79,0,0,1,.24-.05.55.55,0,0,1,.29.08h0c.12,0,.19.21.22.46s0,1.06,0,2.42v4.11h-1.11c0-.55,0-1.39,0-2.52s0-2,0-2.52l-1.29,1.59a13.79,13.79,0,0,1-1.45,1.68.52.52,0,0,1-.23.05.53.53,0,0,1-.36-.13c-.1-.1-.55-.65-1.35-1.66l-1.23-1.54c0,.56,0,1.41,0,2.53s0,2,0,2.52h-1.11V93.81C107.32,91.59,107.33,90.45,107.36,90.39Z"/><path class="cls-9" d="M121.32,90.19a2.46,2.46,0,0,1,2.3.68,2.33,2.33,0,0,1,.72,1.72,2,2,0,0,1-.15.79,2.94,2.94,0,0,1-.53.84,11.67,11.67,0,0,1-1.23,1.11l-.91.74h2.79v1.1h-4.62l-.17-.16a.49.49,0,0,1-.15-.36,1,1,0,0,1,0-.24A13.78,13.78,0,0,1,121.08,95c.79-.66,1.3-1.09,1.5-1.28a2.8,2.8,0,0,0,.49-.58,1,1,0,0,0,.12-.54,1.22,1.22,0,0,0-.63-1.1,1.3,1.3,0,0,0-.71-.2,1.25,1.25,0,0,0-.51.1,1.87,1.87,0,0,0-.44.33,1.18,1.18,0,0,0-.3.42l-.09.23h-1.07s-.07,0-.07-.1a1.53,1.53,0,0,1,.12-.44,3,3,0,0,1,.25-.51A2.51,2.51,0,0,1,121.32,90.19Z"/><path class="cls-9" d="M127.09,90.16a2.52,2.52,0,0,1,.6-.07,2.45,2.45,0,0,1,1.48.48,2.55,2.55,0,0,1,.92,1.29,10.54,10.54,0,0,1,.08,1.76c0,.69,0,1.12,0,1.3a2.66,2.66,0,0,1-.1.49,2.52,2.52,0,0,1-.92,1.23,2.42,2.42,0,0,1-1.45.47,2.47,2.47,0,0,1-1.53-.51,2.33,2.33,0,0,1-.87-1.32,8.86,8.86,0,0,1-.09-1.68,14.18,14.18,0,0,1,0-1.48,2.27,2.27,0,0,1,.89-1.5A2.53,2.53,0,0,1,127.09,90.16Zm1.18,1.17a1.2,1.2,0,0,0-.57-.13,1.37,1.37,0,0,0-.72.21,1.25,1.25,0,0,0-.51.56l-.13.26V93.6c0,.66,0,1.06,0,1.2a1.2,1.2,0,0,0,.08.36,1.4,1.4,0,0,0,.53.62,1.42,1.42,0,0,0,.74.22,1.3,1.3,0,0,0,.94-.4A1.14,1.14,0,0,0,129,95,9.88,9.88,0,0,0,129,93.6a11.75,11.75,0,0,0,0-1.38,1.32,1.32,0,0,0-.3-.57A1.8,1.8,0,0,0,128.27,91.33Z"/><path class="cls-9" d="M131,97.11V95.9h1.24v1.21Z"/><path class="cls-9" d="M135,90.16a2.52,2.52,0,0,1,.6-.07,2.45,2.45,0,0,1,1.48.48,2.55,2.55,0,0,1,.92,1.29,9.46,9.46,0,0,1,.08,1.76c0,.69,0,1.12,0,1.3a2.66,2.66,0,0,1-.1.49,2.52,2.52,0,0,1-.92,1.23,2.42,2.42,0,0,1-1.45.47,2.47,2.47,0,0,1-1.53-.51,2.38,2.38,0,0,1-.87-1.32,8.86,8.86,0,0,1-.09-1.68,14.18,14.18,0,0,1,.05-1.48,2.27,2.27,0,0,1,.89-1.5A2.53,2.53,0,0,1,135,90.16Zm1.18,1.17a1.2,1.2,0,0,0-.57-.13,1.37,1.37,0,0,0-.72.21,1.25,1.25,0,0,0-.51.56l-.13.26V93.6c0,.66,0,1.06,0,1.2a1.2,1.2,0,0,0,.08.36,1.47,1.47,0,0,0,.53.62,1.42,1.42,0,0,0,.74.22,1.3,1.3,0,0,0,.94-.4,1.14,1.14,0,0,0,.34-.58,9.88,9.88,0,0,0,.06-1.42,11.75,11.75,0,0,0-.05-1.38,1.32,1.32,0,0,0-.3-.57A1.8,1.8,0,0,0,136.17,91.33Z"/><path class="cls-9" d="M140.7,90.18a4.07,4.07,0,0,1,.57-.09h.25a2.29,2.29,0,0,1,1.57.63,2.56,2.56,0,0,1,.48.63,2.52,2.52,0,0,1,.26.74l0,.19h-.58c-.39,0-.59,0-.59-.06a1,1,0,0,0-.11-.3,1.37,1.37,0,0,0-.5-.54,1.28,1.28,0,0,0-.69-.19,1.37,1.37,0,0,0-.79.25,1.21,1.21,0,0,0-.37.45,1.15,1.15,0,0,0-.16.53v.06l0,.13.25-.12a2.59,2.59,0,0,1,1.06-.23,2.48,2.48,0,0,1,1.51.49,2.32,2.32,0,0,1,.91,1.29,2.37,2.37,0,0,1,.08.66,2.35,2.35,0,0,1-.08.65,2.42,2.42,0,0,1-.91,1.31,2.48,2.48,0,0,1-1.49.48,2.55,2.55,0,0,1-1.19-.29,2.19,2.19,0,0,1-.57-.44,2.26,2.26,0,0,1-.44-.54,2.35,2.35,0,0,1-.26-.72c0-.19,0-.7,0-1.54s0-1.38,0-1.6a2,2,0,0,1,.27-.73,2.25,2.25,0,0,1,.63-.69A2.54,2.54,0,0,1,140.7,90.18Zm1.84,3.8a1.5,1.5,0,0,0-.47-.43,1.38,1.38,0,0,0-.66-.17,1,1,0,0,0-.35.05,1.33,1.33,0,0,0-.74.49,1.31,1.31,0,0,0-.26.79,1.28,1.28,0,0,0,.76,1.2,1.31,1.31,0,0,0,.58.12,1.28,1.28,0,0,0,.58-.12,1.3,1.3,0,0,0,.79-1.19A1.32,1.32,0,0,0,142.54,94Z"/><path class="cls-9" d="M149.77,90.19a2.52,2.52,0,0,1,.52-.06,2.45,2.45,0,0,1,1.79.74,2.36,2.36,0,0,1,.71,1.72,2,2,0,0,1-.15.79,2.94,2.94,0,0,1-.53.84,11.67,11.67,0,0,1-1.23,1.11l-.9.74h2.78v1.1h-4.62L148,97a.46.46,0,0,1-.16-.36.67.67,0,0,1,0-.24A13.16,13.16,0,0,1,149.53,95c.8-.66,1.3-1.09,1.5-1.28a2.8,2.8,0,0,0,.49-.58,1,1,0,0,0,.12-.54,1.22,1.22,0,0,0-.12-.56,1.24,1.24,0,0,0-.5-.54,1.35,1.35,0,0,0-.72-.2,1.24,1.24,0,0,0-.5.1,1.92,1.92,0,0,0-.45.33,1.5,1.5,0,0,0-.3.42l-.08.23H147.9a.09.09,0,0,1-.08-.1,1.34,1.34,0,0,1,.13-.44,2.46,2.46,0,0,1,.24-.51A2.51,2.51,0,0,1,149.77,90.19Z"/><path class="cls-9" d="M155.54,90.16a2.58,2.58,0,0,1,.6-.07,2.5,2.5,0,0,1,1.49.48,2.54,2.54,0,0,1,.91,1.29,9,9,0,0,1,.09,1.76c0,.69,0,1.12,0,1.3a2,2,0,0,1-.09.49,2.58,2.58,0,0,1-.92,1.23,2.51,2.51,0,0,1-3,0,2.34,2.34,0,0,1-.88-1.32,10.34,10.34,0,0,1-.08-1.68c0-.76,0-1.25,0-1.48a2.16,2.16,0,0,1,.25-.74,1.94,1.94,0,0,1,.65-.76A2.49,2.49,0,0,1,155.54,90.16Zm1.18,1.17a1.2,1.2,0,0,0-.57-.13,1.42,1.42,0,0,0-1.23.77l-.13.26V93.6c0,.66,0,1.06,0,1.2a1,1,0,0,0,.09.36,1.38,1.38,0,0,0,.52.62,1.42,1.42,0,0,0,.74.22,1.32,1.32,0,0,0,.95-.4,1.19,1.19,0,0,0,.33-.58,9.88,9.88,0,0,0,.06-1.42,11.75,11.75,0,0,0-.05-1.38,1.32,1.32,0,0,0-.3-.57A1.8,1.8,0,0,0,156.72,91.33Z"/><path class="cls-9" d="M161.46,90.19a2.52,2.52,0,0,1,.52-.06,2.46,2.46,0,0,1,1.79.74,2.36,2.36,0,0,1,.71,1.72,2,2,0,0,1-.15.79,2.94,2.94,0,0,1-.53.84,11.67,11.67,0,0,1-1.23,1.11l-.9.74h2.78v1.1h-4.62l-.17-.16a.49.49,0,0,1-.15-.36,1,1,0,0,1,0-.24A13.78,13.78,0,0,1,161.22,95c.8-.66,1.3-1.09,1.5-1.28a2.8,2.8,0,0,0,.49-.58,1,1,0,0,0,.12-.54,1.22,1.22,0,0,0-.63-1.1,1.3,1.3,0,0,0-.71-.2,1.24,1.24,0,0,0-.5.1,1.73,1.73,0,0,0-.45.33,1.18,1.18,0,0,0-.3.42l-.09.23h-1.06c-.06,0-.08,0-.08-.1a1.53,1.53,0,0,1,.12-.44,3,3,0,0,1,.25-.51A2.51,2.51,0,0,1,161.46,90.19Z"/><path class="cls-9" d="M165.39,91.18V90.07h2.17v7.08h-1.1v-6Z"/><path class="cls-9" d="M315.72,48.89v-.7H318v7h-.7V48.89Z"/><path class="cls-9" d="M320.87,48.23a1.72,1.72,0,0,1,.34,0,1.81,1.81,0,0,1,.76.14,1.62,1.62,0,0,1,.68.59,1.65,1.65,0,0,1,.25.85,1.93,1.93,0,0,1,0,.35,1.53,1.53,0,0,1-.37.75s0,0,0,.07a.87.87,0,0,0,.2.15,2.49,2.49,0,0,1,.84,1,1.92,1.92,0,0,1,.2.87,2.1,2.1,0,0,1-.71,1.6,2.48,2.48,0,0,1-1.73.68,2.45,2.45,0,0,1-1.71-.68,2.05,2.05,0,0,1-.7-1.57v-.15a1.81,1.81,0,0,1,.18-.76,2.28,2.28,0,0,1,.83-1c.18-.12.24-.2.19-.24a1.12,1.12,0,0,1-.28-.45,1.94,1.94,0,0,1-.13-.66,1.14,1.14,0,0,1,0-.21,1.75,1.75,0,0,1,.41-.84A1.66,1.66,0,0,1,320.87,48.23Zm.82,3.21a1.52,1.52,0,0,0-.42-.06,1.77,1.77,0,0,0-.91.26,1.75,1.75,0,0,0-.66.69,1.38,1.38,0,0,0-.13.64,1.41,1.41,0,0,0,.12.63,1.72,1.72,0,0,0,.82.8,1.88,1.88,0,0,0,.76.14,1.81,1.81,0,0,0,.74-.12,1.79,1.79,0,0,0,.72-.61A1.49,1.49,0,0,0,323,53a1.14,1.14,0,0,0-.06-.39A1.69,1.69,0,0,0,321.69,51.44Zm.09-2.37a.92.92,0,0,0-.52-.17.94.94,0,0,0-.89.9.75.75,0,0,0,.12.4.83.83,0,0,0,.78.46.87.87,0,0,0,.5-.15.89.89,0,0,0,.41-.73A.82.82,0,0,0,321.78,49.07Z"/><path class="cls-9" d="M324.6,55.27v-.93h.88v.93Z"/><path class="cls-9" d="M328.13,48.26a2,2,0,0,1,.56-.07,2.55,2.55,0,0,1,1.28.31,2.33,2.33,0,0,1,.7.61,2.52,2.52,0,0,1,.43.87,10.51,10.51,0,0,1,.07,1.68,10.33,10.33,0,0,1-.08,1.82,2.33,2.33,0,0,1-.86,1.28,2.3,2.3,0,0,1-1.46.51h-.17a2.33,2.33,0,0,1-1.34-.49,2.41,2.41,0,0,1-.81-1.16,1.93,1.93,0,0,1-.09-.49c0-.18,0-.64,0-1.38s0-1.39,0-1.58a2.4,2.4,0,0,1,.26-.73,1.88,1.88,0,0,1,.61-.7A2.8,2.8,0,0,1,328.13,48.26Zm1.33.77a1.74,1.74,0,0,0-.65-.13,2,2,0,0,0-.56.05,1.69,1.69,0,0,0-1.2,1.36,12.94,12.94,0,0,0-.05,1.41,13.18,13.18,0,0,0,.05,1.42,1.76,1.76,0,0,0,1.7,1.43,1.56,1.56,0,0,0,.67-.15,1.67,1.67,0,0,0,.74-.6,1.94,1.94,0,0,0,.25-.57,7,7,0,0,0,0-1V50.15l-.12-.26a1.66,1.66,0,0,0-.37-.5A1.8,1.8,0,0,0,329.46,49Z"/><path class="cls-9" d="M334.1,48.22h.22a3.25,3.25,0,0,1,.92.11,2.38,2.38,0,0,1,.94.59,2.3,2.3,0,0,1,.55,1,1.51,1.51,0,0,1,.08.31.09.09,0,0,1-.07.09,1.31,1.31,0,0,1-.27,0h-.34l-.06-.2a1.69,1.69,0,0,0-.6-.89,1.59,1.59,0,0,0-1-.33,1.81,1.81,0,0,0-1,.28,1.69,1.69,0,0,0-.79,1.6v.41L333,51a2.53,2.53,0,0,1,1.3-.44h.17a2.34,2.34,0,0,1,1.2.32,2.24,2.24,0,0,1,1.17,2,2.51,2.51,0,0,1-.26,1.11,2.1,2.1,0,0,1-.4.53,2.13,2.13,0,0,1-.53.43,2.4,2.4,0,0,1-1.21.32,2.43,2.43,0,0,1-1.49-.5,2.2,2.2,0,0,1-.85-1.31A11.38,11.38,0,0,1,332,51.6a11.29,11.29,0,0,1,.07-1.59,2.3,2.3,0,0,1,.6-1.09A2.89,2.89,0,0,1,334.1,48.22Zm1,3.13a1.7,1.7,0,0,0-.61-.12,1.81,1.81,0,0,0-.79.2A1.64,1.64,0,0,0,333,52a1.6,1.6,0,0,0-.26.86,1.49,1.49,0,0,0,.06.4,1.77,1.77,0,0,0,.64.94,1.71,1.71,0,0,0,2.37-.32,1.59,1.59,0,0,0,.35-1,1.7,1.7,0,0,0-.29-.94A1.54,1.54,0,0,0,335.08,51.35Z"/><path class="cls-9" d="M337.75,53.27v-.74h5.11v.74Z"/><path class="cls-9" d="M345.89,48.27h.46a2.42,2.42,0,0,1,1.43.58,2.31,2.31,0,0,1,.77,1.33,1.73,1.73,0,0,1,0,.41,2.35,2.35,0,0,1-.46,1.37,3.07,3.07,0,0,1-.49.54c-.19.18-.64.55-1.33,1.13l-1.18,1h1.74l1.75,0v.68h-4.38a.76.76,0,0,1-.38-.07.33.33,0,0,1-.09-.23.34.34,0,0,1,.13-.28l1.68-1.4c1.07-.88,1.66-1.4,1.79-1.54a1.69,1.69,0,0,0,.53-1.16,1.25,1.25,0,0,0,0-.24,1.72,1.72,0,0,0-.48-.91,1.89,1.89,0,0,0-.93-.48l-.3,0a1.59,1.59,0,0,0-.89.26,1.7,1.7,0,0,0-.63.7,1,1,0,0,0-.15.37.08.08,0,0,1-.06.08h-.31c-.24,0-.35,0-.35-.06a.15.15,0,0,1,0-.08l0-.14a1.27,1.27,0,0,1,0-.14,2.07,2.07,0,0,1,.72-1.1A2.72,2.72,0,0,1,345.89,48.27Z"/><path class="cls-9" d="M351.29,48.26a2,2,0,0,1,.56-.07,2.55,2.55,0,0,1,1.28.31,2.33,2.33,0,0,1,.7.61,2.72,2.72,0,0,1,.43.87,10.51,10.51,0,0,1,.07,1.68,11.53,11.53,0,0,1-.08,1.82,2.33,2.33,0,0,1-.86,1.28,2.3,2.3,0,0,1-1.46.51h-.17a2.33,2.33,0,0,1-1.34-.49,2.43,2.43,0,0,1-.82-1.16,3.56,3.56,0,0,1-.09-.49c0-.18,0-.64,0-1.38s0-1.39,0-1.58a2.4,2.4,0,0,1,.26-.73,1.88,1.88,0,0,1,.61-.7A2.8,2.8,0,0,1,351.29,48.26Zm1.33.77a1.74,1.74,0,0,0-.65-.13,2,2,0,0,0-.56.05,1.69,1.69,0,0,0-1.2,1.36,12.94,12.94,0,0,0,0,1.41,13.18,13.18,0,0,0,0,1.42,1.76,1.76,0,0,0,1.7,1.43,1.56,1.56,0,0,0,.67-.15,1.67,1.67,0,0,0,.74-.6,1.94,1.94,0,0,0,.25-.57,7,7,0,0,0,.05-1V50.15l-.12-.26a1.84,1.84,0,0,0-.37-.5A2,2,0,0,0,352.62,49Z"/><path class="cls-9" d="M355.19,55.27v-.93h.88v.93Z"/><path class="cls-9" d="M358.72,48.26a2,2,0,0,1,.56-.07,2.55,2.55,0,0,1,1.28.31,2.33,2.33,0,0,1,.7.61,2.72,2.72,0,0,1,.43.87,10.51,10.51,0,0,1,.07,1.68,11.53,11.53,0,0,1-.08,1.82,2.33,2.33,0,0,1-.86,1.28,2.3,2.3,0,0,1-1.46.51h-.17a2.33,2.33,0,0,1-1.34-.49A2.43,2.43,0,0,1,357,53.6a3.56,3.56,0,0,1-.09-.49c0-.18,0-.64,0-1.38s0-1.39,0-1.58a2.4,2.4,0,0,1,.26-.73,1.88,1.88,0,0,1,.61-.7A2.8,2.8,0,0,1,358.72,48.26Zm1.33.77a1.74,1.74,0,0,0-.65-.13,2,2,0,0,0-.56.05,1.69,1.69,0,0,0-1.2,1.36,10.71,10.71,0,0,0-.05,1.41,10.89,10.89,0,0,0,.05,1.42,1.76,1.76,0,0,0,1.7,1.43,1.56,1.56,0,0,0,.67-.15,1.67,1.67,0,0,0,.74-.6,1.94,1.94,0,0,0,.25-.57,7,7,0,0,0,.05-1V50.15l-.12-.26a1.84,1.84,0,0,0-.37-.5A2,2,0,0,0,360.05,49Z"/><path class="cls-9" d="M364.69,48.22h.22a3.3,3.3,0,0,1,.92.11,2.38,2.38,0,0,1,.94.59,2.3,2.3,0,0,1,.55,1,1.27,1.27,0,0,1,.07.31.08.08,0,0,1-.06.09l-.27,0h-.34l-.06-.2a1.69,1.69,0,0,0-.6-.89,1.59,1.59,0,0,0-1-.33,1.87,1.87,0,0,0-1,.28,1.71,1.71,0,0,0-.78,1.6v.41l.29-.19a2.53,2.53,0,0,1,1.3-.44h.17a2.34,2.34,0,0,1,1.2.32,2.24,2.24,0,0,1,1.17,2A2.51,2.51,0,0,1,367.2,54a2.1,2.1,0,0,1-.4.53,2.32,2.32,0,0,1-.53.43,2.4,2.4,0,0,1-1.21.32,2.43,2.43,0,0,1-1.49-.5,2.2,2.2,0,0,1-.85-1.31,11.38,11.38,0,0,1-.09-1.86A9.85,9.85,0,0,1,362.7,50a2.37,2.37,0,0,1,.59-1.09A3,3,0,0,1,364.69,48.22Zm1,3.13a1.7,1.7,0,0,0-.61-.12,1.81,1.81,0,0,0-.79.2,1.58,1.58,0,0,0-.67.61,1.6,1.6,0,0,0-.26.86,1.49,1.49,0,0,0,.06.4,1.77,1.77,0,0,0,.64.94,1.71,1.71,0,0,0,2.37-.32,1.59,1.59,0,0,0,.35-1,1.7,1.7,0,0,0-.29-.94A1.54,1.54,0,0,0,365.67,51.35Z"/></g></g></svg>